<?xml version="1.0" encoding="UTF-8" standalone="no"?>
<!-- Generator: Adobe Illustrator 15.0.2, SVG Export Plug-In . SVG Version: 6.00 Build 0)  -->

<svg
   xmlns:dc="http://purl.org/dc/elements/1.1/"
   xmlns:cc="http://creativecommons.org/ns#"
   xmlns:rdf="http://www.w3.org/1999/02/22-rdf-syntax-ns#"
   xmlns:svg="http://www.w3.org/2000/svg"
   xmlns="http://www.w3.org/2000/svg"
   xmlns:xlink="http://www.w3.org/1999/xlink"
   xmlns:sodipodi="http://sodipodi.sourceforge.net/DTD/sodipodi-0.dtd"
   xmlns:inkscape="http://www.inkscape.org/namespaces/inkscape"
   version="1.0"
   id="Layer_1"
   x="0px"
   y="0px"
   width="481.43201"
   height="747.36383"
   viewBox="0 0 481.43198 747.36382"
   enable-background="new 0 0 595.28 841.89"
   xml:space="preserve"
   inkscape:version="0.48.2 r9819"
   sodipodi:docname="bakgrunnur_stor_grein.svg"><metadata
   id="metadata215"><rdf:RDF><cc:Work
       rdf:about=""><dc:format>image/svg+xml</dc:format><dc:type
         rdf:resource="http://purl.org/dc/dcmitype/StillImage" /><dc:title></dc:title></cc:Work></rdf:RDF></metadata><defs
   id="defs213" /><sodipodi:namedview
   pagecolor="#ffffff"
   bordercolor="#666666"
   borderopacity="1"
   objecttolerance="10"
   gridtolerance="10"
   guidetolerance="10"
   inkscape:pageopacity="0"
   inkscape:pageshadow="2"
   inkscape:window-width="967"
   inkscape:window-height="1146"
   id="namedview211"
   showgrid="false"
   inkscape:zoom="0.79286936"
   inkscape:cx="315.00969"
   inkscape:cy="364.15712"
   inkscape:window-x="936"
   inkscape:window-y="1223"
   inkscape:window-maximized="0"
   inkscape:current-layer="Layer_1"
   fit-margin-top="0.2"
   fit-margin-left="0"
   fit-margin-right="0"
   fit-margin-bottom="0"
   showborder="true" />
<rect
   x="0.97299045"
   y="0.2"
   width="479.5"
   height="41.043823"
   id="rect3"
   style="fill:#c7e7dd" />
<g
   id="g5"
   transform="translate(-60.847009,-57.977176)">
	<g
   id="g7">
		<defs
   id="defs9">
			<path
   id="SVGID_1_"
   d="m 542.279,108.783 c 0,-2.061 -1.134,-3.838 -2.801,-4.798 1.667,-0.96 2.801,-2.738 2.801,-4.798 0,-3.068 -2.489,-5.558 -5.557,-5.558 -2.032,0 -3.79,1.1 -4.76,2.727 -0.961,-1.656 -2.734,-2.785 -4.789,-2.785 -2.057,0 -3.837,1.135 -4.798,2.8 -0.957,-1.665 -2.737,-2.8 -4.797,-2.8 -2.057,0 -3.837,1.135 -4.797,2.8 -0.961,-1.665 -2.738,-2.8 -4.798,-2.8 -2.061,0 -3.838,1.135 -4.799,2.801 -0.96,-1.667 -2.737,-2.801 -4.797,-2.801 -2.061,0 -3.833,1.135 -4.798,2.8 -0.957,-1.665 -2.737,-2.8 -4.798,-2.8 -2.06,0 -3.837,1.135 -4.794,2.8 -0.961,-1.665 -2.741,-2.8 -4.801,-2.8 -0.788,0 -1.534,0.168 -2.208,0.466 -1.103,0.449 -2.023,1.244 -2.643,2.249 -0.975,-1.617 -2.719,-2.715 -4.744,-2.715 -0.017,0 -0.032,0.003 -0.048,0.003 -0.016,0 -0.028,-0.003 -0.044,-0.003 -2.029,0 -3.78,1.104 -4.75,2.729 -0.971,-1.625 -2.726,-2.729 -4.751,-2.729 -0.015,0 -0.031,0.003 -0.047,0.003 -0.016,0 -0.031,-0.003 -0.048,-0.003 -2.028,0 -3.78,1.104 -4.75,2.729 -0.97,-1.625 -2.725,-2.729 -4.75,-2.729 -0.017,0 -0.031,0.003 -0.048,0.003 -0.016,0 -0.031,-0.003 -0.047,-0.003 -2.031,0 -3.783,1.105 -4.754,2.731 -0.967,-1.625 -2.719,-2.731 -4.75,-2.731 -0.016,0 -0.032,0.003 -0.047,0.003 -0.017,0 -0.028,-0.003 -0.045,-0.003 -2.031,0 -3.776,1.104 -4.751,2.729 -0.969,-1.625 -2.721,-2.729 -4.752,-2.729 -0.017,0 -0.032,0.003 -0.048,0.003 -0.016,0 -0.028,-0.003 -0.044,-0.003 -2.031,0 -3.783,1.105 -4.75,2.731 -0.968,-1.626 -2.723,-2.731 -4.754,-2.731 -0.016,0 -0.032,0.003 -0.047,0.003 -0.017,0 -0.028,-0.003 -0.045,-0.003 -2.031,0 -3.783,1.105 -4.75,2.731 -0.967,-1.626 -2.722,-2.731 -4.747,-2.731 -0.02,0 -0.034,0.003 -0.051,0.003 -0.016,0 -0.031,-0.003 -0.047,-0.003 -2.028,0 -3.783,1.105 -4.754,2.73 -0.967,-1.626 -2.718,-2.73 -4.754,-2.73 -0.015,0 -0.028,0.003 -0.043,0.003 -0.017,0 -0.032,-0.003 -0.048,-0.003 -2.032,0 -3.786,1.105 -4.75,2.732 -0.971,-1.626 -2.722,-2.732 -4.75,-2.732 -0.017,0 -0.032,0.003 -0.048,0.003 -0.016,0 -0.032,-0.003 -0.047,-0.003 -2.029,0 -3.78,1.104 -4.751,2.729 -0.97,-1.625 -2.721,-2.729 -4.754,-2.729 -0.016,0 -0.03,0.003 -0.047,0.003 -0.016,0 -0.028,-0.003 -0.044,-0.003 -2.028,0 -3.783,1.105 -4.75,2.73 -0.971,-1.626 -2.723,-2.73 -4.754,-2.73 -0.015,0 -0.031,0.003 -0.047,0.003 -0.016,0 -0.028,-0.003 -0.044,-0.003 -2.029,0 -3.78,1.104 -4.751,2.729 -0.97,-1.625 -2.721,-2.729 -4.751,-2.729 -0.015,0 -0.031,0.003 -0.047,0.003 -0.015,0 -0.031,-0.003 -0.047,-0.003 -2.025,0 -3.78,1.104 -4.75,2.73 -0.971,-1.626 -2.723,-2.73 -4.75,-2.73 -0.017,0 -0.032,0.003 -0.048,0.003 -0.013,0 -0.028,-0.003 -0.044,-0.003 -2.032,0 -3.783,1.104 -4.754,2.73 -0.97,-1.626 -2.718,-2.73 -4.751,-2.73 -0.015,0 -0.03,0.003 -0.047,0.003 -0.015,0 -0.031,-0.003 -0.047,-0.003 -2.029,0 -3.779,1.105 -4.75,2.73 -0.971,-1.626 -2.719,-2.73 -4.751,-2.73 -0.015,0 -0.031,0.003 -0.047,0.003 -0.016,0 -0.028,-0.003 -0.044,-0.003 -2.032,0 -3.783,1.105 -4.754,2.73 -0.97,-1.625 -2.718,-2.73 -4.75,-2.73 -0.016,0 -0.031,0.003 -0.048,0.003 -0.015,0 -0.031,-0.003 -0.047,-0.003 -2.029,0 -3.779,1.104 -4.747,2.731 -0.971,-1.627 -2.722,-2.731 -4.754,-2.731 -0.015,0 -0.031,0.003 -0.047,0.003 -0.016,0 -0.031,-0.003 -0.048,-0.003 -2.028,0 -3.779,1.105 -4.747,2.73 -0.97,-1.626 -2.721,-2.73 -4.75,-2.73 -0.016,0 -0.031,0.003 -0.047,0.003 -0.016,0 -0.032,-0.003 -0.047,-0.003 -2.032,0 -3.783,1.105 -4.754,2.73 -0.97,-1.625 -2.722,-2.73 -4.751,-2.73 -0.016,0 -0.031,0.003 -0.047,0.003 -0.016,0 -0.029,-0.003 -0.044,-0.003 -2.032,0 -3.783,1.105 -4.751,2.732 -0.971,-1.627 -2.721,-2.732 -4.75,-2.732 -0.016,0 -0.031,0.003 -0.047,0.003 -0.016,0 -0.032,-0.003 -0.047,-0.003 -2.029,0 -3.781,1.104 -4.751,2.73 -0.971,-1.626 -2.722,-2.73 -4.751,-2.73 -0.016,0 -0.031,0.003 -0.047,0.003 -0.016,0 -0.031,-0.003 -0.047,-0.003 -2.028,0 -3.784,1.105 -4.75,2.73 -0.971,-1.626 -2.723,-2.73 -4.754,-2.73 -0.016,0 -0.029,0.003 -0.044,0.003 -0.016,0 -0.032,-0.003 -0.047,-0.003 -2.03,0 -3.783,1.105 -4.751,2.731 -0.968,-1.625 -2.721,-2.731 -4.751,-2.731 -0.015,0 -0.031,0.003 -0.047,0.003 -0.015,0 -0.031,-0.003 -0.048,-0.003 -2.028,0 -3.783,1.105 -4.75,2.731 -0.967,-1.626 -2.718,-2.731 -4.75,-2.731 -0.016,0 -0.031,0.003 -0.047,0.003 -0.016,0 -0.029,-0.003 -0.044,-0.003 -2.032,0 -3.787,1.104 -4.754,2.73 -0.97,-1.626 -2.722,-2.73 -4.751,-2.73 -0.016,0 -0.031,0.003 -0.047,0.003 -0.016,0 -0.031,-0.003 -0.047,-0.003 -2.029,0 -3.78,1.104 -4.75,2.731 -0.971,-1.625 -2.719,-2.731 -4.752,-2.731 -0.015,0 -0.03,0.003 -0.047,0.003 -0.015,0 -0.027,-0.003 -0.043,-0.003 -2.033,0 -3.783,1.104 -4.751,2.73 -0.97,-1.626 -2.726,-2.73 -4.754,-2.73 -0.015,0 -0.03,0.003 -0.047,0.003 -0.015,0 -0.028,-0.003 -0.044,-0.003 -2.032,0 -3.783,1.104 -4.75,2.73 -0.971,-1.626 -2.722,-2.73 -4.75,-2.73 -0.02,0 -0.032,0.003 -0.051,0.003 -0.016,0 -0.031,-0.003 -0.048,-0.003 -2.024,0 -3.779,1.105 -4.75,2.73 -0.968,-1.626 -2.718,-2.73 -4.751,-2.73 -0.015,0 -0.028,0.003 -0.043,0.003 -0.016,0 -0.032,-0.003 -0.047,-0.003 -2.033,0 -3.781,1.104 -4.752,2.73 -0.97,-1.626 -2.725,-2.73 -4.753,-2.73 -0.015,0 -0.031,0.003 -0.048,0.003 -0.015,0 -0.027,-0.003 -0.043,-0.003 -2.029,0 -3.783,1.104 -4.751,2.729 -0.974,-1.625 -2.722,-2.729 -4.75,-2.729 -0.016,0 -0.032,0.003 -0.047,0.003 -0.017,0 -0.032,-0.003 -0.048,-0.003 -2.032,0 -3.779,1.105 -4.75,2.73 -0.971,-1.626 -2.722,-2.73 -4.751,-2.73 -0.015,0 -0.031,0.003 -0.048,0.003 -0.015,0 -0.031,-0.003 -0.047,-0.003 -2.031,0 -3.783,1.105 -4.75,2.731 -0.971,-1.626 -2.723,-2.731 -4.754,-2.731 -0.015,0 -0.031,0.003 -0.047,0.003 -0.016,0 -0.028,-0.003 -0.045,-0.003 -2.031,0 -3.782,1.105 -4.75,2.732 -0.97,-1.626 -2.721,-2.732 -4.75,-2.732 -0.016,0 -0.031,0.003 -0.047,0.003 -0.016,0 -0.028,-0.003 -0.044,-0.003 -2.032,0 -3.783,1.105 -4.754,2.731 -0.967,-1.626 -2.722,-2.731 -4.75,-2.731 -0.016,0 -0.032,0.003 -0.048,0.003 -0.016,0 -0.031,-0.003 -0.047,-0.003 -2.028,0 -3.783,1.105 -4.75,2.731 -0.971,-1.626 -2.723,-2.731 -4.75,-2.731 -0.017,0 -0.032,0.003 -0.048,0.003 -0.017,0 -0.032,-0.003 -0.048,-0.003 -2.06,0 -3.833,1.135 -4.794,2.8 -0.964,-1.665 -2.737,-2.8 -4.798,-2.8 -1.906,0 -3.559,0.976 -4.559,2.438 -0.037,0.054 -0.075,0.11 -0.109,0.166 -0.041,0.066 -0.092,0.127 -0.129,0.196 -0.961,-1.666 -2.738,-2.801 -4.799,-2.801 -2.062,0 -3.84,1.135 -4.797,2.801 -0.961,-1.666 -2.737,-2.801 -4.801,-2.801 -2.057,0 -3.837,1.135 -4.797,2.8 -0.959,-1.665 -2.734,-2.8 -4.795,-2.8 -2.063,0 -3.84,1.135 -4.801,2.801 -0.955,-1.666 -2.734,-2.801 -4.795,-2.801 -2.062,0 -3.836,1.135 -4.797,2.801 -0.961,-1.666 -2.738,-2.801 -4.799,-2.801 -2.107,0 -3.918,1.189 -4.863,2.919 -0.951,-1.698 -2.746,-2.861 -4.829,-2.861 -3.071,0 -5.56,2.49 -5.56,5.558 0,2.06 1.134,3.838 2.801,4.798 -1.667,0.96 -2.801,2.737 -2.801,4.798 0,2.06 1.134,3.836 2.801,4.797 -1.667,0.959 -2.801,2.737 -2.801,4.797 0,2.06 1.134,3.838 2.801,4.796 -1.667,0.96 -2.801,2.739 -2.801,4.799 0,2.061 1.134,3.837 2.801,4.798 -1.667,0.959 -2.801,2.737 -2.801,4.797 0,2.061 1.134,3.837 2.801,4.795 -1.667,0.96 -2.801,2.74 -2.801,4.799 0,2.061 1.134,3.838 2.801,4.796 -1.667,0.96 -2.801,2.74 -2.801,4.8 0,2.059 1.134,3.837 2.801,4.796 -1.667,0.959 -2.801,2.737 -2.801,4.797 0,2.06 1.134,3.838 2.801,4.797 -1.667,0.959 -2.801,2.737 -2.801,4.796 0,2.06 1.134,3.84 2.801,4.801 -1.667,0.958 -2.801,2.735 -2.801,4.794 0,2.06 1.134,3.838 2.801,4.799 -1.667,0.959 -2.801,2.736 -2.801,4.796 0,2.062 1.134,3.838 2.801,4.797 -1.667,0.961 -2.801,2.737 -2.801,4.798 0,2.06 1.134,3.838 2.801,4.797 -1.667,0.961 -2.801,2.737 -2.801,4.798 0,2.06 1.134,3.836 2.801,4.797 -1.667,0.961 -2.801,2.737 -2.801,4.798 0,2.06 1.134,3.836 2.801,4.797 -1.667,0.959 -2.801,2.737 -2.801,4.798 0,2.06 1.134,3.839 2.801,4.798 -1.667,0.961 -2.801,2.737 -2.801,4.797 0,2.061 1.134,3.838 2.801,4.798 -1.667,0.96 -2.801,2.737 -2.801,4.798 0,2.061 1.134,3.837 2.801,4.796 -1.667,0.959 -2.801,2.738 -2.801,4.799 0,2.061 1.134,3.836 2.801,4.797 -1.667,0.957 -2.801,2.738 -2.801,4.797 0,2.061 1.134,3.838 2.801,4.797 -1.667,0.959 -2.801,2.738 -2.801,4.799 0,2.059 1.134,3.838 2.801,4.799 -1.667,0.959 -2.801,2.734 -2.801,4.797 0,2.059 1.134,3.838 2.801,4.799 -1.667,0.959 -2.801,2.734 -2.801,4.793 0,2.061 1.134,3.84 2.801,4.801 -1.667,0.959 -2.801,2.734 -2.801,4.795 0,2.062 1.134,3.838 2.801,4.797 -1.667,0.961 -2.801,2.738 -2.801,4.799 0,2.061 1.134,3.838 2.801,4.799 -1.667,0.959 -2.801,2.736 -2.801,4.797 0,2.059 1.134,3.838 2.801,4.799 -1.667,0.959 -2.801,2.736 -2.801,4.795 0,2.061 1.134,3.84 2.801,4.799 -1.667,0.961 -2.801,2.738 -2.801,4.797 0,2.061 1.134,3.838 2.801,4.797 -1.667,0.961 -2.801,2.738 -2.801,4.799 0,2.061 1.134,3.836 2.801,4.797 -1.667,0.961 -2.801,2.738 -2.801,4.799 0,2.061 1.134,3.836 2.801,4.795 -1.667,0.961 -2.801,2.74 -2.801,4.799 0,2.059 1.134,3.838 2.801,4.797 -1.667,0.959 -2.801,2.738 -2.801,4.799 0,2.059 1.134,3.836 2.801,4.797 -1.667,0.959 -2.801,2.738 -2.801,4.797 0,2.061 1.134,3.838 2.801,4.799 -1.667,0.959 -2.801,2.736 -2.801,4.797 0,2.061 1.134,3.838 2.801,4.799 -1.667,0.959 -2.801,2.736 -2.801,4.797 0,2.059 1.134,3.838 2.801,4.797 -1.667,0.959 -2.801,2.736 -2.801,4.797 0,2.061 1.134,3.838 2.801,4.799 -1.667,0.959 -2.801,2.736 -2.801,4.797 0,2.059 1.134,3.838 2.801,4.797 -1.667,0.961 -2.801,2.738 -2.801,4.797 0,2.061 1.134,3.838 2.801,4.799 -1.667,0.961 -2.801,2.738 -2.801,4.795 0,2.061 1.134,3.84 2.801,4.801 -1.667,0.959 -2.801,2.736 -2.801,4.795 0,2.062 1.134,3.84 2.801,4.799 -1.667,0.961 -2.801,2.738 -2.801,4.797 0,2.064 1.134,3.84 2.801,4.799 -1.667,0.961 -2.801,2.734 -2.801,4.799 0,2.059 1.134,3.838 2.801,4.799 -1.667,0.957 -2.801,2.736 -2.801,4.795 0,2.061 1.134,3.838 2.801,4.795 -1.667,0.961 -2.801,2.74 -2.801,4.799 0,2.061 1.134,3.84 2.801,4.799 -1.667,0.961 -2.801,2.736 -2.801,4.797 0,2.061 1.134,3.84 2.801,4.801 -1.667,0.959 -2.801,2.734 -2.801,4.795 0,2.061 1.134,3.838 2.801,4.797 -1.667,0.959 -2.801,2.738 -2.801,4.799 0,2.061 1.134,3.836 2.801,4.797 -1.667,0.959 -2.801,2.736 -2.801,4.797 0,2.059 1.134,3.838 2.801,4.797 -1.667,0.961 -2.801,2.736 -2.801,4.799 0,2.059 1.134,3.838 2.801,4.799 -1.667,0.961 -2.801,2.736 -2.801,4.793 0,2.061 1.134,3.84 2.801,4.801 -1.667,0.959 -2.801,2.734 -2.801,4.795 0,2.064 1.134,3.84 2.801,4.799 -1.667,0.961 -2.801,2.736 -2.801,4.799 0,2.059 1.134,3.836 2.801,4.797 -1.667,0.959 -2.801,2.738 -2.801,4.797 0,2.061 1.134,3.838 2.801,4.799 -1.667,0.959 -2.801,2.738 -2.801,4.795 0,2.062 1.134,3.84 2.801,4.799 -1.667,0.961 -2.801,2.74 -2.801,4.797 0,2.061 1.134,3.84 2.801,4.799 -1.667,0.959 -2.801,2.736 -2.801,4.797 0,2.061 1.134,3.84 2.801,4.799 -1.667,0.961 -2.801,2.736 -2.801,4.797 0,2.061 1.134,3.838 2.801,4.797 -1.667,0.961 -2.801,2.738 -2.801,4.797 0,2.061 1.134,3.84 2.801,4.801 -1.667,0.955 -2.801,2.734 -2.801,4.795 0,2.059 1.134,3.84 2.801,4.799 -1.667,0.961 -2.801,2.736 -2.801,4.797 0,2.061 1.134,3.836 2.801,4.797 -1.667,0.961 -2.801,2.734 -2.801,4.795 0,2.061 1.134,3.84 2.801,4.801 -1.667,0.957 -2.801,2.738 -2.801,4.795 0,2.062 1.134,3.84 2.801,4.801 -1.667,0.961 -2.801,2.736 -2.801,4.793 0,2.064 1.134,3.838 2.801,4.799 -1.667,0.961 -2.801,2.74 -2.801,4.797 0,2.061 1.134,3.84 2.801,4.799 -1.667,0.961 -2.801,2.736 -2.801,4.797 0,2.064 1.134,3.838 2.801,4.799 -1.667,0.961 -2.801,2.736 -2.801,4.797 0,2.061 1.134,3.836 2.801,4.797 -1.667,0.961 -2.801,2.74 -2.801,4.795 0,2.064 1.134,3.84 2.801,4.801 -1.667,0.961 -2.801,2.738 -2.801,4.797 0,2.064 1.134,3.838 2.801,4.799 -1.667,0.961 -2.801,2.736 -2.801,4.797 0,2.061 1.134,3.836 2.801,4.797 -1.667,0.961 -2.801,2.738 -2.801,4.799 0,2.061 1.134,3.84 2.801,4.797 -1.667,0.961 -2.801,2.738 -2.801,4.797 0,2.061 1.134,3.838 2.801,4.799 -1.667,0.961 -2.801,2.736 -2.801,4.795 0,2.062 1.134,3.84 2.801,4.801 -1.667,0.957 -2.801,2.736 -2.801,4.797 0,2.061 1.134,3.836 2.801,4.797 -1.667,0.961 -2.801,2.738 -2.801,4.799 0,2.057 1.134,3.836 2.801,4.797 -1.667,0.959 -2.801,2.734 -2.801,4.795 0,0.027 0.01,0.053 0.01,0.078 0,0.025 -0.01,0.051 -0.01,0.076 0,3.068 2.488,5.557 5.56,5.557 2.107,0 3.919,-1.188 4.86,-2.92 0.951,1.701 2.748,2.863 4.832,2.863 2.061,0 3.838,-1.135 4.795,-2.797 0.961,1.662 2.738,2.797 4.801,2.797 2.061,0 3.837,-1.135 4.795,-2.797 0.961,1.662 2.737,2.797 4.801,2.797 2.057,0 3.836,-1.135 4.795,-2.797 0.96,1.662 2.74,2.797 4.797,2.797 2.061,0 3.84,-1.135 4.798,-2.797 0.96,1.662 2.737,2.797 4.798,2.797 2.047,0 3.814,-1.121 4.778,-2.766 0.958,1.678 2.741,2.822 4.813,2.822 2.072,0 3.858,-1.152 4.811,-2.842 0.963,1.658 2.733,2.785 4.787,2.785 0.016,0 0.031,-0.004 0.048,-0.004 0.016,0 0.031,0.004 0.048,0.004 2.027,0 3.779,-1.105 4.75,-2.729 0.967,1.623 2.719,2.729 4.75,2.729 0.016,0 0.031,-0.004 0.047,-0.004 0.016,0 0.032,0.004 0.048,0.004 2.028,0 3.78,-1.102 4.747,-2.729 0.971,1.627 2.725,2.729 4.754,2.729 0.016,0 0.031,-0.004 0.047,-0.004 0.016,0 0.031,0.004 0.047,0.004 2.029,0 3.78,-1.105 4.75,-2.729 0.971,1.623 2.723,2.729 4.748,2.729 0.016,0 0.031,-0.004 0.047,-0.004 0.016,0 0.032,0.004 0.047,0.004 2.031,0 3.783,-1.105 4.754,-2.729 0.967,1.623 2.719,2.729 4.75,2.729 0.016,0 0.028,-0.004 0.045,-0.004 0.016,0 0.031,0.004 0.047,0.004 2.032,0 3.783,-1.102 4.754,-2.729 0.971,1.627 2.721,2.729 4.75,2.729 0.016,0 0.031,-0.004 0.048,-0.004 0.015,0 0.031,0.004 0.047,0.004 2.028,0 3.776,-1.105 4.747,-2.729 0.971,1.623 2.721,2.729 4.754,2.729 0.016,0 0.028,-0.004 0.043,-0.004 0.017,0 0.033,0.004 0.048,0.004 2.028,0 3.78,-1.105 4.751,-2.729 0.971,1.623 2.721,2.729 4.754,2.729 0.015,0 0.027,-0.004 0.043,-0.004 0.016,0 0.032,0.004 0.047,0.004 2.033,0 3.783,-1.105 4.751,-2.729 0.971,1.623 2.726,2.729 4.75,2.729 0.017,0 0.032,-0.004 0.048,-0.004 0.016,0 0.031,0.004 0.047,0.004 2.032,0 3.78,-1.102 4.75,-2.729 0.967,1.627 2.722,2.729 4.75,2.729 0.017,0 0.033,-0.004 0.048,-0.004 0.017,0 0.028,0.004 0.044,0.004 2.031,0 3.783,-1.105 4.754,-2.729 0.971,1.623 2.721,2.729 4.754,2.729 0.016,0 0.028,-0.004 0.043,-0.004 0.017,0 0.032,0.004 0.047,0.004 2.033,0 3.781,-1.102 4.748,-2.73 0.971,1.625 2.722,2.73 4.754,2.73 0.016,0 0.031,-0.004 0.047,-0.004 0.016,0 0.031,0.004 0.047,0.004 2.029,0 3.781,-1.105 4.751,-2.729 0.967,1.623 2.722,2.729 4.75,2.729 0.017,0 0.032,-0.004 0.048,-0.004 0.016,0 0.031,0.004 0.047,0.004 2.028,0 3.78,-1.102 4.75,-2.729 0.967,1.627 2.722,2.729 4.75,2.729 0.017,0 0.033,-0.004 0.048,-0.004 0.016,0 0.032,0.004 0.047,0.004 2.03,0 3.783,-1.105 4.751,-2.73 0.968,1.629 2.719,2.73 4.751,2.73 0.015,0 0.028,-0.004 0.044,-0.004 0.016,0 0.031,0.004 0.047,0.004 2.031,0 3.783,-1.105 4.754,-2.729 0.966,1.623 2.718,2.729 4.75,2.729 0.016,0 0.031,-0.004 0.047,-0.004 0.016,0 0.027,0.004 0.044,0.004 2.032,0 3.783,-1.102 4.754,-2.729 0.97,1.627 2.718,2.729 4.751,2.729 0.015,0 0.031,-0.004 0.047,-0.004 0.016,0 0.031,0.004 0.047,0.004 2.029,0 3.779,-1.105 4.75,-2.729 0.968,1.623 2.719,2.729 4.751,2.729 0.015,0 0.028,-0.004 0.044,-0.004 0.016,0 0.031,0.004 0.047,0.004 2.029,0 3.781,-1.105 4.751,-2.729 0.971,1.623 2.722,2.729 4.754,2.729 0.015,0 0.028,-0.004 0.043,-0.004 0.017,0 0.032,0.004 0.048,0.004 2.032,0 3.783,-1.105 4.753,-2.729 0.968,1.623 2.719,2.729 4.747,2.729 0.017,0 0.032,-0.004 0.048,-0.004 0.016,0 0.032,0.004 0.047,0.004 2.032,0 3.783,-1.102 4.751,-2.73 0.967,1.625 2.721,2.73 4.75,2.73 0.016,0 0.032,-0.004 0.047,-0.004 0.017,0 0.032,0.004 0.048,0.004 2.028,0 3.78,-1.105 4.75,-2.729 0.971,1.623 2.722,2.729 4.754,2.729 0.016,0 0.028,-0.004 0.044,-0.004 0.016,0 0.032,0.004 0.047,0.004 2.028,0 3.78,-1.105 4.751,-2.729 0.971,1.623 2.721,2.729 4.75,2.729 0.016,0 0.032,-0.004 0.047,-0.004 0.017,0 0.032,0.004 0.047,0.004 2.029,0 3.781,-1.105 4.751,-2.729 0.971,1.623 2.722,2.729 4.754,2.729 0.016,0 0.028,-0.004 0.044,-0.004 0.016,0 0.031,0.004 0.048,0.004 2.027,0 3.779,-1.105 4.75,-2.729 0.97,1.623 2.725,2.729 4.75,2.729 0.016,0 0.032,-0.004 0.047,-0.004 0.016,0 0.032,0.004 0.047,0.004 2.03,0 3.781,-1.102 4.751,-2.729 0.971,1.627 2.722,2.729 4.751,2.729 0.016,0 0.028,-0.004 0.044,-0.004 0.016,0 0.032,0.004 0.047,0.004 2.031,0 3.783,-1.102 4.754,-2.729 0.967,1.627 2.718,2.729 4.75,2.729 0.016,0 0.028,-0.004 0.044,-0.004 0.017,0 0.031,0.004 0.047,0.004 2.033,0 3.784,-1.102 4.754,-2.729 0.971,1.627 2.722,2.729 4.751,2.729 0.015,0 0.031,-0.004 0.047,-0.004 0.016,0 0.031,0.004 0.048,0.004 2.028,0 3.779,-1.105 4.75,-2.729 0.967,1.623 2.722,2.729 4.75,2.729 0.016,0 0.031,-0.004 0.048,-0.004 0.015,0 0.028,0.004 0.043,0.004 2.036,0 3.787,-1.102 4.754,-2.729 0.971,1.627 2.726,2.729 4.754,2.729 0.016,0 0.031,-0.004 0.047,-0.004 0.017,0 0.031,0.004 0.048,0.004 2.028,0 3.78,-1.105 4.75,-2.729 0.967,1.623 2.719,2.729 4.75,2.729 0.017,0 0.028,-0.004 0.045,-0.004 0.015,0 0.031,0.004 0.047,0.004 2.031,0 3.783,-1.105 4.754,-2.729 0.967,1.623 2.719,2.729 4.75,2.729 0.016,0 0.028,-0.004 0.044,-0.004 0.016,0 0.031,0.004 0.048,0.004 2.031,0 3.783,-1.102 4.752,-2.729 0.971,1.627 2.72,2.729 4.751,2.729 0.017,0 0.028,-0.004 0.045,-0.004 0.015,0 0.031,0.004 0.047,0.004 2.031,0 3.783,-1.105 4.75,-2.729 0.971,1.623 2.723,2.729 4.754,2.729 0.016,0 0.028,-0.004 0.044,-0.004 0.016,0 0.031,0.004 0.048,0.004 2.028,0 3.783,-1.102 4.753,-2.729 0.97,1.627 2.719,2.729 4.75,2.729 0.017,0 0.028,-0.004 0.045,-0.004 0.016,0 0.031,0.004 0.047,0.004 2.028,0 3.783,-1.105 4.75,-2.729 0.971,1.623 2.723,2.729 4.754,2.729 0.016,0 0.028,-0.004 0.044,-0.004 0.016,0 0.031,0.004 0.048,0.004 2.003,0 3.729,-1.074 4.709,-2.662 0.973,1.623 2.721,2.719 4.747,2.719 0.535,0 1.043,-0.1 1.534,-0.242 0.101,-0.025 0.198,-0.061 0.296,-0.092 0.135,-0.047 0.276,-0.088 0.409,-0.145 1.138,-0.473 2.086,-1.312 2.7,-2.375 0.957,1.662 2.734,2.797 4.794,2.797 2.061,0 3.841,-1.135 4.798,-2.797 0.961,1.662 2.737,2.797 4.798,2.797 2.06,0 3.837,-1.135 4.797,-2.797 0.961,1.662 2.738,2.797 4.799,2.797 2.06,0 3.837,-1.135 4.798,-2.797 0.96,1.662 2.737,2.797 4.797,2.797 2.06,0 3.84,-1.135 4.797,-2.797 0.961,1.662 2.738,2.797 4.798,2.797 2.032,0 3.79,-1.1 4.757,-2.729 0.964,1.66 2.737,2.785 4.792,2.785 3.067,0 5.557,-2.488 5.557,-5.557 0,-0.025 -0.01,-0.051 -0.01,-0.076 0,-0.025 0.01,-0.051 0.01,-0.078 0,-2.061 -1.134,-3.836 -2.801,-4.795 1.667,-0.961 2.801,-2.74 2.801,-4.797 0,-2.061 -1.134,-3.838 -2.801,-4.799 1.667,-0.961 2.801,-2.736 2.801,-4.797 0,-2.061 -1.134,-3.84 -2.801,-4.797 1.667,-0.961 2.801,-2.738 2.801,-4.801 0,-2.059 -1.134,-3.834 -2.801,-4.795 1.667,-0.961 2.801,-2.738 2.801,-4.799 0,-2.059 -1.134,-3.836 -2.801,-4.797 1.667,-0.957 2.801,-2.736 2.801,-4.797 0,-2.061 -1.134,-3.838 -2.801,-4.799 1.667,-0.961 2.801,-2.736 2.801,-4.797 0,-2.061 -1.134,-3.836 -2.801,-4.797 1.667,-0.961 2.801,-2.734 2.801,-4.799 0,-2.059 -1.134,-3.836 -2.801,-4.797 1.667,-0.961 2.801,-2.736 2.801,-4.801 0,-2.055 -1.134,-3.834 -2.801,-4.795 1.667,-0.961 2.801,-2.736 2.801,-4.797 0,-2.061 -1.134,-3.836 -2.801,-4.797 1.667,-0.961 2.801,-2.734 2.801,-4.799 0,-2.061 -1.134,-3.836 -2.801,-4.797 1.667,-0.959 2.801,-2.738 2.801,-4.799 0,-2.057 -1.134,-3.836 -2.801,-4.797 1.667,-0.961 2.801,-2.734 2.801,-4.799 0,-2.057 -1.134,-3.832 -2.801,-4.793 1.667,-0.961 2.801,-2.738 2.801,-4.801 0,-2.057 -1.134,-3.838 -2.801,-4.795 1.667,-0.961 2.801,-2.74 2.801,-4.801 0,-2.061 -1.134,-3.834 -2.801,-4.795 1.667,-0.961 2.801,-2.736 2.801,-4.797 0,-2.061 -1.134,-3.836 -2.801,-4.797 1.667,-0.959 2.801,-2.74 2.801,-4.799 0,-2.061 -1.134,-3.84 -2.801,-4.795 1.667,-0.961 2.801,-2.74 2.801,-4.801 0,-2.059 -1.134,-3.836 -2.801,-4.797 1.667,-0.959 2.801,-2.736 2.801,-4.797 0,-2.061 -1.134,-3.836 -2.801,-4.797 1.667,-0.959 2.801,-2.738 2.801,-4.799 0,-2.061 -1.134,-3.838 -2.801,-4.797 1.667,-0.959 2.801,-2.738 2.801,-4.799 0,-2.057 -1.134,-3.836 -2.801,-4.797 1.667,-0.959 2.801,-2.736 2.801,-4.799 0,-2.057 -1.134,-3.836 -2.801,-4.795 1.667,-0.961 2.801,-2.738 2.801,-4.799 0,-2.059 -1.134,-3.838 -2.801,-4.797 1.667,-0.961 2.801,-2.738 2.801,-4.797 0,-2.062 -1.134,-3.838 -2.801,-4.799 1.667,-0.959 2.801,-2.734 2.801,-4.799 0,-2.061 -1.134,-3.836 -2.801,-4.795 1.667,-0.961 2.801,-2.74 2.801,-4.801 0,-2.057 -1.134,-3.832 -2.797,-4.793 1.663,-0.961 2.797,-2.74 2.797,-4.799 0,-2.062 -1.134,-3.838 -2.801,-4.799 1.667,-0.959 2.801,-2.738 2.801,-4.797 0,-2.061 -1.134,-3.838 -2.801,-4.797 1.667,-0.961 2.801,-2.736 2.801,-4.797 0,-2.061 -1.134,-3.84 -2.801,-4.799 1.667,-0.959 2.801,-2.736 2.801,-4.797 0,-2.061 -1.134,-3.836 -2.801,-4.795 1.667,-0.961 2.801,-2.74 2.801,-4.801 0,-2.061 -1.134,-3.836 -2.801,-4.797 1.667,-0.959 2.801,-2.738 2.801,-4.799 0,-2.059 -1.134,-3.838 -2.797,-4.799 1.663,-0.957 2.797,-2.734 2.797,-4.795 0,-2.059 -1.134,-3.838 -2.801,-4.795 1.667,-0.961 2.801,-2.74 2.801,-4.799 0,-2.064 -1.134,-3.838 -2.801,-4.799 1.667,-0.959 2.801,-2.734 2.801,-4.799 0,-2.059 -1.134,-3.836 -2.801,-4.797 1.667,-0.959 2.801,-2.736 2.801,-4.799 0,-2.059 -1.134,-3.836 -2.801,-4.795 1.667,-0.961 2.801,-2.74 2.801,-4.801 0,-2.057 -1.134,-3.834 -2.801,-4.795 1.667,-0.961 2.801,-2.738 2.801,-4.799 0,-2.059 -1.134,-3.836 -2.801,-4.797 1.667,-0.959 2.801,-2.738 2.801,-4.797 0,-2.061 -1.134,-3.838 -2.801,-4.797 1.667,-0.961 2.801,-2.738 2.801,-4.799 0,-2.061 -1.134,-3.838 -2.801,-4.797 1.667,-0.959 2.801,-2.738 2.801,-4.797 0,-2.061 -1.134,-3.838 -2.801,-4.797 1.667,-0.961 2.801,-2.738 2.801,-4.799 0,-2.061 -1.134,-3.838 -2.801,-4.797 1.667,-0.961 2.801,-2.738 2.801,-4.799 0,-2.059 -1.134,-3.838 -2.801,-4.797 1.667,-0.961 2.801,-2.738 2.801,-4.797 0,-2.061 -1.134,-3.84 -2.801,-4.799 1.667,-0.959 2.801,-2.738 2.801,-4.797 0,-2.059 -1.134,-3.838 -2.801,-4.799 1.667,-0.959 2.801,-2.734 2.801,-4.795 0,-2.061 -1.134,-3.838 -2.801,-4.799 1.667,-0.961 2.801,-2.736 2.801,-4.797 0,-2.061 -1.134,-3.838 -2.801,-4.799 1.667,-0.959 2.801,-2.736 2.801,-4.797 0,-2.059 -1.134,-3.836 -2.801,-4.797 1.667,-0.959 2.801,-2.738 2.801,-4.799 0,-2.059 -1.134,-3.836 -2.801,-4.795 1.667,-0.961 2.801,-2.74 2.801,-4.799 0,-2.061 -1.134,-3.838 -2.801,-4.797 1.667,-0.961 2.801,-2.738 2.801,-4.799 0,-2.061 -1.134,-3.838 -2.801,-4.799 1.667,-0.959 2.801,-2.734 2.801,-4.797 0,-2.061 -1.134,-3.836 -2.801,-4.795 1.667,-0.961 2.801,-2.74 2.801,-4.801 0,-2.059 -1.134,-3.834 -2.801,-4.793 1.667,-0.961 2.801,-2.74 2.801,-4.799 0,-2.062 -1.134,-3.838 -2.801,-4.797 1.667,-0.961 2.801,-2.74 2.801,-4.799 0,-2.061 -1.134,-3.84 -2.801,-4.799 1.667,-0.959 2.801,-2.736 2.801,-4.797 0,-2.059 -1.134,-3.84 -2.801,-4.797 1.667,-0.961 2.801,-2.736 2.801,-4.797 0,-2.061 -1.134,-3.84 -2.801,-4.799 1.667,-0.959 2.801,-2.736 2.801,-4.796 0,-2.06 -1.134,-3.838 -2.801,-4.798 1.667,-0.96 2.801,-2.737 2.801,-4.798 0,-2.06 -1.134,-3.836 -2.801,-4.797 1.667,-0.959 2.801,-2.738 2.801,-4.798 0,-2.061 -1.134,-3.838 -2.801,-4.798 1.667,-0.961 2.801,-2.737 2.801,-4.797 0,-2.061 -1.134,-3.837 -2.801,-4.798 1.667,-0.961 2.801,-2.737 2.801,-4.797 0,-2.061 -1.134,-3.837 -2.801,-4.798 1.667,-0.959 2.801,-2.737 2.801,-4.797 0,-2.061 -1.134,-3.837 -2.801,-4.798 1.667,-0.959 2.801,-2.736 2.801,-4.797 0,-2.061 -1.134,-3.837 -2.801,-4.796 1.667,-0.961 2.801,-2.739 2.801,-4.799 0,-2.059 -1.134,-3.837 -2.801,-4.794 1.667,-0.961 2.801,-2.741 2.801,-4.801 0,-2.059 -1.134,-3.837 -2.801,-4.796 1.667,-0.959 2.801,-2.737 2.801,-4.797 0,-2.061 -1.134,-3.838 -2.801,-4.797 1.667,-0.959 2.801,-2.737 2.801,-4.796 0,-2.06 -1.134,-3.84 -2.801,-4.8 1.667,-0.958 2.801,-2.736 2.801,-4.796 0,-2.059 -1.134,-3.838 -2.801,-4.799 1.667,-0.958 2.801,-2.734 2.801,-4.795 0,-2.06 -1.134,-3.838 -2.801,-4.797 1.667,-0.961 2.801,-2.737 2.801,-4.798 0,-2.06 -1.134,-3.838 -2.801,-4.799 1.667,-0.958 2.801,-2.736 2.801,-4.796 0,-2.06 -1.134,-3.838 -2.801,-4.797 1.67,-0.958 2.803,-2.734 2.803,-4.794 z"
   inkscape:connector-curvature="0" />
		</defs>
		<use
   xlink:href="#SVGID_1_"
   overflow="visible"
   id="use12"
   style="fill:#edeed9;overflow:visible"
   x="0"
   y="0"
   width="595.28003"
   height="841.89001" />
		<clipPath
   id="SVGID_2_">
			<use
   xlink:href="#SVGID_1_"
   overflow="visible"
   id="use15"
   style="overflow:visible"
   x="0"
   y="0"
   width="595.28003"
   height="841.89001" />
		</clipPath>
		<g
   clip-path="url(#SVGID_2_)"
   id="g17"
   style="opacity:0.17000002">
			<path
   d="m 43.444,158.52 c -35.612,0 -68.257,-17.929 -87.317,-47.96 C -74.417,62.458 -60.125,-1.525 -12.02,-32.067 4.575,-42.604 23.696,-48.173 43.277,-48.173 c 35.615,0 68.26,17.93 87.324,47.962 14.796,23.3 19.631,50.969 13.615,77.908 -6.018,26.939 -22.165,49.922 -45.469,64.716 C 82.149,152.95 63.025,158.52 43.444,158.52 z"
   id="path19"
   inkscape:connector-curvature="0"
   style="fill:#edeed9" />
			<polygon
   points="126.484,9.379 120.172,-0.561 799.979,-475.495 845.53,-403.743 "
   id="polygon21"
   style="fill:#edeed9" />
			<polygon
   points="89.162,138.292 99.101,131.986 574.042,811.785 502.288,857.338 "
   id="polygon23"
   style="fill:#edeed9" />
			<polygon
   points="-39.756,100.969 -33.443,110.908 -713.25,585.85 -758.805,514.098 "
   id="polygon25"
   style="fill:#edeed9" />
			<polygon
   points="134.523,81.562 137.09,70.071 953.623,214.931 935.1,297.883 "
   id="polygon27"
   style="fill:#edeed9" />
			<polygon
   points="16.974,146.33 28.463,148.896 -116.393,965.426 -199.344,946.898 "
   id="polygon29"
   style="fill:#edeed9" />
			<polygon
   points="117.771,114.082 124.49,104.416 825.574,547.359 777.047,617.135 "
   id="polygon31"
   style="fill:#edeed9" />
			<polygon
   points="-15.545,129.576 -5.881,136.295 -448.819,837.377 -518.599,788.85 "
   id="polygon33"
   style="fill:#edeed9" />
			<polygon
   points="137.633,44.213 135.557,32.626 944.492,-149.902 959.525,-66.25 "
   id="polygon35"
   style="fill:#edeed9" />
			<polygon
   points="54.321,149.435 65.91,147.355 248.44,956.295 164.786,971.328 "
   id="polygon37"
   style="fill:#edeed9" />
			<polygon
   points="104.313,127.917 112.854,119.812 709.839,695.4 648.208,753.926 "
   id="polygon39"
   style="fill:#edeed9" />
			<polygon
   points="-29.377,116.123 -21.271,124.66 -596.866,721.648 -655.39,660.016 "
   id="polygon41"
   style="fill:#edeed9" />
			<polygon
   points="137.9,63.512 138.206,51.74 967.348,36.613 965.152,121.575 "
   id="polygon43"
   style="fill:#edeed9" />
			<polygon
   points="35.027,149.708 46.793,150.014 61.926,979.152 -23.042,976.947 "
   id="polygon45"
   style="fill:#edeed9" />
			<polygon
   points="127.723,98.648 132.46,87.87 905.723,387.477 871.551,465.299 "
   id="polygon47"
   style="fill:#edeed9" />
			<polygon
   points="-0.112,139.53 10.668,144.265 -288.944,917.531 -366.758,883.352 "
   id="polygon49"
   style="fill:#edeed9" />
			<polygon
   points="133.764,26.262 129.486,15.292 888.117,-319.628 918.984,-240.438 "
   id="polygon51"
   style="fill:#edeed9" />
			<polygon
   points="72.271,145.563 83.246,141.289 418.168,899.922 338.978,930.779 "
   id="polygon53"
   style="fill:#edeed9" />
		</g>
	</g>
	<g
   id="g55">
		<defs
   id="defs57">
			<path
   id="SVGID_3_"
   d="m 542.279,108.783 c 0,-2.061 -1.134,-3.838 -2.801,-4.798 1.667,-0.96 2.801,-2.738 2.801,-4.798 0,-3.068 -2.489,-5.558 -5.557,-5.558 -2.032,0 -3.79,1.1 -4.76,2.727 -0.961,-1.656 -2.734,-2.785 -4.789,-2.785 -2.057,0 -3.837,1.135 -4.798,2.8 -0.957,-1.665 -2.737,-2.8 -4.797,-2.8 -2.057,0 -3.837,1.135 -4.797,2.8 -0.961,-1.665 -2.738,-2.8 -4.798,-2.8 -2.061,0 -3.838,1.135 -4.799,2.801 -0.96,-1.667 -2.737,-2.801 -4.797,-2.801 -2.061,0 -3.833,1.135 -4.798,2.8 -0.957,-1.665 -2.737,-2.8 -4.798,-2.8 -2.06,0 -3.837,1.135 -4.794,2.8 -0.961,-1.665 -2.741,-2.8 -4.801,-2.8 -0.788,0 -1.534,0.168 -2.208,0.466 -1.103,0.449 -2.023,1.244 -2.643,2.249 -0.975,-1.617 -2.719,-2.715 -4.744,-2.715 -0.017,0 -0.032,0.003 -0.048,0.003 -0.016,0 -0.028,-0.003 -0.044,-0.003 -2.029,0 -3.78,1.104 -4.75,2.729 -0.971,-1.625 -2.726,-2.729 -4.751,-2.729 -0.015,0 -0.031,0.003 -0.047,0.003 -0.016,0 -0.031,-0.003 -0.048,-0.003 -2.028,0 -3.78,1.104 -4.75,2.729 -0.97,-1.625 -2.725,-2.729 -4.75,-2.729 -0.017,0 -0.031,0.003 -0.048,0.003 -0.016,0 -0.031,-0.003 -0.047,-0.003 -2.031,0 -3.783,1.105 -4.754,2.731 -0.967,-1.625 -2.719,-2.731 -4.75,-2.731 -0.016,0 -0.032,0.003 -0.047,0.003 -0.017,0 -0.028,-0.003 -0.045,-0.003 -2.031,0 -3.776,1.104 -4.751,2.729 -0.969,-1.625 -2.721,-2.729 -4.752,-2.729 -0.017,0 -0.032,0.003 -0.048,0.003 -0.016,0 -0.028,-0.003 -0.044,-0.003 -2.031,0 -3.783,1.105 -4.75,2.731 -0.968,-1.626 -2.723,-2.731 -4.754,-2.731 -0.016,0 -0.032,0.003 -0.047,0.003 -0.017,0 -0.028,-0.003 -0.045,-0.003 -2.031,0 -3.783,1.105 -4.75,2.731 -0.967,-1.626 -2.722,-2.731 -4.747,-2.731 -0.02,0 -0.034,0.003 -0.051,0.003 -0.016,0 -0.031,-0.003 -0.047,-0.003 -2.028,0 -3.783,1.105 -4.754,2.73 -0.967,-1.626 -2.718,-2.73 -4.754,-2.73 -0.015,0 -0.028,0.003 -0.043,0.003 -0.017,0 -0.032,-0.003 -0.048,-0.003 -2.032,0 -3.786,1.105 -4.75,2.732 -0.971,-1.626 -2.722,-2.732 -4.75,-2.732 -0.017,0 -0.032,0.003 -0.048,0.003 -0.016,0 -0.032,-0.003 -0.047,-0.003 -2.029,0 -3.78,1.104 -4.751,2.729 -0.97,-1.625 -2.721,-2.729 -4.754,-2.729 -0.016,0 -0.03,0.003 -0.047,0.003 -0.016,0 -0.028,-0.003 -0.044,-0.003 -2.028,0 -3.783,1.105 -4.75,2.73 -0.971,-1.626 -2.723,-2.73 -4.754,-2.73 -0.015,0 -0.031,0.003 -0.047,0.003 -0.016,0 -0.028,-0.003 -0.044,-0.003 -2.029,0 -3.78,1.104 -4.751,2.729 -0.97,-1.625 -2.721,-2.729 -4.751,-2.729 -0.015,0 -0.031,0.003 -0.047,0.003 -0.015,0 -0.031,-0.003 -0.047,-0.003 -2.025,0 -3.78,1.104 -4.75,2.73 -0.971,-1.626 -2.723,-2.73 -4.75,-2.73 -0.017,0 -0.032,0.003 -0.048,0.003 -0.013,0 -0.028,-0.003 -0.044,-0.003 -2.032,0 -3.783,1.104 -4.754,2.73 -0.97,-1.626 -2.718,-2.73 -4.751,-2.73 -0.015,0 -0.03,0.003 -0.047,0.003 -0.015,0 -0.031,-0.003 -0.047,-0.003 -2.029,0 -3.779,1.105 -4.75,2.73 -0.971,-1.626 -2.719,-2.73 -4.751,-2.73 -0.015,0 -0.031,0.003 -0.047,0.003 -0.016,0 -0.028,-0.003 -0.044,-0.003 -2.032,0 -3.783,1.105 -4.754,2.73 -0.97,-1.625 -2.718,-2.73 -4.75,-2.73 -0.016,0 -0.031,0.003 -0.048,0.003 -0.015,0 -0.031,-0.003 -0.047,-0.003 -2.029,0 -3.779,1.104 -4.747,2.731 -0.971,-1.627 -2.722,-2.731 -4.754,-2.731 -0.015,0 -0.031,0.003 -0.047,0.003 -0.016,0 -0.031,-0.003 -0.048,-0.003 -2.028,0 -3.779,1.105 -4.747,2.73 -0.97,-1.626 -2.721,-2.73 -4.75,-2.73 -0.016,0 -0.031,0.003 -0.047,0.003 -0.016,0 -0.032,-0.003 -0.047,-0.003 -2.032,0 -3.783,1.105 -4.754,2.73 -0.97,-1.625 -2.722,-2.73 -4.751,-2.73 -0.016,0 -0.031,0.003 -0.047,0.003 -0.016,0 -0.029,-0.003 -0.044,-0.003 -2.032,0 -3.783,1.105 -4.751,2.732 -0.971,-1.627 -2.721,-2.732 -4.75,-2.732 -0.016,0 -0.031,0.003 -0.047,0.003 -0.016,0 -0.032,-0.003 -0.047,-0.003 -2.029,0 -3.781,1.104 -4.751,2.73 -0.971,-1.626 -2.722,-2.73 -4.751,-2.73 -0.016,0 -0.031,0.003 -0.047,0.003 -0.016,0 -0.031,-0.003 -0.047,-0.003 -2.028,0 -3.784,1.105 -4.75,2.73 -0.971,-1.626 -2.723,-2.73 -4.754,-2.73 -0.016,0 -0.029,0.003 -0.044,0.003 -0.016,0 -0.032,-0.003 -0.047,-0.003 -2.03,0 -3.783,1.105 -4.751,2.731 -0.968,-1.625 -2.721,-2.731 -4.751,-2.731 -0.015,0 -0.031,0.003 -0.047,0.003 -0.015,0 -0.031,-0.003 -0.048,-0.003 -2.028,0 -3.783,1.105 -4.75,2.731 -0.967,-1.626 -2.718,-2.731 -4.75,-2.731 -0.016,0 -0.031,0.003 -0.047,0.003 -0.016,0 -0.029,-0.003 -0.044,-0.003 -2.032,0 -3.787,1.104 -4.754,2.73 -0.97,-1.626 -2.722,-2.73 -4.751,-2.73 -0.016,0 -0.031,0.003 -0.047,0.003 -0.016,0 -0.031,-0.003 -0.047,-0.003 -2.029,0 -3.78,1.104 -4.75,2.731 -0.971,-1.625 -2.719,-2.731 -4.752,-2.731 -0.015,0 -0.03,0.003 -0.047,0.003 -0.015,0 -0.027,-0.003 -0.043,-0.003 -2.033,0 -3.783,1.104 -4.751,2.73 -0.97,-1.626 -2.726,-2.73 -4.754,-2.73 -0.015,0 -0.03,0.003 -0.047,0.003 -0.015,0 -0.028,-0.003 -0.044,-0.003 -2.032,0 -3.783,1.104 -4.75,2.73 -0.971,-1.626 -2.722,-2.73 -4.75,-2.73 -0.02,0 -0.032,0.003 -0.051,0.003 -0.016,0 -0.031,-0.003 -0.048,-0.003 -2.024,0 -3.779,1.105 -4.75,2.73 -0.968,-1.626 -2.718,-2.73 -4.751,-2.73 -0.015,0 -0.028,0.003 -0.043,0.003 -0.016,0 -0.032,-0.003 -0.047,-0.003 -2.033,0 -3.781,1.104 -4.752,2.73 -0.97,-1.626 -2.725,-2.73 -4.753,-2.73 -0.015,0 -0.031,0.003 -0.048,0.003 -0.015,0 -0.027,-0.003 -0.043,-0.003 -2.029,0 -3.783,1.104 -4.751,2.729 -0.974,-1.625 -2.722,-2.729 -4.75,-2.729 -0.016,0 -0.032,0.003 -0.047,0.003 -0.017,0 -0.032,-0.003 -0.048,-0.003 -2.032,0 -3.779,1.105 -4.75,2.73 -0.971,-1.626 -2.722,-2.73 -4.751,-2.73 -0.015,0 -0.031,0.003 -0.048,0.003 -0.015,0 -0.031,-0.003 -0.047,-0.003 -2.031,0 -3.783,1.105 -4.75,2.731 -0.971,-1.626 -2.723,-2.731 -4.754,-2.731 -0.015,0 -0.031,0.003 -0.047,0.003 -0.016,0 -0.028,-0.003 -0.045,-0.003 -2.031,0 -3.782,1.105 -4.75,2.732 -0.97,-1.626 -2.721,-2.732 -4.75,-2.732 -0.016,0 -0.031,0.003 -0.047,0.003 -0.016,0 -0.028,-0.003 -0.044,-0.003 -2.032,0 -3.783,1.105 -4.754,2.731 -0.967,-1.626 -2.722,-2.731 -4.75,-2.731 -0.016,0 -0.032,0.003 -0.048,0.003 -0.016,0 -0.031,-0.003 -0.047,-0.003 -2.028,0 -3.783,1.105 -4.75,2.731 -0.971,-1.626 -2.723,-2.731 -4.75,-2.731 -0.017,0 -0.032,0.003 -0.048,0.003 -0.017,0 -0.032,-0.003 -0.048,-0.003 -2.06,0 -3.833,1.135 -4.794,2.8 -0.964,-1.665 -2.737,-2.8 -4.798,-2.8 -1.906,0 -3.559,0.976 -4.559,2.438 -0.037,0.054 -0.075,0.11 -0.109,0.166 -0.041,0.066 -0.092,0.127 -0.129,0.196 -0.961,-1.666 -2.738,-2.801 -4.799,-2.801 -2.062,0 -3.84,1.135 -4.797,2.801 -0.961,-1.666 -2.737,-2.801 -4.801,-2.801 -2.057,0 -3.837,1.135 -4.797,2.8 -0.959,-1.665 -2.734,-2.8 -4.795,-2.8 -2.063,0 -3.84,1.135 -4.801,2.801 -0.955,-1.666 -2.734,-2.801 -4.795,-2.801 -2.062,0 -3.836,1.135 -4.797,2.801 -0.961,-1.666 -2.738,-2.801 -4.799,-2.801 -2.107,0 -3.918,1.189 -4.863,2.919 -0.951,-1.698 -2.746,-2.861 -4.829,-2.861 -3.071,0 -5.56,2.49 -5.56,5.558 0,2.06 1.134,3.838 2.801,4.798 -1.667,0.96 -2.801,2.737 -2.801,4.798 0,2.06 1.134,3.836 2.801,4.797 -1.667,0.959 -2.801,2.737 -2.801,4.797 0,2.06 1.134,3.838 2.801,4.796 -1.667,0.96 -2.801,2.739 -2.801,4.799 0,2.061 1.134,3.837 2.801,4.798 -1.667,0.959 -2.801,2.737 -2.801,4.797 0,2.061 1.134,3.837 2.801,4.795 -1.667,0.96 -2.801,2.74 -2.801,4.799 0,2.061 1.134,3.838 2.801,4.796 -1.667,0.96 -2.801,2.74 -2.801,4.8 0,2.059 1.134,3.837 2.801,4.796 -1.667,0.959 -2.801,2.737 -2.801,4.797 0,2.06 1.134,3.838 2.801,4.797 -1.667,0.959 -2.801,2.737 -2.801,4.796 0,2.06 1.134,3.84 2.801,4.801 -1.667,0.958 -2.801,2.735 -2.801,4.794 0,2.06 1.134,3.838 2.801,4.799 -1.667,0.959 -2.801,2.736 -2.801,4.796 0,2.062 1.134,3.838 2.801,4.797 -1.667,0.961 -2.801,2.737 -2.801,4.798 0,2.06 1.134,3.838 2.801,4.797 -1.667,0.961 -2.801,2.737 -2.801,4.798 0,2.06 1.134,3.836 2.801,4.797 -1.667,0.961 -2.801,2.737 -2.801,4.798 0,2.06 1.134,3.836 2.801,4.797 -1.667,0.959 -2.801,2.737 -2.801,4.798 0,2.06 1.134,3.839 2.801,4.798 -1.667,0.961 -2.801,2.737 -2.801,4.797 0,2.061 1.134,3.838 2.801,4.798 -1.667,0.96 -2.801,2.737 -2.801,4.798 0,2.061 1.134,3.837 2.801,4.796 -1.667,0.959 -2.801,2.738 -2.801,4.799 0,2.061 1.134,3.836 2.801,4.797 -1.667,0.957 -2.801,2.738 -2.801,4.797 0,2.061 1.134,3.838 2.801,4.797 -1.667,0.959 -2.801,2.738 -2.801,4.799 0,2.059 1.134,3.838 2.801,4.799 -1.667,0.959 -2.801,2.734 -2.801,4.797 0,2.059 1.134,3.838 2.801,4.799 -1.667,0.959 -2.801,2.734 -2.801,4.793 0,2.061 1.134,3.84 2.801,4.801 -1.667,0.959 -2.801,2.734 -2.801,4.795 0,2.062 1.134,3.838 2.801,4.797 -1.667,0.961 -2.801,2.738 -2.801,4.799 0,2.061 1.134,3.838 2.801,4.799 -1.667,0.959 -2.801,2.736 -2.801,4.797 0,2.059 1.134,3.838 2.801,4.799 -1.667,0.959 -2.801,2.736 -2.801,4.795 0,2.061 1.134,3.84 2.801,4.799 -1.667,0.961 -2.801,2.738 -2.801,4.797 0,2.061 1.134,3.838 2.801,4.797 -1.667,0.961 -2.801,2.738 -2.801,4.799 0,2.061 1.134,3.836 2.801,4.797 -1.667,0.961 -2.801,2.738 -2.801,4.799 0,2.061 1.134,3.836 2.801,4.795 -1.667,0.961 -2.801,2.74 -2.801,4.799 0,2.059 1.134,3.838 2.801,4.797 -1.667,0.959 -2.801,2.738 -2.801,4.799 0,2.059 1.134,3.836 2.801,4.797 -1.667,0.959 -2.801,2.738 -2.801,4.797 0,2.061 1.134,3.838 2.801,4.799 -1.667,0.959 -2.801,2.736 -2.801,4.797 0,2.061 1.134,3.838 2.801,4.799 -1.667,0.959 -2.801,2.736 -2.801,4.797 0,2.059 1.134,3.838 2.801,4.797 -1.667,0.959 -2.801,2.736 -2.801,4.797 0,2.061 1.134,3.838 2.801,4.799 -1.667,0.959 -2.801,2.736 -2.801,4.797 0,2.059 1.134,3.838 2.801,4.797 -1.667,0.961 -2.801,2.738 -2.801,4.797 0,2.061 1.134,3.838 2.801,4.799 -1.667,0.961 -2.801,2.738 -2.801,4.795 0,2.061 1.134,3.84 2.801,4.801 -1.667,0.959 -2.801,2.736 -2.801,4.795 0,2.062 1.134,3.84 2.801,4.799 -1.667,0.961 -2.801,2.738 -2.801,4.797 0,2.064 1.134,3.84 2.801,4.799 -1.667,0.961 -2.801,2.734 -2.801,4.799 0,2.059 1.134,3.838 2.801,4.799 -1.667,0.957 -2.801,2.736 -2.801,4.795 0,2.061 1.134,3.838 2.801,4.795 -1.667,0.961 -2.801,2.74 -2.801,4.799 0,2.061 1.134,3.84 2.801,4.799 -1.667,0.961 -2.801,2.736 -2.801,4.797 0,2.061 1.134,3.84 2.801,4.801 -1.667,0.959 -2.801,2.734 -2.801,4.795 0,2.061 1.134,3.838 2.801,4.797 -1.667,0.959 -2.801,2.738 -2.801,4.799 0,2.061 1.134,3.836 2.801,4.797 -1.667,0.959 -2.801,2.736 -2.801,4.797 0,2.059 1.134,3.838 2.801,4.797 -1.667,0.961 -2.801,2.736 -2.801,4.799 0,2.059 1.134,3.838 2.801,4.799 -1.667,0.961 -2.801,2.736 -2.801,4.793 0,2.061 1.134,3.84 2.801,4.801 -1.667,0.959 -2.801,2.734 -2.801,4.795 0,2.064 1.134,3.84 2.801,4.799 -1.667,0.961 -2.801,2.736 -2.801,4.799 0,2.059 1.134,3.836 2.801,4.797 -1.667,0.959 -2.801,2.738 -2.801,4.797 0,2.061 1.134,3.838 2.801,4.799 -1.667,0.959 -2.801,2.738 -2.801,4.795 0,2.062 1.134,3.84 2.801,4.799 -1.667,0.961 -2.801,2.74 -2.801,4.797 0,2.061 1.134,3.84 2.801,4.799 -1.667,0.959 -2.801,2.736 -2.801,4.797 0,2.061 1.134,3.84 2.801,4.799 -1.667,0.961 -2.801,2.736 -2.801,4.797 0,2.061 1.134,3.838 2.801,4.797 -1.667,0.961 -2.801,2.738 -2.801,4.797 0,2.061 1.134,3.84 2.801,4.801 -1.667,0.955 -2.801,2.734 -2.801,4.795 0,2.059 1.134,3.84 2.801,4.799 -1.667,0.961 -2.801,2.736 -2.801,4.797 0,2.061 1.134,3.836 2.801,4.797 -1.667,0.961 -2.801,2.734 -2.801,4.795 0,2.061 1.134,3.84 2.801,4.801 -1.667,0.957 -2.801,2.738 -2.801,4.795 0,2.062 1.134,3.84 2.801,4.801 -1.667,0.961 -2.801,2.736 -2.801,4.793 0,2.064 1.134,3.838 2.801,4.799 -1.667,0.961 -2.801,2.74 -2.801,4.797 0,2.061 1.134,3.84 2.801,4.799 -1.667,0.961 -2.801,2.736 -2.801,4.797 0,2.064 1.134,3.838 2.801,4.799 -1.667,0.961 -2.801,2.736 -2.801,4.797 0,2.061 1.134,3.836 2.801,4.797 -1.667,0.961 -2.801,2.74 -2.801,4.795 0,2.064 1.134,3.84 2.801,4.801 -1.667,0.961 -2.801,2.738 -2.801,4.797 0,2.064 1.134,3.838 2.801,4.799 -1.667,0.961 -2.801,2.736 -2.801,4.797 0,2.061 1.134,3.836 2.801,4.797 -1.667,0.961 -2.801,2.738 -2.801,4.799 0,2.061 1.134,3.84 2.801,4.797 -1.667,0.961 -2.801,2.738 -2.801,4.797 0,2.061 1.134,3.838 2.801,4.799 -1.667,0.961 -2.801,2.736 -2.801,4.795 0,2.062 1.134,3.84 2.801,4.801 -1.667,0.957 -2.801,2.736 -2.801,4.797 0,2.061 1.134,3.836 2.801,4.797 -1.667,0.961 -2.801,2.738 -2.801,4.799 0,2.057 1.134,3.836 2.801,4.797 -1.667,0.959 -2.801,2.734 -2.801,4.795 0,0.027 0.01,0.053 0.01,0.078 0,0.025 -0.01,0.051 -0.01,0.076 0,3.068 2.488,5.557 5.56,5.557 2.107,0 3.919,-1.188 4.86,-2.92 0.951,1.701 2.748,2.863 4.832,2.863 2.061,0 3.838,-1.135 4.795,-2.797 0.961,1.662 2.738,2.797 4.801,2.797 2.061,0 3.837,-1.135 4.795,-2.797 0.961,1.662 2.737,2.797 4.801,2.797 2.057,0 3.836,-1.135 4.795,-2.797 0.96,1.662 2.74,2.797 4.797,2.797 2.061,0 3.84,-1.135 4.798,-2.797 0.96,1.662 2.737,2.797 4.798,2.797 2.047,0 3.814,-1.121 4.778,-2.766 0.958,1.678 2.741,2.822 4.813,2.822 2.072,0 3.858,-1.152 4.811,-2.842 0.963,1.658 2.733,2.785 4.787,2.785 0.016,0 0.031,-0.004 0.048,-0.004 0.016,0 0.031,0.004 0.048,0.004 2.027,0 3.779,-1.105 4.75,-2.729 0.967,1.623 2.719,2.729 4.75,2.729 0.016,0 0.031,-0.004 0.047,-0.004 0.016,0 0.032,0.004 0.048,0.004 2.028,0 3.78,-1.102 4.747,-2.729 0.971,1.627 2.725,2.729 4.754,2.729 0.016,0 0.031,-0.004 0.047,-0.004 0.016,0 0.031,0.004 0.047,0.004 2.029,0 3.78,-1.105 4.75,-2.729 0.971,1.623 2.723,2.729 4.748,2.729 0.016,0 0.031,-0.004 0.047,-0.004 0.016,0 0.032,0.004 0.047,0.004 2.031,0 3.783,-1.105 4.754,-2.729 0.967,1.623 2.719,2.729 4.75,2.729 0.016,0 0.028,-0.004 0.045,-0.004 0.016,0 0.031,0.004 0.047,0.004 2.032,0 3.783,-1.102 4.754,-2.729 0.971,1.627 2.721,2.729 4.75,2.729 0.016,0 0.031,-0.004 0.048,-0.004 0.015,0 0.031,0.004 0.047,0.004 2.028,0 3.776,-1.105 4.747,-2.729 0.971,1.623 2.721,2.729 4.754,2.729 0.016,0 0.028,-0.004 0.043,-0.004 0.017,0 0.033,0.004 0.048,0.004 2.028,0 3.78,-1.105 4.751,-2.729 0.971,1.623 2.721,2.729 4.754,2.729 0.015,0 0.027,-0.004 0.043,-0.004 0.016,0 0.032,0.004 0.047,0.004 2.033,0 3.783,-1.105 4.751,-2.729 0.971,1.623 2.726,2.729 4.75,2.729 0.017,0 0.032,-0.004 0.048,-0.004 0.016,0 0.031,0.004 0.047,0.004 2.032,0 3.78,-1.102 4.75,-2.729 0.967,1.627 2.722,2.729 4.75,2.729 0.017,0 0.033,-0.004 0.048,-0.004 0.017,0 0.028,0.004 0.044,0.004 2.031,0 3.783,-1.105 4.754,-2.729 0.971,1.623 2.721,2.729 4.754,2.729 0.016,0 0.028,-0.004 0.043,-0.004 0.017,0 0.032,0.004 0.047,0.004 2.033,0 3.781,-1.102 4.748,-2.73 0.971,1.625 2.722,2.73 4.754,2.73 0.016,0 0.031,-0.004 0.047,-0.004 0.016,0 0.031,0.004 0.047,0.004 2.029,0 3.781,-1.105 4.751,-2.729 0.967,1.623 2.722,2.729 4.75,2.729 0.017,0 0.032,-0.004 0.048,-0.004 0.016,0 0.031,0.004 0.047,0.004 2.028,0 3.78,-1.102 4.75,-2.729 0.967,1.627 2.722,2.729 4.75,2.729 0.017,0 0.033,-0.004 0.048,-0.004 0.016,0 0.032,0.004 0.047,0.004 2.03,0 3.783,-1.105 4.751,-2.73 0.968,1.629 2.719,2.73 4.751,2.73 0.015,0 0.028,-0.004 0.044,-0.004 0.016,0 0.031,0.004 0.047,0.004 2.031,0 3.783,-1.105 4.754,-2.729 0.966,1.623 2.718,2.729 4.75,2.729 0.016,0 0.031,-0.004 0.047,-0.004 0.016,0 0.027,0.004 0.044,0.004 2.032,0 3.783,-1.102 4.754,-2.729 0.97,1.627 2.718,2.729 4.751,2.729 0.015,0 0.031,-0.004 0.047,-0.004 0.016,0 0.031,0.004 0.047,0.004 2.029,0 3.779,-1.105 4.75,-2.729 0.968,1.623 2.719,2.729 4.751,2.729 0.015,0 0.028,-0.004 0.044,-0.004 0.016,0 0.031,0.004 0.047,0.004 2.029,0 3.781,-1.105 4.751,-2.729 0.971,1.623 2.722,2.729 4.754,2.729 0.015,0 0.028,-0.004 0.043,-0.004 0.017,0 0.032,0.004 0.048,0.004 2.032,0 3.783,-1.105 4.753,-2.729 0.968,1.623 2.719,2.729 4.747,2.729 0.017,0 0.032,-0.004 0.048,-0.004 0.016,0 0.032,0.004 0.047,0.004 2.032,0 3.783,-1.102 4.751,-2.73 0.967,1.625 2.721,2.73 4.75,2.73 0.016,0 0.032,-0.004 0.047,-0.004 0.017,0 0.032,0.004 0.048,0.004 2.028,0 3.78,-1.105 4.75,-2.729 0.971,1.623 2.722,2.729 4.754,2.729 0.016,0 0.028,-0.004 0.044,-0.004 0.016,0 0.032,0.004 0.047,0.004 2.028,0 3.78,-1.105 4.751,-2.729 0.971,1.623 2.721,2.729 4.75,2.729 0.016,0 0.032,-0.004 0.047,-0.004 0.017,0 0.032,0.004 0.047,0.004 2.029,0 3.781,-1.105 4.751,-2.729 0.971,1.623 2.722,2.729 4.754,2.729 0.016,0 0.028,-0.004 0.044,-0.004 0.016,0 0.031,0.004 0.048,0.004 2.027,0 3.779,-1.105 4.75,-2.729 0.97,1.623 2.725,2.729 4.75,2.729 0.016,0 0.032,-0.004 0.047,-0.004 0.016,0 0.032,0.004 0.047,0.004 2.03,0 3.781,-1.102 4.751,-2.729 0.971,1.627 2.722,2.729 4.751,2.729 0.016,0 0.028,-0.004 0.044,-0.004 0.016,0 0.032,0.004 0.047,0.004 2.031,0 3.783,-1.102 4.754,-2.729 0.967,1.627 2.718,2.729 4.75,2.729 0.016,0 0.028,-0.004 0.044,-0.004 0.017,0 0.031,0.004 0.047,0.004 2.033,0 3.784,-1.102 4.754,-2.729 0.971,1.627 2.722,2.729 4.751,2.729 0.015,0 0.031,-0.004 0.047,-0.004 0.016,0 0.031,0.004 0.048,0.004 2.028,0 3.779,-1.105 4.75,-2.729 0.967,1.623 2.722,2.729 4.75,2.729 0.016,0 0.031,-0.004 0.048,-0.004 0.015,0 0.028,0.004 0.043,0.004 2.036,0 3.787,-1.102 4.754,-2.729 0.971,1.627 2.726,2.729 4.754,2.729 0.016,0 0.031,-0.004 0.047,-0.004 0.017,0 0.031,0.004 0.048,0.004 2.028,0 3.78,-1.105 4.75,-2.729 0.967,1.623 2.719,2.729 4.75,2.729 0.017,0 0.028,-0.004 0.045,-0.004 0.015,0 0.031,0.004 0.047,0.004 2.031,0 3.783,-1.105 4.754,-2.729 0.967,1.623 2.719,2.729 4.75,2.729 0.016,0 0.028,-0.004 0.044,-0.004 0.016,0 0.031,0.004 0.048,0.004 2.031,0 3.783,-1.102 4.752,-2.729 0.971,1.627 2.72,2.729 4.751,2.729 0.017,0 0.028,-0.004 0.045,-0.004 0.015,0 0.031,0.004 0.047,0.004 2.031,0 3.783,-1.105 4.75,-2.729 0.971,1.623 2.723,2.729 4.754,2.729 0.016,0 0.028,-0.004 0.044,-0.004 0.016,0 0.031,0.004 0.048,0.004 2.028,0 3.783,-1.102 4.753,-2.729 0.97,1.627 2.719,2.729 4.75,2.729 0.017,0 0.028,-0.004 0.045,-0.004 0.016,0 0.031,0.004 0.047,0.004 2.028,0 3.783,-1.105 4.75,-2.729 0.971,1.623 2.723,2.729 4.754,2.729 0.016,0 0.028,-0.004 0.044,-0.004 0.016,0 0.031,0.004 0.048,0.004 2.003,0 3.729,-1.074 4.709,-2.662 0.973,1.623 2.721,2.719 4.747,2.719 0.535,0 1.043,-0.1 1.534,-0.242 0.101,-0.025 0.198,-0.061 0.296,-0.092 0.135,-0.047 0.276,-0.088 0.409,-0.145 1.138,-0.473 2.086,-1.312 2.7,-2.375 0.957,1.662 2.734,2.797 4.794,2.797 2.061,0 3.841,-1.135 4.798,-2.797 0.961,1.662 2.737,2.797 4.798,2.797 2.06,0 3.837,-1.135 4.797,-2.797 0.961,1.662 2.738,2.797 4.799,2.797 2.06,0 3.837,-1.135 4.798,-2.797 0.96,1.662 2.737,2.797 4.797,2.797 2.06,0 3.84,-1.135 4.797,-2.797 0.961,1.662 2.738,2.797 4.798,2.797 2.032,0 3.79,-1.1 4.757,-2.729 0.964,1.66 2.737,2.785 4.792,2.785 3.067,0 5.557,-2.488 5.557,-5.557 0,-0.025 -0.01,-0.051 -0.01,-0.076 0,-0.025 0.01,-0.051 0.01,-0.078 0,-2.061 -1.134,-3.836 -2.801,-4.795 1.667,-0.961 2.801,-2.74 2.801,-4.797 0,-2.061 -1.134,-3.838 -2.801,-4.799 1.667,-0.961 2.801,-2.736 2.801,-4.797 0,-2.061 -1.134,-3.84 -2.801,-4.797 1.667,-0.961 2.801,-2.738 2.801,-4.801 0,-2.059 -1.134,-3.834 -2.801,-4.795 1.667,-0.961 2.801,-2.738 2.801,-4.799 0,-2.059 -1.134,-3.836 -2.801,-4.797 1.667,-0.957 2.801,-2.736 2.801,-4.797 0,-2.061 -1.134,-3.838 -2.801,-4.799 1.667,-0.961 2.801,-2.736 2.801,-4.797 0,-2.061 -1.134,-3.836 -2.801,-4.797 1.667,-0.961 2.801,-2.734 2.801,-4.799 0,-2.059 -1.134,-3.836 -2.801,-4.797 1.667,-0.961 2.801,-2.736 2.801,-4.801 0,-2.055 -1.134,-3.834 -2.801,-4.795 1.667,-0.961 2.801,-2.736 2.801,-4.797 0,-2.061 -1.134,-3.836 -2.801,-4.797 1.667,-0.961 2.801,-2.734 2.801,-4.799 0,-2.061 -1.134,-3.836 -2.801,-4.797 1.667,-0.959 2.801,-2.738 2.801,-4.799 0,-2.057 -1.134,-3.836 -2.801,-4.797 1.667,-0.961 2.801,-2.734 2.801,-4.799 0,-2.057 -1.134,-3.832 -2.801,-4.793 1.667,-0.961 2.801,-2.738 2.801,-4.801 0,-2.057 -1.134,-3.838 -2.801,-4.795 1.667,-0.961 2.801,-2.74 2.801,-4.801 0,-2.061 -1.134,-3.834 -2.801,-4.795 1.667,-0.961 2.801,-2.736 2.801,-4.797 0,-2.061 -1.134,-3.836 -2.801,-4.797 1.667,-0.959 2.801,-2.74 2.801,-4.799 0,-2.061 -1.134,-3.84 -2.801,-4.795 1.667,-0.961 2.801,-2.74 2.801,-4.801 0,-2.059 -1.134,-3.836 -2.801,-4.797 1.667,-0.959 2.801,-2.736 2.801,-4.797 0,-2.061 -1.134,-3.836 -2.801,-4.797 1.667,-0.959 2.801,-2.738 2.801,-4.799 0,-2.061 -1.134,-3.838 -2.801,-4.797 1.667,-0.959 2.801,-2.738 2.801,-4.799 0,-2.057 -1.134,-3.836 -2.801,-4.797 1.667,-0.959 2.801,-2.736 2.801,-4.799 0,-2.057 -1.134,-3.836 -2.801,-4.795 1.667,-0.961 2.801,-2.738 2.801,-4.799 0,-2.059 -1.134,-3.838 -2.801,-4.797 1.667,-0.961 2.801,-2.738 2.801,-4.797 0,-2.062 -1.134,-3.838 -2.801,-4.799 1.667,-0.959 2.801,-2.734 2.801,-4.799 0,-2.061 -1.134,-3.836 -2.801,-4.795 1.667,-0.961 2.801,-2.74 2.801,-4.801 0,-2.057 -1.134,-3.832 -2.797,-4.793 1.663,-0.961 2.797,-2.74 2.797,-4.799 0,-2.062 -1.134,-3.838 -2.801,-4.799 1.667,-0.959 2.801,-2.738 2.801,-4.797 0,-2.061 -1.134,-3.838 -2.801,-4.797 1.667,-0.961 2.801,-2.736 2.801,-4.797 0,-2.061 -1.134,-3.84 -2.801,-4.799 1.667,-0.959 2.801,-2.736 2.801,-4.797 0,-2.061 -1.134,-3.836 -2.801,-4.795 1.667,-0.961 2.801,-2.74 2.801,-4.801 0,-2.061 -1.134,-3.836 -2.801,-4.797 1.667,-0.959 2.801,-2.738 2.801,-4.799 0,-2.059 -1.134,-3.838 -2.797,-4.799 1.663,-0.957 2.797,-2.734 2.797,-4.795 0,-2.059 -1.134,-3.838 -2.801,-4.795 1.667,-0.961 2.801,-2.74 2.801,-4.799 0,-2.064 -1.134,-3.838 -2.801,-4.799 1.667,-0.959 2.801,-2.734 2.801,-4.799 0,-2.059 -1.134,-3.836 -2.801,-4.797 1.667,-0.959 2.801,-2.736 2.801,-4.799 0,-2.059 -1.134,-3.836 -2.801,-4.795 1.667,-0.961 2.801,-2.74 2.801,-4.801 0,-2.057 -1.134,-3.834 -2.801,-4.795 1.667,-0.961 2.801,-2.738 2.801,-4.799 0,-2.059 -1.134,-3.836 -2.801,-4.797 1.667,-0.959 2.801,-2.738 2.801,-4.797 0,-2.061 -1.134,-3.838 -2.801,-4.797 1.667,-0.961 2.801,-2.738 2.801,-4.799 0,-2.061 -1.134,-3.838 -2.801,-4.797 1.667,-0.959 2.801,-2.738 2.801,-4.797 0,-2.061 -1.134,-3.838 -2.801,-4.797 1.667,-0.961 2.801,-2.738 2.801,-4.799 0,-2.061 -1.134,-3.838 -2.801,-4.797 1.667,-0.961 2.801,-2.738 2.801,-4.799 0,-2.059 -1.134,-3.838 -2.801,-4.797 1.667,-0.961 2.801,-2.738 2.801,-4.797 0,-2.061 -1.134,-3.84 -2.801,-4.799 1.667,-0.959 2.801,-2.738 2.801,-4.797 0,-2.059 -1.134,-3.838 -2.801,-4.799 1.667,-0.959 2.801,-2.734 2.801,-4.795 0,-2.061 -1.134,-3.838 -2.801,-4.799 1.667,-0.961 2.801,-2.736 2.801,-4.797 0,-2.061 -1.134,-3.838 -2.801,-4.799 1.667,-0.959 2.801,-2.736 2.801,-4.797 0,-2.059 -1.134,-3.836 -2.801,-4.797 1.667,-0.959 2.801,-2.738 2.801,-4.799 0,-2.059 -1.134,-3.836 -2.801,-4.795 1.667,-0.961 2.801,-2.74 2.801,-4.799 0,-2.061 -1.134,-3.838 -2.801,-4.797 1.667,-0.961 2.801,-2.738 2.801,-4.799 0,-2.061 -1.134,-3.838 -2.801,-4.799 1.667,-0.959 2.801,-2.734 2.801,-4.797 0,-2.061 -1.134,-3.836 -2.801,-4.795 1.667,-0.961 2.801,-2.74 2.801,-4.801 0,-2.059 -1.134,-3.834 -2.801,-4.793 1.667,-0.961 2.801,-2.74 2.801,-4.799 0,-2.062 -1.134,-3.838 -2.801,-4.797 1.667,-0.961 2.801,-2.74 2.801,-4.799 0,-2.061 -1.134,-3.84 -2.801,-4.799 1.667,-0.959 2.801,-2.736 2.801,-4.797 0,-2.059 -1.134,-3.84 -2.801,-4.797 1.667,-0.961 2.801,-2.736 2.801,-4.797 0,-2.061 -1.134,-3.84 -2.801,-4.799 1.667,-0.959 2.801,-2.736 2.801,-4.796 0,-2.06 -1.134,-3.838 -2.801,-4.798 1.667,-0.96 2.801,-2.737 2.801,-4.798 0,-2.06 -1.134,-3.836 -2.801,-4.797 1.667,-0.959 2.801,-2.738 2.801,-4.798 0,-2.061 -1.134,-3.838 -2.801,-4.798 1.667,-0.961 2.801,-2.737 2.801,-4.797 0,-2.061 -1.134,-3.837 -2.801,-4.798 1.667,-0.961 2.801,-2.737 2.801,-4.797 0,-2.061 -1.134,-3.837 -2.801,-4.798 1.667,-0.959 2.801,-2.737 2.801,-4.797 0,-2.061 -1.134,-3.837 -2.801,-4.798 1.667,-0.959 2.801,-2.736 2.801,-4.797 0,-2.061 -1.134,-3.837 -2.801,-4.796 1.667,-0.961 2.801,-2.739 2.801,-4.799 0,-2.059 -1.134,-3.837 -2.801,-4.794 1.667,-0.961 2.801,-2.741 2.801,-4.801 0,-2.059 -1.134,-3.837 -2.801,-4.796 1.667,-0.959 2.801,-2.737 2.801,-4.797 0,-2.061 -1.134,-3.838 -2.801,-4.797 1.667,-0.959 2.801,-2.737 2.801,-4.796 0,-2.06 -1.134,-3.84 -2.801,-4.8 1.667,-0.958 2.801,-2.736 2.801,-4.796 0,-2.059 -1.134,-3.838 -2.801,-4.799 1.667,-0.958 2.801,-2.734 2.801,-4.795 0,-2.06 -1.134,-3.838 -2.801,-4.797 1.667,-0.961 2.801,-2.737 2.801,-4.798 0,-2.06 -1.134,-3.838 -2.801,-4.799 1.667,-0.958 2.801,-2.736 2.801,-4.796 0,-2.06 -1.134,-3.838 -2.801,-4.797 1.67,-0.958 2.803,-2.734 2.803,-4.794 z"
   inkscape:connector-curvature="0" />
		</defs>
		<clipPath
   id="SVGID_4_">
			<use
   xlink:href="#SVGID_3_"
   overflow="visible"
   id="use61"
   style="overflow:visible"
   x="0"
   y="0"
   width="595.28003"
   height="841.89001" />
		</clipPath>
		<g
   clip-path="url(#SVGID_4_)"
   id="g63"
   style="opacity:0.23000004">
			<path
   d="m 36.209,165.106 c -35.613,0 -68.257,-17.929 -87.318,-47.96 C -81.652,69.045 -67.361,5.062 -19.256,-25.481 -2.66,-36.017 16.461,-41.586 36.041,-41.586 c 35.615,0 68.26,17.93 87.324,47.962 14.797,23.301 19.631,50.969 13.615,77.909 -6.018,26.939 -22.164,49.923 -45.469,64.716 -16.597,10.536 -35.722,16.105 -55.302,16.105 z"
   id="path65"
   inkscape:connector-curvature="0"
   style="fill:#ffffff" />
			<polygon
   points="119.248,15.966 112.936,6.026 792.744,-468.909 838.295,-397.157 "
   id="polygon67"
   style="fill:#ffffff" />
			<polygon
   points="81.926,144.879 91.865,138.573 566.806,818.371 495.053,863.926 "
   id="polygon69"
   style="fill:#ffffff" />
			<polygon
   points="-46.992,107.555 -40.68,117.495 -720.485,592.436 -766.04,520.686 "
   id="polygon71"
   style="fill:#ffffff" />
			<polygon
   points="127.287,88.149 129.854,76.659 946.387,221.518 927.865,304.469 "
   id="polygon73"
   style="fill:#ffffff" />
			<polygon
   points="9.738,152.917 21.227,155.483 -123.629,972.012 -206.579,953.486 "
   id="polygon75"
   style="fill:#ffffff" />
			<polygon
   points="110.535,120.669 117.254,111.003 818.339,553.945 769.812,623.723 "
   id="polygon77"
   style="fill:#ffffff" />
			<polygon
   points="-22.78,136.163 -13.116,142.882 -456.056,843.963 -525.835,795.436 "
   id="polygon79"
   style="fill:#ffffff" />
			<polygon
   points="130.396,50.8 128.32,39.213 937.258,-143.315 952.291,-59.664 "
   id="polygon81"
   style="fill:#ffffff" />
			<polygon
   points="47.086,156.021 58.675,153.942 241.205,962.883 157.551,977.916 "
   id="polygon83"
   style="fill:#ffffff" />
			<polygon
   points="97.078,134.504 105.618,126.399 702.604,701.988 640.972,760.514 "
   id="polygon85"
   style="fill:#ffffff" />
			<polygon
   points="-36.613,122.71 -28.508,131.246 -604.103,728.234 -662.625,666.6 "
   id="polygon87"
   style="fill:#ffffff" />
			<polygon
   points="130.664,70.098 130.971,58.327 960.113,43.2 957.918,128.162 "
   id="polygon89"
   style="fill:#ffffff" />
			<polygon
   points="27.791,156.295 39.557,156.601 54.689,985.74 -30.277,983.535 "
   id="polygon91"
   style="fill:#ffffff" />
			<polygon
   points="120.486,105.235 125.225,94.457 898.486,394.062 864.314,471.887 "
   id="polygon93"
   style="fill:#ffffff" />
			<polygon
   points="-7.348,146.117 3.432,150.852 -296.179,924.117 -373.993,889.939 "
   id="polygon95"
   style="fill:#ffffff" />
			<polygon
   points="126.528,32.849 122.25,21.879 880.881,-313.041 911.748,-233.851 "
   id="polygon97"
   style="fill:#ffffff" />
			<polygon
   points="65.035,152.149 76.01,147.875 410.932,906.508 331.741,937.367 "
   id="polygon99"
   style="fill:#ffffff" />
		</g>
	</g>
</g>
<g
   id="g101"
   transform="translate(-60.847009,-57.977176)">
	<defs
   id="defs103">
		<path
   id="SVGID_5_"
   d="m 542.266,108.77 c 0,-2.061 -1.134,-3.838 -2.801,-4.799 1.667,-0.959 2.801,-2.738 2.801,-4.797 0,-3.068 -2.489,-5.559 -5.557,-5.559 -2.032,0 -3.79,1.101 -4.76,2.727 -0.961,-1.656 -2.734,-2.784 -4.789,-2.784 -2.057,0 -3.837,1.135 -4.798,2.8 -0.957,-1.665 -2.737,-2.8 -4.797,-2.8 -2.057,0 -3.837,1.135 -4.797,2.8 -0.961,-1.665 -2.738,-2.8 -4.798,-2.8 -2.061,0 -3.838,1.135 -4.799,2.802 -0.96,-1.667 -2.737,-2.802 -4.797,-2.802 -2.061,0 -3.833,1.135 -4.798,2.8 -0.957,-1.665 -2.737,-2.8 -4.798,-2.8 -2.06,0 -3.837,1.135 -4.794,2.8 -0.961,-1.665 -2.741,-2.8 -4.801,-2.8 -0.788,0 -1.534,0.169 -2.208,0.466 -1.103,0.449 -2.023,1.244 -2.643,2.25 -0.975,-1.617 -2.719,-2.716 -4.744,-2.716 -0.017,0 -0.032,0.003 -0.048,0.003 -0.016,0 -0.028,-0.003 -0.044,-0.003 -2.029,0 -3.78,1.104 -4.75,2.729 -0.971,-1.625 -2.726,-2.729 -4.751,-2.729 -0.015,0 -0.031,0.003 -0.047,0.003 -0.016,0 -0.031,-0.003 -0.048,-0.003 -2.028,0 -3.78,1.104 -4.75,2.729 -0.97,-1.625 -2.725,-2.729 -4.75,-2.729 -0.017,0 -0.031,0.003 -0.048,0.003 -0.016,0 -0.031,-0.003 -0.047,-0.003 -2.031,0 -3.783,1.104 -4.754,2.731 -0.967,-1.626 -2.719,-2.731 -4.75,-2.731 -0.016,0 -0.032,0.003 -0.047,0.003 -0.017,0 -0.028,-0.003 -0.045,-0.003 -2.031,0 -3.776,1.104 -4.751,2.729 -0.969,-1.625 -2.721,-2.729 -4.752,-2.729 -0.017,0 -0.032,0.003 -0.048,0.003 -0.016,0 -0.028,-0.003 -0.044,-0.003 -2.031,0 -3.783,1.104 -4.75,2.731 -0.968,-1.627 -2.723,-2.731 -4.754,-2.731 -0.016,0 -0.032,0.003 -0.047,0.003 -0.017,0 -0.028,-0.003 -0.045,-0.003 -2.031,0 -3.783,1.104 -4.75,2.731 -0.967,-1.627 -2.722,-2.731 -4.747,-2.731 -0.02,0 -0.034,0.003 -0.051,0.003 -0.016,0 -0.031,-0.003 -0.047,-0.003 -2.028,0 -3.783,1.104 -4.754,2.729 -0.967,-1.625 -2.718,-2.729 -4.754,-2.729 -0.015,0 -0.028,0.003 -0.043,0.003 -0.017,0 -0.032,-0.003 -0.048,-0.003 -2.032,0 -3.786,1.105 -4.75,2.731 -0.971,-1.626 -2.722,-2.731 -4.75,-2.731 -0.017,0 -0.032,0.003 -0.048,0.003 -0.016,0 -0.032,-0.003 -0.047,-0.003 -2.029,0 -3.78,1.104 -4.751,2.729 -0.97,-1.625 -2.721,-2.729 -4.754,-2.729 -0.016,0 -0.03,0.003 -0.047,0.003 -0.016,0 -0.028,-0.003 -0.044,-0.003 -2.028,0 -3.783,1.104 -4.75,2.729 -0.971,-1.625 -2.723,-2.729 -4.754,-2.729 -0.015,0 -0.031,0.003 -0.047,0.003 -0.016,0 -0.028,-0.003 -0.044,-0.003 -2.029,0 -3.78,1.104 -4.751,2.729 -0.97,-1.625 -2.721,-2.729 -4.751,-2.729 -0.015,0 -0.031,0.003 -0.047,0.003 -0.015,0 -0.031,-0.003 -0.047,-0.003 -2.025,0 -3.78,1.104 -4.75,2.729 -0.971,-1.625 -2.723,-2.729 -4.75,-2.729 -0.017,0 -0.032,0.003 -0.048,0.003 -0.013,0 -0.028,-0.003 -0.044,-0.003 -2.032,0 -3.783,1.104 -4.754,2.729 -0.97,-1.625 -2.718,-2.729 -4.751,-2.729 -0.015,0 -0.03,0.003 -0.047,0.003 -0.015,0 -0.031,-0.003 -0.047,-0.003 -2.029,0 -3.779,1.104 -4.75,2.729 -0.971,-1.625 -2.719,-2.729 -4.751,-2.729 -0.015,0 -0.031,0.003 -0.047,0.003 -0.016,0 -0.028,-0.003 -0.044,-0.003 -2.032,0 -3.783,1.104 -4.754,2.729 -0.97,-1.625 -2.718,-2.729 -4.75,-2.729 -0.016,0 -0.031,0.003 -0.048,0.003 -0.015,0 -0.031,-0.003 -0.047,-0.003 -2.029,0 -3.779,1.104 -4.747,2.731 -0.971,-1.627 -2.722,-2.731 -4.754,-2.731 -0.015,0 -0.031,0.003 -0.047,0.003 -0.016,0 -0.031,-0.003 -0.048,-0.003 -2.028,0 -3.779,1.104 -4.747,2.729 -0.97,-1.625 -2.721,-2.729 -4.75,-2.729 -0.016,0 -0.031,0.003 -0.047,0.003 -0.016,0 -0.032,-0.003 -0.047,-0.003 -2.032,0 -3.783,1.104 -4.754,2.729 -0.97,-1.625 -2.722,-2.729 -4.751,-2.729 -0.016,0 -0.031,0.003 -0.047,0.003 -0.016,0 -0.029,-0.003 -0.044,-0.003 -2.032,0 -3.783,1.104 -4.751,2.731 -0.971,-1.627 -2.721,-2.731 -4.75,-2.731 -0.016,0 -0.031,0.003 -0.047,0.003 -0.016,0 -0.032,-0.003 -0.047,-0.003 -2.029,0 -3.781,1.104 -4.751,2.729 -0.971,-1.625 -2.722,-2.729 -4.751,-2.729 -0.016,0 -0.031,0.003 -0.047,0.003 -0.016,0 -0.031,-0.003 -0.047,-0.003 -2.028,0 -3.784,1.104 -4.75,2.729 -0.971,-1.625 -2.723,-2.729 -4.754,-2.729 -0.016,0 -0.029,0.003 -0.044,0.003 -0.016,0 -0.032,-0.003 -0.047,-0.003 -2.03,0 -3.783,1.104 -4.751,2.731 -0.968,-1.626 -2.721,-2.731 -4.751,-2.731 -0.015,0 -0.031,0.003 -0.047,0.003 -0.015,0 -0.031,-0.003 -0.048,-0.003 -2.028,0 -3.783,1.104 -4.75,2.731 -0.967,-1.627 -2.718,-2.731 -4.75,-2.731 -0.016,0 -0.031,0.003 -0.047,0.003 -0.016,0 -0.029,-0.003 -0.044,-0.003 -2.032,0 -3.787,1.104 -4.754,2.729 -0.97,-1.625 -2.722,-2.729 -4.751,-2.729 -0.016,0 -0.031,0.003 -0.047,0.003 -0.016,0 -0.031,-0.003 -0.047,-0.003 -2.029,0 -3.78,1.104 -4.75,2.731 -0.971,-1.626 -2.719,-2.731 -4.752,-2.731 -0.015,0 -0.03,0.003 -0.047,0.003 -0.015,0 -0.027,-0.003 -0.043,-0.003 -2.033,0 -3.783,1.104 -4.751,2.729 -0.97,-1.625 -2.726,-2.729 -4.754,-2.729 -0.015,0 -0.03,0.003 -0.047,0.003 -0.015,0 -0.028,-0.003 -0.044,-0.003 -2.032,0 -3.783,1.104 -4.75,2.729 -0.971,-1.625 -2.722,-2.729 -4.75,-2.729 -0.02,0 -0.032,0.003 -0.051,0.003 -0.016,0 -0.031,-0.003 -0.048,-0.003 -2.024,0 -3.779,1.104 -4.75,2.729 -0.968,-1.625 -2.718,-2.729 -4.751,-2.729 -0.015,0 -0.028,0.003 -0.043,0.003 -0.016,0 -0.032,-0.003 -0.047,-0.003 -2.033,0 -3.781,1.104 -4.752,2.729 -0.97,-1.625 -2.725,-2.729 -4.753,-2.729 -0.015,0 -0.031,0.003 -0.048,0.003 -0.015,0 -0.027,-0.003 -0.043,-0.003 -2.029,0 -3.783,1.104 -4.751,2.729 -0.974,-1.625 -2.722,-2.729 -4.75,-2.729 -0.016,0 -0.032,0.003 -0.047,0.003 -0.017,0 -0.032,-0.003 -0.048,-0.003 -2.032,0 -3.779,1.104 -4.75,2.729 -0.971,-1.625 -2.722,-2.729 -4.751,-2.729 -0.015,0 -0.031,0.003 -0.048,0.003 -0.015,0 -0.031,-0.003 -0.047,-0.003 -2.031,0 -3.783,1.104 -4.75,2.731 -0.971,-1.627 -2.723,-2.731 -4.754,-2.731 -0.015,0 -0.031,0.003 -0.047,0.003 -0.016,0 -0.028,-0.003 -0.045,-0.003 -2.031,0 -3.782,1.105 -4.75,2.731 -0.97,-1.626 -2.721,-2.731 -4.75,-2.731 -0.016,0 -0.031,0.003 -0.047,0.003 -0.016,0 -0.028,-0.003 -0.044,-0.003 -2.032,0 -3.783,1.104 -4.754,2.731 -0.967,-1.627 -2.722,-2.731 -4.75,-2.731 -0.016,0 -0.032,0.003 -0.048,0.003 -0.016,0 -0.031,-0.003 -0.047,-0.003 -2.028,0 -3.783,1.104 -4.75,2.731 -0.971,-1.627 -2.723,-2.731 -4.75,-2.731 -0.017,0 -0.032,0.003 -0.048,0.003 -0.017,0 -0.032,-0.003 -0.048,-0.003 -2.06,0 -3.833,1.135 -4.794,2.8 -0.964,-1.665 -2.737,-2.8 -4.798,-2.8 -1.906,0 -3.559,0.976 -4.559,2.438 -0.037,0.055 -0.075,0.109 -0.109,0.166 -0.041,0.066 -0.092,0.127 -0.129,0.196 -0.961,-1.666 -2.738,-2.801 -4.799,-2.801 -2.062,0 -3.84,1.135 -4.797,2.801 -0.961,-1.666 -2.737,-2.801 -4.801,-2.801 -2.057,0 -3.837,1.135 -4.797,2.8 -0.959,-1.665 -2.734,-2.8 -4.795,-2.8 -2.063,0 -3.84,1.135 -4.801,2.801 -0.955,-1.666 -2.734,-2.801 -4.795,-2.801 -2.062,0 -3.836,1.135 -4.797,2.801 -0.961,-1.666 -2.738,-2.801 -4.799,-2.801 -2.107,0 -3.918,1.188 -4.863,2.919 -0.951,-1.697 -2.746,-2.861 -4.829,-2.861 -3.071,0 -5.56,2.49 -5.56,5.559 0,2.059 1.134,3.838 2.801,4.797 -1.667,0.961 -2.801,2.738 -2.801,4.799 0,2.06 1.134,3.836 2.801,4.797 -1.667,0.959 -2.801,2.736 -2.801,4.797 0,2.061 1.134,3.838 2.801,4.797 -1.667,0.961 -2.801,2.738 -2.801,4.799 0,2.061 1.134,3.837 2.801,4.798 -1.667,0.96 -2.801,2.737 -2.801,4.798 0,2.061 1.134,3.836 2.801,4.795 -1.667,0.96 -2.801,2.74 -2.801,4.799 0,2.061 1.134,3.838 2.801,4.796 -1.667,0.96 -2.801,2.74 -2.801,4.8 0,2.06 1.134,3.838 2.801,4.797 -1.667,0.959 -2.801,2.736 -2.801,4.797 0,2.061 1.134,3.839 2.801,4.798 -1.667,0.96 -2.801,2.737 -2.801,4.796 0,2.061 1.134,3.84 2.801,4.801 -1.667,0.958 -2.801,2.736 -2.801,4.795 0,2.06 1.134,3.838 2.801,4.799 -1.667,0.959 -2.801,2.736 -2.801,4.797 0,2.061 1.134,3.838 2.801,4.797 -1.667,0.961 -2.801,2.737 -2.801,4.798 0,2.06 1.134,3.839 2.801,4.798 -1.667,0.961 -2.801,2.736 -2.801,4.797 0,2.061 1.134,3.837 2.801,4.798 -1.667,0.961 -2.801,2.737 -2.801,4.798 0,2.061 1.134,3.836 2.801,4.797 -1.667,0.96 -2.801,2.738 -2.801,4.799 0,2.059 1.134,3.838 2.801,4.797 -1.667,0.961 -2.801,2.738 -2.801,4.797 0,2.061 1.134,3.838 2.801,4.799 -1.667,0.959 -2.801,2.736 -2.801,4.797 0,2.061 1.134,3.838 2.801,4.797 -1.667,0.959 -2.801,2.738 -2.801,4.799 0,2.061 1.134,3.836 2.801,4.797 -1.667,0.957 -2.801,2.738 -2.801,4.797 0,2.061 1.134,3.838 2.801,4.797 -1.667,0.959 -2.801,2.738 -2.801,4.799 0,2.059 1.134,3.838 2.801,4.799 -1.667,0.959 -2.801,2.734 -2.801,4.797 0,2.059 1.134,3.838 2.801,4.799 -1.667,0.959 -2.801,2.734 -2.801,4.793 0,2.061 1.134,3.84 2.801,4.801 -1.667,0.959 -2.801,2.734 -2.801,4.795 0,2.062 1.134,3.838 2.801,4.797 -1.667,0.961 -2.801,2.738 -2.801,4.799 0,2.061 1.134,3.838 2.801,4.799 -1.667,0.959 -2.801,2.736 -2.801,4.797 0,2.059 1.134,3.838 2.801,4.799 -1.667,0.959 -2.801,2.736 -2.801,4.795 0,2.061 1.134,3.84 2.801,4.799 -1.667,0.961 -2.801,2.738 -2.801,4.797 0,2.061 1.134,3.838 2.801,4.797 -1.667,0.961 -2.801,2.738 -2.801,4.799 0,2.061 1.134,3.836 2.801,4.797 -1.667,0.961 -2.801,2.738 -2.801,4.799 0,2.061 1.134,3.836 2.801,4.795 -1.667,0.961 -2.801,2.74 -2.801,4.799 0,2.059 1.134,3.838 2.801,4.797 -1.667,0.959 -2.801,2.738 -2.801,4.799 0,2.059 1.134,3.836 2.801,4.797 -1.667,0.959 -2.801,2.738 -2.801,4.797 0,2.061 1.134,3.838 2.801,4.799 -1.667,0.959 -2.801,2.736 -2.801,4.797 0,2.061 1.134,3.838 2.801,4.799 -1.667,0.959 -2.801,2.736 -2.801,4.797 0,2.059 1.134,3.838 2.801,4.797 -1.667,0.959 -2.801,2.736 -2.801,4.797 0,2.061 1.134,3.838 2.801,4.799 -1.667,0.959 -2.801,2.736 -2.801,4.797 0,2.059 1.134,3.838 2.801,4.797 -1.667,0.961 -2.801,2.738 -2.801,4.797 0,2.061 1.134,3.838 2.801,4.799 -1.667,0.961 -2.801,2.738 -2.801,4.795 0,2.061 1.134,3.84 2.801,4.801 -1.667,0.959 -2.801,2.736 -2.801,4.795 0,2.062 1.134,3.84 2.801,4.799 -1.667,0.961 -2.801,2.738 -2.801,4.797 0,2.064 1.134,3.84 2.801,4.799 -1.667,0.961 -2.801,2.734 -2.801,4.799 0,2.059 1.134,3.838 2.801,4.799 -1.667,0.957 -2.801,2.736 -2.801,4.795 0,2.061 1.134,3.838 2.801,4.795 -1.667,0.961 -2.801,2.74 -2.801,4.799 0,2.061 1.134,3.84 2.801,4.799 -1.667,0.961 -2.801,2.736 -2.801,4.797 0,2.061 1.134,3.84 2.801,4.801 -1.667,0.959 -2.801,2.734 -2.801,4.795 0,2.061 1.134,3.838 2.801,4.797 -1.667,0.959 -2.801,2.738 -2.801,4.799 0,2.061 1.134,3.836 2.801,4.797 -1.667,0.959 -2.801,2.736 -2.801,4.797 0,2.059 1.134,3.838 2.801,4.797 -1.667,0.961 -2.801,2.736 -2.801,4.799 0,2.059 1.134,3.838 2.801,4.799 -1.667,0.961 -2.801,2.736 -2.801,4.793 0,2.061 1.134,3.84 2.801,4.801 -1.667,0.959 -2.801,2.734 -2.801,4.795 0,2.064 1.134,3.84 2.801,4.799 -1.667,0.961 -2.801,2.736 -2.801,4.799 0,2.059 1.134,3.836 2.801,4.797 -1.667,0.959 -2.801,2.738 -2.801,4.797 0,2.061 1.134,3.838 2.801,4.799 -1.667,0.959 -2.801,2.738 -2.801,4.795 0,2.062 1.134,3.84 2.801,4.799 -1.667,0.961 -2.801,2.74 -2.801,4.797 0,2.061 1.134,3.84 2.801,4.799 -1.667,0.959 -2.801,2.736 -2.801,4.797 0,2.061 1.134,3.84 2.801,4.799 -1.667,0.961 -2.801,2.736 -2.801,4.797 0,2.061 1.134,3.838 2.801,4.797 -1.667,0.961 -2.801,2.738 -2.801,4.797 0,2.061 1.134,3.84 2.801,4.801 -1.667,0.955 -2.801,2.734 -2.801,4.795 0,2.059 1.134,3.84 2.801,4.799 -1.667,0.961 -2.801,2.736 -2.801,4.797 0,2.061 1.134,3.836 2.801,4.797 -1.667,0.961 -2.801,2.734 -2.801,4.795 0,2.061 1.134,3.84 2.801,4.801 -1.667,0.957 -2.801,2.738 -2.801,4.795 0,2.062 1.134,3.84 2.801,4.801 -1.667,0.961 -2.801,2.736 -2.801,4.793 0,2.064 1.134,3.838 2.801,4.799 -1.667,0.961 -2.801,2.74 -2.801,4.797 0,2.061 1.134,3.84 2.801,4.799 -1.667,0.961 -2.801,2.736 -2.801,4.797 0,2.064 1.134,3.838 2.801,4.799 -1.667,0.961 -2.801,2.736 -2.801,4.797 0,2.061 1.134,3.836 2.801,4.797 -1.667,0.961 -2.801,2.74 -2.801,4.795 0,2.064 1.134,3.84 2.801,4.801 -1.667,0.961 -2.801,2.738 -2.801,4.797 0,2.064 1.134,3.838 2.801,4.799 -1.667,0.961 -2.801,2.736 -2.801,4.797 0,2.061 1.134,3.836 2.801,4.797 -1.667,0.961 -2.801,2.738 -2.801,4.799 0,2.061 1.134,3.84 2.801,4.797 -1.667,0.961 -2.801,2.738 -2.801,4.797 0,2.061 1.134,3.838 2.801,4.799 -1.667,0.961 -2.801,2.736 -2.801,4.795 0,2.062 1.134,3.84 2.801,4.801 -1.667,0.957 -2.801,2.736 -2.801,4.797 0,2.061 1.134,3.836 2.801,4.797 -1.667,0.961 -2.801,2.738 -2.801,4.799 0,2.057 1.134,3.836 2.801,4.797 -1.667,0.959 -2.801,2.734 -2.801,4.795 0,0.027 0.01,0.053 0.01,0.078 0,0.025 -0.01,0.051 -0.01,0.076 0,3.068 2.488,5.557 5.56,5.557 2.107,0 3.919,-1.188 4.86,-2.92 0.951,1.701 2.748,2.863 4.832,2.863 2.061,0 3.838,-1.135 4.795,-2.797 0.961,1.662 2.738,2.797 4.801,2.797 2.061,0 3.837,-1.135 4.795,-2.797 0.961,1.662 2.737,2.797 4.801,2.797 2.057,0 3.836,-1.135 4.795,-2.797 0.96,1.662 2.74,2.797 4.797,2.797 2.061,0 3.84,-1.135 4.798,-2.797 0.96,1.662 2.737,2.797 4.798,2.797 2.047,0 3.814,-1.121 4.778,-2.766 0.958,1.678 2.741,2.822 4.813,2.822 2.072,0 3.858,-1.152 4.811,-2.842 0.963,1.658 2.733,2.785 4.787,2.785 0.016,0 0.031,-0.004 0.048,-0.004 0.016,0 0.031,0.004 0.048,0.004 2.027,0 3.779,-1.105 4.75,-2.729 0.967,1.623 2.719,2.729 4.75,2.729 0.016,0 0.031,-0.004 0.047,-0.004 0.016,0 0.032,0.004 0.048,0.004 2.028,0 3.78,-1.102 4.747,-2.729 0.971,1.627 2.725,2.729 4.754,2.729 0.016,0 0.031,-0.004 0.047,-0.004 0.016,0 0.031,0.004 0.047,0.004 2.029,0 3.78,-1.105 4.75,-2.729 0.971,1.623 2.723,2.729 4.748,2.729 0.016,0 0.031,-0.004 0.047,-0.004 0.016,0 0.032,0.004 0.047,0.004 2.031,0 3.783,-1.105 4.754,-2.729 0.967,1.623 2.719,2.729 4.75,2.729 0.016,0 0.028,-0.004 0.045,-0.004 0.016,0 0.031,0.004 0.047,0.004 2.032,0 3.783,-1.102 4.754,-2.729 0.971,1.627 2.721,2.729 4.75,2.729 0.016,0 0.031,-0.004 0.048,-0.004 0.015,0 0.031,0.004 0.047,0.004 2.028,0 3.776,-1.105 4.747,-2.729 0.971,1.623 2.721,2.729 4.754,2.729 0.016,0 0.028,-0.004 0.043,-0.004 0.017,0 0.033,0.004 0.048,0.004 2.028,0 3.78,-1.105 4.751,-2.729 0.971,1.623 2.721,2.729 4.754,2.729 0.015,0 0.027,-0.004 0.043,-0.004 0.016,0 0.032,0.004 0.047,0.004 2.033,0 3.783,-1.105 4.751,-2.729 0.971,1.623 2.726,2.729 4.75,2.729 0.017,0 0.032,-0.004 0.048,-0.004 0.016,0 0.031,0.004 0.047,0.004 2.032,0 3.78,-1.102 4.75,-2.729 0.967,1.627 2.722,2.729 4.75,2.729 0.017,0 0.033,-0.004 0.048,-0.004 0.017,0 0.028,0.004 0.044,0.004 2.031,0 3.783,-1.105 4.754,-2.729 0.971,1.623 2.721,2.729 4.754,2.729 0.016,0 0.028,-0.004 0.043,-0.004 0.017,0 0.032,0.004 0.047,0.004 2.033,0 3.781,-1.102 4.748,-2.73 0.971,1.625 2.722,2.73 4.754,2.73 0.016,0 0.031,-0.004 0.047,-0.004 0.016,0 0.031,0.004 0.047,0.004 2.029,0 3.781,-1.105 4.751,-2.729 0.967,1.623 2.722,2.729 4.75,2.729 0.017,0 0.032,-0.004 0.048,-0.004 0.016,0 0.031,0.004 0.047,0.004 2.028,0 3.78,-1.102 4.75,-2.729 0.967,1.627 2.722,2.729 4.75,2.729 0.017,0 0.033,-0.004 0.048,-0.004 0.016,0 0.032,0.004 0.047,0.004 2.03,0 3.783,-1.105 4.751,-2.73 0.968,1.629 2.719,2.73 4.751,2.73 0.015,0 0.028,-0.004 0.044,-0.004 0.016,0 0.031,0.004 0.047,0.004 2.031,0 3.783,-1.105 4.754,-2.729 0.966,1.623 2.718,2.729 4.75,2.729 0.016,0 0.031,-0.004 0.047,-0.004 0.016,0 0.027,0.004 0.044,0.004 2.032,0 3.783,-1.102 4.754,-2.729 0.97,1.627 2.718,2.729 4.751,2.729 0.015,0 0.031,-0.004 0.047,-0.004 0.016,0 0.031,0.004 0.047,0.004 2.029,0 3.779,-1.105 4.75,-2.729 0.968,1.623 2.719,2.729 4.751,2.729 0.015,0 0.028,-0.004 0.044,-0.004 0.016,0 0.031,0.004 0.047,0.004 2.029,0 3.781,-1.105 4.751,-2.729 0.971,1.623 2.722,2.729 4.754,2.729 0.015,0 0.028,-0.004 0.043,-0.004 0.017,0 0.032,0.004 0.048,0.004 2.032,0 3.783,-1.105 4.753,-2.729 0.968,1.623 2.719,2.729 4.747,2.729 0.017,0 0.032,-0.004 0.048,-0.004 0.016,0 0.032,0.004 0.047,0.004 2.032,0 3.783,-1.102 4.751,-2.73 0.967,1.625 2.721,2.73 4.75,2.73 0.016,0 0.032,-0.004 0.047,-0.004 0.017,0 0.032,0.004 0.048,0.004 2.028,0 3.78,-1.105 4.75,-2.729 0.971,1.623 2.722,2.729 4.754,2.729 0.016,0 0.028,-0.004 0.044,-0.004 0.016,0 0.032,0.004 0.047,0.004 2.028,0 3.78,-1.105 4.751,-2.729 0.971,1.623 2.721,2.729 4.75,2.729 0.016,0 0.032,-0.004 0.047,-0.004 0.017,0 0.032,0.004 0.047,0.004 2.029,0 3.781,-1.105 4.751,-2.729 0.971,1.623 2.722,2.729 4.754,2.729 0.016,0 0.028,-0.004 0.044,-0.004 0.016,0 0.031,0.004 0.048,0.004 2.027,0 3.779,-1.105 4.75,-2.729 0.97,1.623 2.725,2.729 4.75,2.729 0.016,0 0.032,-0.004 0.047,-0.004 0.016,0 0.032,0.004 0.047,0.004 2.03,0 3.781,-1.102 4.751,-2.729 0.971,1.627 2.722,2.729 4.751,2.729 0.016,0 0.028,-0.004 0.044,-0.004 0.016,0 0.032,0.004 0.047,0.004 2.031,0 3.783,-1.102 4.754,-2.729 0.967,1.627 2.718,2.729 4.75,2.729 0.016,0 0.028,-0.004 0.044,-0.004 0.017,0 0.031,0.004 0.047,0.004 2.033,0 3.784,-1.102 4.754,-2.729 0.971,1.627 2.722,2.729 4.751,2.729 0.015,0 0.031,-0.004 0.047,-0.004 0.016,0 0.031,0.004 0.048,0.004 2.028,0 3.779,-1.105 4.75,-2.729 0.967,1.623 2.722,2.729 4.75,2.729 0.016,0 0.031,-0.004 0.048,-0.004 0.015,0 0.028,0.004 0.043,0.004 2.036,0 3.787,-1.102 4.754,-2.729 0.971,1.627 2.726,2.729 4.754,2.729 0.016,0 0.031,-0.004 0.047,-0.004 0.017,0 0.031,0.004 0.048,0.004 2.028,0 3.78,-1.105 4.75,-2.729 0.967,1.623 2.719,2.729 4.75,2.729 0.017,0 0.028,-0.004 0.045,-0.004 0.015,0 0.031,0.004 0.047,0.004 2.031,0 3.783,-1.105 4.754,-2.729 0.967,1.623 2.719,2.729 4.75,2.729 0.016,0 0.028,-0.004 0.044,-0.004 0.016,0 0.031,0.004 0.048,0.004 2.031,0 3.783,-1.102 4.752,-2.729 0.971,1.627 2.72,2.729 4.751,2.729 0.017,0 0.028,-0.004 0.045,-0.004 0.015,0 0.031,0.004 0.047,0.004 2.031,0 3.783,-1.105 4.75,-2.729 0.971,1.623 2.723,2.729 4.754,2.729 0.016,0 0.028,-0.004 0.044,-0.004 0.016,0 0.031,0.004 0.048,0.004 2.028,0 3.783,-1.102 4.753,-2.729 0.97,1.627 2.719,2.729 4.75,2.729 0.017,0 0.028,-0.004 0.045,-0.004 0.016,0 0.031,0.004 0.047,0.004 2.028,0 3.783,-1.105 4.75,-2.729 0.971,1.623 2.723,2.729 4.754,2.729 0.016,0 0.028,-0.004 0.044,-0.004 0.016,0 0.031,0.004 0.048,0.004 2.003,0 3.729,-1.074 4.709,-2.662 0.973,1.623 2.721,2.719 4.747,2.719 0.535,0 1.043,-0.1 1.534,-0.242 0.101,-0.025 0.198,-0.061 0.296,-0.092 0.135,-0.047 0.276,-0.088 0.409,-0.145 1.138,-0.473 2.086,-1.312 2.7,-2.375 0.957,1.662 2.734,2.797 4.794,2.797 2.061,0 3.841,-1.135 4.798,-2.797 0.961,1.662 2.737,2.797 4.798,2.797 2.06,0 3.837,-1.135 4.797,-2.797 0.961,1.662 2.738,2.797 4.799,2.797 2.06,0 3.837,-1.135 4.798,-2.797 0.96,1.662 2.737,2.797 4.797,2.797 2.06,0 3.84,-1.135 4.797,-2.797 0.961,1.662 2.738,2.797 4.798,2.797 2.032,0 3.79,-1.1 4.757,-2.729 0.964,1.66 2.737,2.785 4.792,2.785 3.067,0 5.557,-2.488 5.557,-5.557 0,-0.025 -0.01,-0.051 -0.01,-0.076 0,-0.025 0.01,-0.051 0.01,-0.078 0,-2.061 -1.134,-3.836 -2.801,-4.795 1.667,-0.961 2.801,-2.74 2.801,-4.797 0,-2.061 -1.134,-3.838 -2.801,-4.799 1.667,-0.961 2.801,-2.736 2.801,-4.797 0,-2.061 -1.134,-3.84 -2.801,-4.797 1.667,-0.961 2.801,-2.738 2.801,-4.801 0,-2.059 -1.134,-3.834 -2.801,-4.795 1.667,-0.961 2.801,-2.738 2.801,-4.799 0,-2.059 -1.134,-3.836 -2.801,-4.797 1.667,-0.957 2.801,-2.736 2.801,-4.797 0,-2.061 -1.134,-3.838 -2.801,-4.799 1.667,-0.961 2.801,-2.736 2.801,-4.797 0,-2.061 -1.134,-3.836 -2.801,-4.797 1.667,-0.961 2.801,-2.734 2.801,-4.799 0,-2.059 -1.134,-3.836 -2.801,-4.797 1.667,-0.961 2.801,-2.736 2.801,-4.801 0,-2.055 -1.134,-3.834 -2.801,-4.795 1.667,-0.961 2.801,-2.736 2.801,-4.797 0,-2.061 -1.134,-3.836 -2.801,-4.797 1.667,-0.961 2.801,-2.734 2.801,-4.799 0,-2.061 -1.134,-3.836 -2.801,-4.797 1.667,-0.959 2.801,-2.738 2.801,-4.799 0,-2.057 -1.134,-3.836 -2.801,-4.797 1.667,-0.961 2.801,-2.734 2.801,-4.799 0,-2.057 -1.134,-3.832 -2.801,-4.793 1.667,-0.961 2.801,-2.738 2.801,-4.801 0,-2.057 -1.134,-3.838 -2.801,-4.795 1.667,-0.961 2.801,-2.74 2.801,-4.801 0,-2.061 -1.134,-3.834 -2.801,-4.795 1.667,-0.961 2.801,-2.736 2.801,-4.797 0,-2.061 -1.134,-3.836 -2.801,-4.797 1.667,-0.959 2.801,-2.74 2.801,-4.799 0,-2.061 -1.134,-3.84 -2.801,-4.795 1.667,-0.961 2.801,-2.74 2.801,-4.801 0,-2.059 -1.134,-3.836 -2.801,-4.797 1.667,-0.959 2.801,-2.736 2.801,-4.797 0,-2.061 -1.134,-3.836 -2.801,-4.797 1.667,-0.959 2.801,-2.738 2.801,-4.799 0,-2.061 -1.134,-3.838 -2.801,-4.797 1.667,-0.959 2.801,-2.738 2.801,-4.799 0,-2.057 -1.134,-3.836 -2.801,-4.797 1.667,-0.959 2.801,-2.736 2.801,-4.799 0,-2.057 -1.134,-3.836 -2.801,-4.795 1.667,-0.961 2.801,-2.738 2.801,-4.799 0,-2.059 -1.134,-3.838 -2.801,-4.797 1.667,-0.961 2.801,-2.738 2.801,-4.797 0,-2.062 -1.134,-3.838 -2.801,-4.799 1.667,-0.959 2.801,-2.734 2.801,-4.799 0,-2.061 -1.134,-3.836 -2.801,-4.795 1.667,-0.961 2.801,-2.74 2.801,-4.801 0,-2.057 -1.134,-3.832 -2.797,-4.793 1.663,-0.961 2.797,-2.74 2.797,-4.799 0,-2.062 -1.134,-3.838 -2.801,-4.799 1.667,-0.959 2.801,-2.738 2.801,-4.797 0,-2.061 -1.134,-3.838 -2.801,-4.797 1.667,-0.961 2.801,-2.736 2.801,-4.797 0,-2.061 -1.134,-3.84 -2.801,-4.799 1.667,-0.959 2.801,-2.736 2.801,-4.797 0,-2.061 -1.134,-3.836 -2.801,-4.795 1.667,-0.961 2.801,-2.74 2.801,-4.801 0,-2.061 -1.134,-3.836 -2.801,-4.797 1.667,-0.959 2.801,-2.738 2.801,-4.799 0,-2.059 -1.134,-3.838 -2.797,-4.799 1.663,-0.957 2.797,-2.734 2.797,-4.795 0,-2.059 -1.134,-3.838 -2.801,-4.795 1.667,-0.961 2.801,-2.74 2.801,-4.799 0,-2.064 -1.134,-3.838 -2.801,-4.799 1.667,-0.959 2.801,-2.734 2.801,-4.799 0,-2.059 -1.134,-3.836 -2.801,-4.797 1.667,-0.959 2.801,-2.736 2.801,-4.799 0,-2.059 -1.134,-3.836 -2.801,-4.795 1.667,-0.961 2.801,-2.74 2.801,-4.801 0,-2.057 -1.134,-3.834 -2.801,-4.795 1.667,-0.961 2.801,-2.738 2.801,-4.799 0,-2.059 -1.134,-3.836 -2.801,-4.797 1.667,-0.959 2.801,-2.738 2.801,-4.797 0,-2.061 -1.134,-3.838 -2.801,-4.797 1.667,-0.961 2.801,-2.738 2.801,-4.799 0,-2.061 -1.134,-3.838 -2.801,-4.797 1.667,-0.959 2.801,-2.738 2.801,-4.797 0,-2.061 -1.134,-3.838 -2.801,-4.797 1.667,-0.961 2.801,-2.738 2.801,-4.799 0,-2.061 -1.134,-3.838 -2.801,-4.797 1.667,-0.961 2.801,-2.738 2.801,-4.799 0,-2.059 -1.134,-3.838 -2.801,-4.797 1.667,-0.961 2.801,-2.738 2.801,-4.797 0,-2.061 -1.134,-3.84 -2.801,-4.799 1.667,-0.959 2.801,-2.738 2.801,-4.797 0,-2.059 -1.134,-3.838 -2.801,-4.799 1.667,-0.959 2.801,-2.734 2.801,-4.795 0,-2.061 -1.134,-3.838 -2.801,-4.799 1.667,-0.961 2.801,-2.736 2.801,-4.797 0,-2.061 -1.134,-3.838 -2.801,-4.799 1.667,-0.959 2.801,-2.736 2.801,-4.797 0,-2.059 -1.134,-3.836 -2.801,-4.797 1.667,-0.959 2.801,-2.738 2.801,-4.799 0,-2.059 -1.134,-3.836 -2.801,-4.795 1.667,-0.961 2.801,-2.74 2.801,-4.799 0,-2.061 -1.134,-3.838 -2.801,-4.797 1.667,-0.961 2.801,-2.738 2.801,-4.799 0,-2.061 -1.134,-3.838 -2.801,-4.799 1.667,-0.959 2.801,-2.734 2.801,-4.797 0,-2.061 -1.134,-3.836 -2.801,-4.795 1.667,-0.961 2.801,-2.74 2.801,-4.801 0,-2.059 -1.134,-3.834 -2.801,-4.793 1.667,-0.961 2.801,-2.74 2.801,-4.799 0,-2.062 -1.134,-3.838 -2.801,-4.797 1.667,-0.961 2.801,-2.74 2.801,-4.799 0,-2.061 -1.134,-3.84 -2.801,-4.799 1.667,-0.959 2.801,-2.736 2.801,-4.797 0,-2.059 -1.134,-3.84 -2.801,-4.797 1.667,-0.961 2.801,-2.736 2.801,-4.797 0,-2.061 -1.134,-3.84 -2.801,-4.799 1.667,-0.959 2.801,-2.736 2.801,-4.797 0,-2.061 -1.134,-3.838 -2.801,-4.797 1.667,-0.961 2.801,-2.738 2.801,-4.799 0,-2.059 -1.134,-3.836 -2.801,-4.797 1.667,-0.959 2.801,-2.738 2.801,-4.797 0,-2.061 -1.134,-3.839 -2.801,-4.799 1.667,-0.961 2.801,-2.736 2.801,-4.797 0,-2.061 -1.134,-3.837 -2.801,-4.798 1.667,-0.961 2.801,-2.737 2.801,-4.798 0,-2.061 -1.134,-3.836 -2.801,-4.797 1.667,-0.959 2.801,-2.738 2.801,-4.798 0,-2.061 -1.134,-3.837 -2.801,-4.798 1.667,-0.959 2.801,-2.736 2.801,-4.797 0,-2.061 -1.134,-3.838 -2.801,-4.797 1.667,-0.961 2.801,-2.739 2.801,-4.799 0,-2.059 -1.134,-3.837 -2.801,-4.795 1.667,-0.961 2.801,-2.74 2.801,-4.801 0,-2.059 -1.134,-3.836 -2.801,-4.796 1.667,-0.959 2.801,-2.737 2.801,-4.798 0,-2.061 -1.134,-3.838 -2.801,-4.797 1.667,-0.959 2.801,-2.737 2.801,-4.797 0,-2.06 -1.134,-3.84 -2.801,-4.8 1.667,-0.958 2.801,-2.735 2.801,-4.796 0,-2.059 -1.134,-3.839 -2.801,-4.799 1.667,-0.959 2.801,-2.734 2.801,-4.795 0,-2.061 -1.134,-3.838 -2.801,-4.798 1.667,-0.961 2.801,-2.737 2.801,-4.798 0,-2.061 -1.134,-3.838 -2.801,-4.799 1.667,-0.959 2.801,-2.736 2.801,-4.797 0,-2.061 -1.134,-3.838 -2.801,-4.797 1.669,-0.96 2.803,-2.736 2.803,-4.795 z"
   inkscape:connector-curvature="0" />
	</defs>
	<clipPath
   id="SVGID_6_">
		<use
   xlink:href="#SVGID_5_"
   overflow="visible"
   id="use107"
   style="overflow:visible"
   x="0"
   y="0"
   width="595.28003"
   height="841.89001" />
	</clipPath>
	<g
   clip-path="url(#SVGID_6_)"
   id="g109">
		<g
   id="g111">
			<polygon
   points="387.09,204.577 551.432,199.615 552.576,219.961 387.09,208.713 "
   id="polygon113"
   style="fill:#8b5e3c" />
			<polygon
   points="476.229,180.271 536.881,201.564 505.289,203.471 475.197,184.492 "
   id="polygon115"
   style="fill:#8b5e3c" />
			<polygon
   points="429.241,230.337 445.481,211.207 460.117,212.129 433.755,230.342 "
   id="polygon117"
   style="fill:#8b5e3c" />
			<polygon
   points="488.482,176.703 516.255,203.164 497.673,195.657 485.64,176.622 "
   id="polygon119"
   style="fill:#8b5e3c" />
		</g>
		<g
   id="g121">
			<path
   d="m 406.244,276.872 c 0,0 34.875,-16.828 25.087,-45.493 0,0 -27.228,4.375 -25.087,45.493 z"
   id="path123"
   inkscape:connector-curvature="0"
   style="fill:#bfd74f" />
			<path
   d="m 415.935,247.416 6.148,-0.019 c -0.392,0.715 -0.774,1.416 -1.147,2.105 l -8.462,1.106 7.987,-0.232 c -0.236,0.436 -0.465,0.867 -0.694,1.291 l -8.433,2.039 7.924,-1.088 c -0.459,0.869 -0.901,1.702 -1.323,2.503 l -5.573,2.31 5.177,-1.549 c -0.428,0.822 -0.837,1.604 -1.214,2.342 l -2.812,2.107 2.297,-1.109 c -2.094,4.095 -3.312,6.625 -3.312,6.625 1.306,-2.065 2.541,-4.09 3.71,-6.055 l 0.257,2.256 0.255,-3.11 c 0.483,-0.825 0.961,-1.641 1.424,-2.44 l 1.395,4.978 -0.982,-5.696 c 0.493,-0.864 0.975,-1.71 1.441,-2.542 l 3.234,7.116 -2.719,-8.045 c 0.248,-0.449 0.492,-0.893 0.732,-1.328 l 3.996,6.758 -3.521,-7.626 c 0.396,-0.733 0.782,-1.45 1.152,-2.146 l 3.224,5.143 -2.693,-6.138 c 0.395,-0.757 0.773,-1.486 1.138,-2.188 l 3.2,5.345 -2.708,-6.302 c 0.306,-0.603 0.599,-1.178 0.877,-1.733 l 3.182,4.407 -2.659,-5.459 c 0.317,-0.639 0.614,-1.241 0.885,-1.806 l 2.141,3.661 -1.72,-4.512 -0.068,0.122 c 1.341,-2.79 2.047,-4.41 2.047,-4.41 -0.833,1.387 -1.646,2.762 -2.437,4.126 l -4.5,0.904 4.051,-0.137 c -0.334,0.576 -0.664,1.15 -0.993,1.718 l -5.91,0.652 5.347,0.333 c -0.319,0.563 -0.634,1.12 -0.946,1.677 l -6.745,1.068 6.228,-0.145 c -0.402,0.716 -0.794,1.42 -1.18,2.119 l -6.698,1.004 z"
   id="path125"
   inkscape:connector-curvature="0"
   style="fill:#e6e7e8" />
		</g>
		<g
   id="g127">
			<path
   d="m 451.659,245.758 c 0,0 1.869,-21.359 -15.792,-14.31 0,0 -5.962,16.953 15.792,14.31 z"
   id="path129"
   inkscape:connector-curvature="0"
   style="fill:#bfd74f" />
			<path
   d="m 439.459,240.607 1.846,-3.86 c 0.244,0.224 0.49,0.439 0.732,0.653 l -1.984,5.276 2.29,-5.006 c 0.152,0.133 0.305,0.268 0.456,0.396 l -1.496,5.23 1.83,-4.939 c 0.302,0.262 0.602,0.511 0.884,0.753 l -0.494,3.427 0.767,-3.204 c 0.291,0.24 0.571,0.474 0.835,0.688 l 0.233,1.698 0.124,-1.407 c 1.471,1.187 2.402,1.869 2.402,1.869 -0.664,-0.753 -1.332,-1.463 -1.987,-2.139 l 1.235,-0.231 -1.522,-0.061 c -0.278,-0.278 -0.55,-0.549 -0.823,-0.815 l 2.976,-1.034 -3.221,0.796 c -0.295,-0.282 -0.584,-0.557 -0.873,-0.822 l 4.631,-2.256 -4.949,1.958 c -0.156,-0.142 -0.311,-0.278 -0.461,-0.418 l 4.672,-2.721 -4.974,2.452 c -0.257,-0.228 -0.51,-0.443 -0.756,-0.656 l 3.612,-2.184 -3.965,1.885 c -0.268,-0.226 -0.525,-0.441 -0.777,-0.643 l 3.706,-2.183 -4.051,1.9 c -0.219,-0.173 -0.426,-0.336 -0.627,-0.495 l 3.224,-2.138 -3.605,1.843 c -0.232,-0.179 -0.455,-0.345 -0.661,-0.499 l 2.524,-1.459 -2.837,1.225 0.049,0.038 c -1.029,-0.757 -1.649,-1.146 -1.649,-1.146 0.457,0.478 0.92,0.948 1.378,1.401 l -0.886,2.795 1.149,-2.537 c 0.194,0.19 0.39,0.377 0.584,0.564 l -1.447,3.693 1.784,-3.369 c 0.192,0.183 0.383,0.364 0.573,0.543 l -1.486,4.202 1.803,-3.908 c 0.247,0.231 0.493,0.456 0.734,0.673 l -1.502,4.172 z"
   id="path131"
   inkscape:connector-curvature="0"
   style="fill:#e6e7e8" />
		</g>
		<g
   id="g133">
			<path
   d="m 513.249,158.251 c 0,0 -21.834,1.266 -22.904,18.341 0,0 15.157,3.586 22.904,-18.341 z"
   id="path135"
   inkscape:connector-curvature="0"
   style="fill:#bfd74f" />
			<path
   d="m 501.841,171.54 -3.214,-1.316 c 0.358,-0.29 0.709,-0.573 1.052,-0.852 l 4.656,1.246 -4.222,-1.601 c 0.221,-0.177 0.431,-0.353 0.643,-0.525 l 4.842,0.755 -4.371,-1.141 c 0.428,-0.354 0.839,-0.692 1.232,-1.02 l 3.406,-0.003 -3.037,-0.309 c 0.4,-0.337 0.781,-0.658 1.139,-0.961 l 1.924,-0.493 -1.438,0.081 c 1.977,-1.685 3.155,-2.743 3.155,-2.743 -1.125,0.797 -2.207,1.587 -3.242,2.362 l 0.353,-1.235 -0.803,1.572 c -0.431,0.325 -0.854,0.647 -1.268,0.967 l 0.345,-2.901 -0.717,3.186 c -0.443,0.345 -0.878,0.682 -1.3,1.015 l -0.156,-4.412 -0.314,4.786 c -0.227,0.182 -0.451,0.361 -0.67,0.538 l -0.627,-4.392 0.194,4.741 c -0.364,0.298 -0.722,0.59 -1.064,0.871 l -0.573,-3.376 0.083,3.783 c -0.372,0.311 -0.725,0.608 -1.065,0.898 l -0.519,-3.481 0.054,3.874 c -0.291,0.248 -0.565,0.487 -0.833,0.716 l -0.708,-2.987 0.21,3.422 c -0.305,0.265 -0.589,0.516 -0.851,0.753 l -0.329,-2.374 -0.075,2.726 0.062,-0.051 c -1.302,1.171 -2.021,1.864 -2.021,1.864 0.733,-0.543 1.455,-1.088 2.164,-1.627 l 2.543,0.496 -2.145,-0.802 c 0.301,-0.227 0.595,-0.455 0.888,-0.681 l 3.227,0.934 -2.719,-1.327 c 0.289,-0.226 0.573,-0.448 0.856,-0.67 l 3.75,0.895 -3.283,-1.268 c 0.365,-0.286 0.723,-0.57 1.074,-0.85 l 3.712,0.917 z"
   id="path137"
   inkscape:connector-curvature="0"
   style="fill:#e6e7e8" />
		</g>
		<g
   id="g139">
			<path
   d="m 481.324,164.649 c 0,0 -5.579,10.745 5.159,10.875 0,0 6.771,-7.566 -5.159,-10.875 z"
   id="path141"
   inkscape:connector-curvature="0"
   style="fill:#bfd74f" />
			<path
   d="m 486.584,169.969 -1.797,1.616 c -0.078,-0.17 -0.16,-0.336 -0.239,-0.497 l 2.171,-2.33 -2.273,2.122 c -0.05,-0.104 -0.103,-0.206 -0.15,-0.305 l 1.907,-2.408 -2.021,2.184 c -0.104,-0.203 -0.203,-0.398 -0.298,-0.583 l 0.994,-1.684 -1.09,1.507 c -0.101,-0.188 -0.195,-0.37 -0.289,-0.54 l 0.244,-0.937 -0.366,0.707 c -0.514,-0.933 -0.853,-1.493 -0.853,-1.493 0.187,0.538 0.38,1.053 0.576,1.545 l -0.691,-0.145 0.783,0.36 c 0.081,0.203 0.167,0.404 0.251,0.603 l -1.777,-0.102 1.853,0.278 c 0.094,0.211 0.186,0.415 0.28,0.617 l -2.905,0.179 3.006,0.045 c 0.049,0.108 0.103,0.212 0.151,0.317 l -3.028,0.416 3.127,-0.21 c 0.088,0.175 0.171,0.343 0.251,0.505 l -2.353,0.363 2.477,-0.13 c 0.09,0.175 0.178,0.344 0.264,0.505 l -2.402,0.338 2.523,-0.118 c 0.077,0.136 0.148,0.268 0.219,0.393 l -2.141,0.421 2.277,-0.184 c 0.082,0.145 0.163,0.278 0.238,0.403 l -1.636,0.217 1.747,-0.027 -0.014,-0.028 c 0.373,0.617 0.612,0.951 0.612,0.951 -0.135,-0.348 -0.277,-0.693 -0.419,-1.027 l 1.067,-1.267 -1.149,1.075 c -0.06,-0.141 -0.122,-0.281 -0.182,-0.421 l 1.55,-1.616 -1.658,1.375 c -0.059,-0.136 -0.121,-0.272 -0.181,-0.408 l 1.681,-1.871 -1.781,1.651 c -0.083,-0.175 -0.16,-0.344 -0.241,-0.512 l 1.685,-1.85 z"
   id="path143"
   inkscape:connector-curvature="0"
   style="fill:#e6e7e8" />
		</g>
		<g
   id="g145">
			<path
   d="m 375.442,179.703 c 0,0 -4.01,18.88 10.271,23.769 10e-4,-0.001 6.586,-12.066 -10.271,-23.769 z"
   id="path147"
   inkscape:connector-curvature="0"
   style="fill:#bfd74f" />
			<path
   d="m 384.094,192.511 -1.869,2.429 c -0.163,-0.374 -0.325,-0.737 -0.479,-1.093 l 2.145,-3.676 -2.348,3.221 c -0.097,-0.227 -0.197,-0.448 -0.294,-0.667 l 1.771,-3.947 -1.989,3.458 c -0.201,-0.449 -0.396,-0.876 -0.584,-1.288 l 0.793,-2.901 -0.969,2.514 c -0.196,-0.422 -0.379,-0.82 -0.552,-1.192 l 0.025,-1.754 -0.265,1.244 c -0.973,-2.073 -1.6,-3.326 -1.6,-3.326 0.417,1.146 0.837,2.249 1.256,3.311 l -0.969,-0.589 1.151,1.05 c 0.176,0.442 0.351,0.881 0.526,1.308 l -2.389,-0.971 2.543,1.349 c 0.19,0.459 0.377,0.908 0.563,1.347 l -3.792,-0.898 3.999,1.384 c 0.101,0.235 0.202,0.465 0.302,0.695 l -3.885,-0.489 4.082,0.94 c 0.167,0.379 0.332,0.75 0.492,1.109 l -3.008,-0.297 3.237,0.809 c 0.18,0.389 0.353,0.759 0.518,1.118 l -3.083,-0.372 3.309,0.857 c 0.146,0.304 0.282,0.595 0.417,0.875 l -2.706,-0.092 2.963,0.619 c 0.152,0.32 0.3,0.619 0.439,0.899 l -2.095,-0.273 2.3,0.696 -0.026,-0.064 c 0.692,1.383 1.113,2.153 1.113,2.153 -0.289,-0.751 -0.586,-1.491 -0.882,-2.218 l 1.017,-2.051 -1.184,1.638 c -0.124,-0.309 -0.25,-0.613 -0.372,-0.915 l 1.548,-2.529 -1.765,2.006 c -0.126,-0.297 -0.246,-0.593 -0.372,-0.884 l 1.638,-2.985 -1.844,2.497 c -0.156,-0.373 -0.316,-0.744 -0.473,-1.108 l 1.647,-2.947 z"
   id="path149"
   inkscape:connector-curvature="0"
   style="fill:#e6e7e8" />
		</g>
		<g
   id="g151">
			<path
   d="m 374.316,211.179 c 0,0 10.32,6.327 11.213,-4.376 0,0 -7.066,-7.285 -11.213,4.376 z"
   id="path153"
   inkscape:connector-curvature="0"
   style="fill:#bfd74f" />
			<path
   d="m 379.994,206.31 1.483,1.904 c -0.172,0.069 -0.347,0.141 -0.512,0.208 l -2.167,-2.333 1.949,2.418 c -0.102,0.043 -0.209,0.089 -0.312,0.133 l -2.265,-2.076 2.036,2.169 c -0.212,0.087 -0.411,0.173 -0.605,0.258 l -1.606,-1.116 1.424,1.197 c -0.194,0.087 -0.383,0.168 -0.557,0.249 l -0.92,-0.31 0.683,0.415 c -0.972,0.446 -1.55,0.745 -1.55,0.745 0.548,-0.146 1.074,-0.302 1.58,-0.464 l -0.193,0.68 0.414,-0.753 c 0.211,-0.07 0.415,-0.14 0.622,-0.211 l -0.23,1.765 0.411,-1.828 c 0.218,-0.078 0.424,-0.155 0.633,-0.233 l -0.023,2.91 0.257,-2.996 c 0.109,-0.043 0.217,-0.089 0.327,-0.129 l 0.197,3.049 0.014,-3.134 c 0.18,-0.074 0.354,-0.144 0.523,-0.216 l 0.193,2.376 0.045,-2.48 c 0.18,-0.078 0.357,-0.152 0.522,-0.231 l 0.165,2.424 0.064,-2.527 c 0.141,-0.063 0.277,-0.129 0.406,-0.191 l 0.27,2.168 -0.021,-2.285 c 0.147,-0.073 0.289,-0.145 0.418,-0.209 l 0.101,1.646 0.094,-1.742 -0.028,0.012 c 0.641,-0.33 0.994,-0.546 0.994,-0.546 -0.357,0.112 -0.711,0.229 -1.056,0.346 l -1.188,-1.155 0.991,1.222 c -0.144,0.053 -0.289,0.104 -0.435,0.153 l -1.5,-1.661 1.256,1.75 c -0.145,0.051 -0.282,0.103 -0.421,0.153 l -1.749,-1.81 1.521,1.896 c -0.18,0.066 -0.354,0.136 -0.526,0.201 l -1.729,-1.811 z"
   id="path155"
   inkscape:connector-curvature="0"
   style="fill:#e6e7e8" />
		</g>
		<g
   id="g157">
			<path
   d="m 441.484,173.126 c 0,-8.262 -5.964,-15.119 -13.816,-16.535 0.422,-2.328 1.169,-6.853 0.833,-8.247 -0.317,-1.333 -0.974,-2.48 -2.203,-2.187 -1.29,0.311 -1.406,1.124 -1.406,1.124 0,0 -0.419,-1.731 -2.479,-1.234 -2.062,0.494 -3.067,3.135 -2.198,6.761 0.316,1.312 0.826,2.636 1.344,3.798 -7.803,1.459 -13.711,8.296 -13.711,16.52 0,5.856 2.999,11.008 7.537,14.021 -0.428,1.109 -0.672,2.31 -0.672,3.569 0,4.999 3.692,9.125 8.498,9.829 v 2.73 h 0.851 v -2.642 c 0.198,0.011 0.396,0.031 0.601,0.031 0.201,0 0.4,-0.02 0.602,-0.031 v 2.642 h 0.849 v -2.73 c 4.802,-0.703 8.494,-4.83 8.494,-9.829 0,-1.259 -0.242,-2.456 -0.668,-3.564 4.543,-3.012 7.544,-8.164 7.544,-14.026 z"
   id="path159"
   inkscape:connector-curvature="0"
   style="fill:#bc6a72" />
			<polygon
   points="430.471,179.304 424.669,187.451 418.865,179.304 424.669,173.501 "
   id="polygon161"
   style="fill:#f7941e" />
			<g
   id="g163">
				<g
   id="g165">
					<path
   d="m 439.507,171.331 c 0,4.176 -2.524,7.561 -5.64,7.561 -3.11,0 -5.636,-3.385 -5.636,-7.561 0,-4.176 2.525,-7.561 5.636,-7.561 3.115,0 5.64,3.385 5.64,7.561 z"
   id="path167"
   inkscape:connector-curvature="0"
   style="fill:#ffffff" />
					<ellipse
   cx="433.86899"
   cy="171.33099"
   rx="2.2809999"
   ry="3.059"
   id="ellipse169"
   sodipodi:cx="433.86899"
   sodipodi:cy="171.33099"
   sodipodi:rx="2.2809999"
   sodipodi:ry="3.059"
   d="m 436.14999,171.33099 c 0,1.68944 -1.02124,3.059 -2.281,3.059 -1.25976,0 -2.281,-1.36956 -2.281,-3.059 0,-1.68944 1.02124,-3.059 2.281,-3.059 1.25976,0 2.281,1.36956 2.281,3.059 z" />
					<circle
   cx="433.86899"
   cy="169.423"
   r="0.63700002"
   id="circle171"
   sodipodi:cx="433.86899"
   sodipodi:cy="169.423"
   sodipodi:rx="0.63700002"
   sodipodi:ry="0.63700002"
   style="fill:#ffffff"
   d="m 434.50599,169.423 c 0,0.35181 -0.2852,0.637 -0.637,0.637 -0.35181,0 -0.637,-0.28519 -0.637,-0.637 0,-0.3518 0.28519,-0.637 0.637,-0.637 0.3518,0 0.637,0.2852 0.637,0.637 z" />
				</g>
				<g
   id="g173">
					<path
   d="m 421.101,171.331 c 0,4.176 -2.522,7.561 -5.635,7.561 -3.116,0 -5.639,-3.385 -5.639,-7.561 0,-4.176 2.522,-7.561 5.639,-7.561 3.112,0 5.635,3.385 5.635,7.561 z"
   id="path175"
   inkscape:connector-curvature="0"
   style="fill:#ffffff" />
					<ellipse
   cx="415.46399"
   cy="171.33099"
   rx="2.28"
   ry="3.059"
   id="ellipse177"
   sodipodi:cx="415.46399"
   sodipodi:cy="171.33099"
   sodipodi:rx="2.28"
   sodipodi:ry="3.059"
   d="m 417.74399,171.33099 c 0,1.68944 -1.02079,3.059 -2.28,3.059 -1.25921,0 -2.28,-1.36956 -2.28,-3.059 0,-1.68944 1.02079,-3.059 2.28,-3.059 1.25921,0 2.28,1.36956 2.28,3.059 z" />
					<circle
   cx="415.46399"
   cy="169.423"
   r="0.63800001"
   id="circle179"
   sodipodi:cx="415.46399"
   sodipodi:cy="169.423"
   sodipodi:rx="0.63800001"
   sodipodi:ry="0.63800001"
   style="fill:#ffffff"
   d="m 416.10199,169.423 c 0,0.35236 -0.28564,0.638 -0.638,0.638 -0.35236,0 -0.638,-0.28564 -0.638,-0.638 0,-0.35235 0.28564,-0.638 0.638,-0.638 0.35236,0 0.638,0.28565 0.638,0.638 z" />
				</g>
			</g>
		</g>
	</g>
</g>










</svg>