<?xml version="1.0" encoding="utf-8"?>
<!-- Generator: Adobe Illustrator 15.0.2, SVG Export Plug-In . SVG Version: 6.00 Build 0)  -->
<!DOCTYPE svg PUBLIC "-//W3C//DTD SVG 1.0//EN" "http://www.w3.org/TR/2001/REC-SVG-20010904/DTD/svg10.dtd">
<svg version="1.0" id="Layer_1" xmlns="http://www.w3.org/2000/svg" xmlns:xlink="http://www.w3.org/1999/xlink" x="0px" y="0px"
	 width="417.333px" height="612.243px" viewBox="0 0 417.333 612.243" enable-background="new 0 0 417.333 612.243"
	 xml:space="preserve">
<g>
	<defs>
		<path id="SVGID_1_" d="M413.568,16.001c0-1.754-0.963-3.266-2.382-4.083c1.419-0.817,2.382-2.33,2.382-4.082
			c0-2.612-2.116-4.729-4.727-4.729c-1.729,0-3.224,0.936-4.051,2.32c-0.817-1.409-2.326-2.369-4.073-2.369
			c-1.751,0-3.264,0.965-4.082,2.381c-0.814-1.416-2.33-2.381-4.083-2.381c-1.75,0-3.263,0.965-4.081,2.381
			c-0.817-1.416-2.328-2.381-4.083-2.381c-1.753,0-3.266,0.965-4.081,2.383c-0.817-1.418-2.331-2.383-4.081-2.383
			c-1.755,0-3.264,0.965-4.083,2.381c-0.815-1.416-2.331-2.381-4.084-2.381c-1.752,0-3.264,0.965-4.078,2.381
			c-0.818-1.416-2.333-2.381-4.086-2.381c-0.67,0-1.304,0.143-1.877,0.397c-0.94,0.382-1.723,1.058-2.249,1.913
			c-0.829-1.376-2.313-2.31-4.038-2.31c-0.012,0-0.026,0.002-0.038,0.002c-0.014,0-0.025-0.002-0.04-0.002
			c-1.727,0-3.214,0.939-4.041,2.322c-0.827-1.383-2.318-2.322-4.041-2.322c-0.014,0-0.028,0.002-0.042,0.002
			c-0.012,0-0.026-0.002-0.04-0.002c-1.725,0-3.217,0.939-4.041,2.322c-0.825-1.383-2.319-2.322-4.041-2.322
			c-0.015,0-0.028,0.002-0.042,0.002c-0.012,0-0.026-0.002-0.038-0.002c-1.729,0-3.221,0.939-4.046,2.323
			c-0.822-1.383-2.314-2.323-4.043-2.323c-0.012,0-0.026,0.002-0.038,0.002c-0.014,0-0.025-0.002-0.037-0.002
			c-1.729,0-3.214,0.939-4.044,2.322c-0.824-1.383-2.316-2.322-4.043-2.322c-0.015,0-0.028,0.002-0.04,0.002
			c-0.014,0-0.026-0.002-0.04-0.002c-1.729,0-3.217,0.939-4.041,2.323c-0.822-1.384-2.314-2.323-4.043-2.323
			c-0.015,0-0.028,0.002-0.043,0.002c-0.012,0-0.023-0.002-0.037-0.002c-1.728,0-3.219,0.939-4.041,2.323
			c-0.822-1.384-2.314-2.323-4.039-2.323c-0.017,0-0.03,0.002-0.042,0.002c-0.015,0-0.028-0.002-0.04-0.002
			c-1.727,0-3.222,0.939-4.046,2.323c-0.822-1.384-2.314-2.323-4.046-2.323c-0.012,0-0.023,0.002-0.035,0.002
			c-0.014,0-0.028-0.002-0.04-0.002c-1.729,0-3.224,0.94-4.043,2.324c-0.825-1.384-2.316-2.324-4.041-2.324
			c-0.015,0-0.028,0.002-0.04,0.002c-0.015,0-0.028-0.002-0.043-0.002c-1.724,0-3.214,0.939-4.041,2.322
			c-0.824-1.383-2.313-2.322-4.043-2.322c-0.015,0-0.028,0.002-0.042,0.002c-0.012,0-0.023-0.002-0.038-0.002
			c-1.725,0-3.219,0.939-4.041,2.323c-0.824-1.384-2.314-2.323-4.043-2.323c-0.015,0-0.028,0.002-0.043,0.002
			c-0.012,0-0.023-0.002-0.035-0.002c-1.727,0-3.219,0.939-4.043,2.322c-0.825-1.383-2.316-2.322-4.041-2.322
			c-0.015,0-0.026,0.002-0.04,0.002c-0.015,0-0.028-0.002-0.04-0.002c-1.725,0-3.217,0.939-4.044,2.322
			c-0.824-1.383-2.313-2.322-4.041-2.322c-0.014,0-0.027,0.002-0.039,0.002s-0.024-0.002-0.038-0.002
			c-1.729,0-3.219,0.939-4.046,2.323c-0.824-1.384-2.312-2.323-4.041-2.323c-0.014,0-0.028,0.002-0.04,0.002
			c-0.014,0-0.025-0.002-0.04-0.002c-1.727,0-3.216,0.939-4.043,2.323c-0.824-1.384-2.312-2.323-4.041-2.323
			c-0.014,0-0.025,0.002-0.039,0.002c-0.015,0-0.024-0.002-0.038-0.002c-1.729,0-3.221,0.939-4.046,2.322
			c-0.824-1.383-2.312-2.322-4.041-2.322c-0.014,0-0.025,0.002-0.04,0.002c-0.014,0-0.028-0.002-0.04-0.002
			c-1.727,0-3.216,0.939-4.038,2.323c-0.827-1.384-2.317-2.323-4.046-2.323c-0.015,0-0.026,0.002-0.04,0.002
			c-0.015,0-0.028-0.002-0.04-0.002c-1.727,0-3.217,0.939-4.039,2.323c-0.826-1.384-2.316-2.323-4.043-2.323
			c-0.012,0-0.026,0.002-0.04,0.002s-0.025-0.002-0.04-0.002c-1.729,0-3.219,0.939-4.046,2.322
			c-0.824-1.383-2.313-2.322-4.041-2.322c-0.012,0-0.025,0.002-0.04,0.002c-0.014,0-0.023-0.002-0.037-0.002
			c-1.729,0-3.218,0.939-4.04,2.324c-0.827-1.385-2.317-2.324-4.043-2.324c-0.014,0-0.026,0.002-0.04,0.002
			c-0.012,0-0.026-0.002-0.04-0.002c-1.727,0-3.216,0.939-4.041,2.322c-0.827-1.383-2.316-2.322-4.041-2.322
			c-0.014,0-0.028,0.002-0.042,0.002c-0.012,0-0.026-0.002-0.04-0.002c-1.727,0-3.219,0.939-4.043,2.323
			c-0.825-1.384-2.314-2.323-4.042-2.323c-0.013,0-0.025,0.002-0.039,0.002c-0.013,0-0.026-0.002-0.04-0.002
			c-1.725,0-3.218,0.939-4.042,2.323c-0.822-1.383-2.316-2.323-4.042-2.323c-0.013,0-0.026,0.002-0.04,0.002
			s-0.027-0.002-0.041-0.002c-1.726,0-3.219,0.939-4.042,2.323c-0.823-1.384-2.313-2.323-4.042-2.323
			c-0.014,0-0.027,0.002-0.041,0.002c-0.014,0-0.023-0.002-0.037-0.002c-1.729,0-3.222,0.939-4.045,2.322
			c-0.825-1.383-2.316-2.322-4.041-2.322c-0.013,0-0.027,0.002-0.041,0.002c-0.013,0-0.027-0.002-0.041-0.002
			c-1.726,0-3.216,0.939-4.042,2.323c-0.826-1.383-2.313-2.323-4.042-2.323c-0.013,0-0.027,0.002-0.041,0.002
			c-0.013,0-0.023-0.002-0.037-0.002c-1.729,0-3.22,0.939-4.042,2.322c-0.825-1.383-2.318-2.322-4.044-2.322
			c-0.014,0-0.027,0.002-0.041,0.002s-0.024-0.002-0.038-0.002c-1.729,0-3.219,0.939-4.042,2.322
			c-0.826-1.383-2.316-2.322-4.042-2.322c-0.017,0-0.026,0.002-0.042,0.002c-0.014,0-0.027-0.002-0.041-0.002
			c-1.724,0-3.217,0.939-4.042,2.323c-0.823-1.384-2.313-2.323-4.042-2.323c-0.014,0-0.025,0.002-0.038,0.002
			c-0.014,0-0.027-0.002-0.04-0.002c-1.729,0-3.217,0.939-4.042,2.322c-0.826-1.383-2.318-2.322-4.045-2.322
			c-0.012,0-0.026,0.002-0.04,0.002c-0.013,0-0.024-0.002-0.038-0.002c-1.727,0-3.219,0.939-4.042,2.322
			c-0.828-1.383-2.316-2.322-4.042-2.322c-0.014,0-0.027,0.002-0.041,0.002s-0.027-0.002-0.04-0.002
			c-1.729,0-3.217,0.939-4.042,2.322c-0.825-1.383-2.315-2.322-4.042-2.322c-0.014,0-0.027,0.002-0.041,0.002
			s-0.026-0.002-0.04-0.002c-1.729,0-3.219,0.939-4.042,2.323c-0.825-1.384-2.316-2.323-4.045-2.323
			c-0.013,0-0.027,0.002-0.04,0.002c-0.014,0-0.024-0.002-0.038-0.002c-1.729,0-3.22,0.94-4.042,2.324
			c-0.825-1.384-2.315-2.324-4.042-2.324c-0.014,0-0.026,0.002-0.04,0.002s-0.025-0.002-0.038-0.002
			c-1.728,0-3.219,0.939-4.044,2.323c-0.823-1.384-2.316-2.323-4.042-2.323c-0.013,0-0.027,0.002-0.041,0.002
			c-0.013,0-0.027-0.002-0.041-0.002c-1.726,0-3.219,0.939-4.041,2.323c-0.826-1.384-2.316-2.323-4.042-2.323
			c-0.014,0-0.027,0.002-0.04,0.002c-0.014,0-0.027-0.002-0.041-0.002c-1.753,0-3.262,0.965-4.08,2.381
			c-0.82-1.416-2.329-2.381-4.082-2.381c-1.621,0-3.028,0.831-3.878,2.074c-0.032,0.046-0.064,0.094-0.093,0.142
			c-0.035,0.057-0.078,0.108-0.11,0.167c-0.818-1.417-2.329-2.382-4.082-2.382c-1.756,0-3.268,0.965-4.083,2.382
			c-0.817-1.417-2.329-2.382-4.085-2.382c-1.75,0-3.265,0.965-4.082,2.381c-0.816-1.416-2.327-2.381-4.081-2.381
			c-1.754,0-3.266,0.965-4.083,2.382c-0.814-1.417-2.329-2.382-4.08-2.382c-1.756,0-3.266,0.965-4.084,2.382
			c-0.817-1.417-2.329-2.382-4.082-2.382c-1.792,0-3.334,1.011-4.137,2.484c-0.81-1.445-2.338-2.435-4.11-2.435
			c-2.613,0-4.729,2.118-4.729,4.729c0,1.751,0.965,3.264,2.382,4.082c-1.417,0.816-2.382,2.329-2.382,4.083
			c0,1.753,0.965,3.264,2.382,4.082c-1.417,0.816-2.382,2.329-2.382,4.083c0,1.752,0.965,3.265,2.382,4.08
			c-1.417,0.818-2.382,2.331-2.382,4.084c0,1.753,0.965,3.265,2.382,4.082c-1.417,0.817-2.382,2.329-2.382,4.083
			c0,1.752,0.965,3.265,2.382,4.08c-1.417,0.818-2.382,2.332-2.382,4.083s0.965,3.266,2.382,4.081
			c-1.417,0.817-2.382,2.33-2.382,4.083c0,1.752,0.965,3.266,2.382,4.082c-1.417,0.816-2.382,2.329-2.382,4.082
			c0,1.753,0.965,3.266,2.382,4.083c-1.417,0.816-2.382,2.329-2.382,4.082c0,1.752,0.965,3.267,2.382,4.083
			c-1.417,0.815-2.382,2.329-2.382,4.081c0,1.753,0.965,3.266,2.382,4.083c-1.417,0.815-2.382,2.328-2.382,4.08
			c0,1.754,0.965,3.266,2.382,4.083c-1.417,0.816-2.382,2.328-2.382,4.082c0,1.754,0.965,3.266,2.382,4.083
			c-1.417,0.817-2.382,2.329-2.382,4.083c0,1.752,0.965,3.264,2.382,4.082c-1.417,0.817-2.382,2.328-2.382,4.083
			c0,1.753,0.965,3.264,2.382,4.081c-1.417,0.817-2.382,2.33-2.382,4.083c0,1.754,0.965,3.267,2.382,4.083
			c-1.417,0.816-2.382,2.328-2.382,4.083c0,1.752,0.965,3.264,2.382,4.081c-1.417,0.817-2.382,2.331-2.382,4.083
			c0,1.753,0.965,3.266,2.382,4.081c-1.417,0.816-2.382,2.329-2.382,4.083c0,1.752,0.965,3.265,2.382,4.081
			c-1.417,0.816-2.382,2.33-2.382,4.081c0,1.754,0.965,3.268,2.382,4.082c-1.417,0.818-2.382,2.33-2.382,4.083
			c0,1.752,0.965,3.266,2.382,4.084c-1.417,0.814-2.382,2.326-2.382,4.081c0,1.751,0.965,3.266,2.382,4.083
			c-1.417,0.815-2.382,2.327-2.382,4.08c0,1.752,0.965,3.268,2.382,4.085c-1.417,0.814-2.382,2.326-2.382,4.079
			s0.965,3.265,2.382,4.083c-1.417,0.817-2.382,2.329-2.382,4.082c0,1.753,0.965,3.265,2.382,4.082
			c-1.417,0.818-2.382,2.33-2.382,4.083c0,1.752,0.965,3.264,2.382,4.082c-1.417,0.817-2.382,2.328-2.382,4.082
			s0.965,3.265,2.382,4.082c-1.417,0.818-2.382,2.33-2.382,4.083c0,1.752,0.965,3.265,2.382,4.082
			c-1.417,0.814-2.382,2.329-2.382,4.082s0.965,3.265,2.382,4.083c-1.417,0.817-2.382,2.329-2.382,4.082
			c0,1.753,0.965,3.265,2.382,4.08c-1.417,0.818-2.382,2.332-2.382,4.085c0,1.75,0.965,3.264,2.382,4.079
			c-1.417,0.817-2.382,2.331-2.382,4.084c0,1.751,0.965,3.265,2.382,4.08c-1.417,0.818-2.382,2.332-2.382,4.082
			c0,1.753,0.965,3.267,2.382,4.085c-1.417,0.814-2.382,2.327-2.382,4.08c0,1.752,0.965,3.267,2.382,4.084
			c-1.417,0.815-2.382,2.327-2.382,4.08s0.965,3.268,2.382,4.082c-1.417,0.818-2.382,2.33-2.382,4.082
			c0,1.753,0.965,3.265,2.382,4.083c-1.417,0.817-2.382,2.329-2.382,4.082s0.965,3.268,2.382,4.082
			c-1.417,0.818-2.382,2.33-2.382,4.083c0,1.752,0.965,3.263,2.382,4.082c-1.417,0.817-2.382,2.328-2.382,4.079
			c0,1.757,0.965,3.268,2.382,4.085c-1.417,0.818-2.382,2.329-2.382,4.081c0,1.753,0.965,3.266,2.382,4.083
			c-1.417,0.817-2.382,2.328-2.382,4.081c0,1.757,0.965,3.266,2.382,4.083c-1.417,0.817-2.382,2.326-2.382,4.083
			c0,1.75,0.965,3.266,2.381,4.083c-1.417,0.813-2.381,2.326-2.381,4.081c0,1.753,0.965,3.263,2.381,4.079
			c-1.417,0.818-2.381,2.331-2.381,4.081c0,1.757,0.965,3.268,2.382,4.085c-1.417,0.819-2.382,2.329-2.382,4.082
			c0,1.755,0.965,3.269,2.382,4.084c-1.417,0.817-2.382,2.328-2.382,4.083c0,1.75,0.965,3.264,2.382,4.081
			c-1.417,0.815-2.382,2.328-2.382,4.083c0,1.753,0.965,3.264,2.382,4.081c-1.417,0.815-2.382,2.326-2.382,4.079
			c0,1.752,0.965,3.268,2.382,4.081c-1.417,0.819-2.382,2.33-2.382,4.085c0,1.751,0.965,3.266,2.381,4.084
			c-1.417,0.817-2.381,2.328-2.381,4.078c0,1.753,0.965,3.269,2.381,4.086c-1.417,0.812-2.381,2.326-2.381,4.079
			c0,1.755,0.965,3.268,2.382,4.083c-1.417,0.815-2.382,2.328-2.382,4.081s0.965,3.266,2.382,4.081
			c-1.417,0.819-2.382,2.33-2.382,4.083s0.965,3.264,2.382,4.084c-1.417,0.814-2.382,2.328-2.382,4.081
			c0,1.752,0.965,3.263,2.382,4.083c-1.417,0.815-2.382,2.33-2.382,4.078c0,1.756,0.965,3.271,2.382,4.084
			c-1.417,0.815-2.382,2.33-2.382,4.083s0.965,3.269,2.382,4.081c-1.417,0.82-2.382,2.331-2.382,4.083
			c0,1.753,0.965,3.264,2.382,4.081c-1.417,0.818-2.382,2.331-2.382,4.084c0,1.752,0.965,3.263,2.382,4.081
			c-1.417,0.814-2.382,2.328-2.382,4.083c0,1.75,0.965,3.264,2.382,4.081c-1.417,0.817-2.382,2.331-2.382,4.081
			c0,1.755,0.965,3.266,2.382,4.083c-1.417,0.818-2.382,2.328-2.382,4.081c0,1.751,0.965,3.266,2.382,4.084
			c-1.417,0.814-2.382,2.328-2.382,4.081c0,1.755,0.965,3.266,2.382,4.083c-1.417,0.817-2.382,2.328-2.382,4.078
			c0,1.758,0.965,3.267,2.382,4.084c-1.417,0.817-2.382,2.33-2.382,4.081c0,1.752,0.965,3.268,2.382,4.083
			c-1.417,0.817-2.382,2.328-2.382,4.081c0,1.755,0.965,3.266,2.381,4.083c-1.417,0.818-2.381,2.329-2.381,4.081
			c0,1.753,0.965,3.266,2.382,4.084c-1.417,0.817-2.382,2.33-2.382,4.078c0,1.758,0.965,3.269,2.382,4.086
			c-1.417,0.817-2.382,2.328-2.382,4.081c0,1.757,0.965,3.266,2.382,4.083c-1.417,0.818-2.382,2.328-2.382,4.081
			s0.965,3.264,2.382,4.084c-1.417,0.817-2.382,2.328-2.382,4.081c0,1.752,0.965,3.268,2.382,4.083
			c-1.417,0.815-2.382,2.328-2.382,4.081s0.965,3.266,2.382,4.081c-1.417,0.819-2.382,2.33-2.382,4.081
			c0,1.755,0.965,3.268,2.382,4.086c-1.417,0.812-2.382,2.328-2.382,4.08c0,1.753,0.965,3.264,2.381,4.084
			c-1.417,0.815-2.381,2.328-2.381,4.081c0,1.75,0.965,3.266,2.382,4.083c-1.417,0.812-2.382,2.326-2.382,4.079
			c0,0.023,0.006,0.044,0.006,0.065c0,0.023-0.006,0.042-0.006,0.065c0,2.61,2.116,4.728,4.729,4.728
			c1.792,0,3.335-1.011,4.136-2.483c0.811,1.447,2.337,2.434,4.111,2.434c1.753,0,3.265-0.963,4.081-2.377
			c0.818,1.414,2.33,2.377,4.083,2.377c1.753,0,3.266-0.963,4.082-2.377c0.816,1.414,2.329,2.377,4.083,2.377
			c1.751,0,3.264-0.963,4.081-2.377c0.817,1.414,2.331,2.377,4.082,2.377c1.753,0,3.268-0.963,4.082-2.377
			c0.818,1.414,2.33,2.377,4.083,2.377c1.743,0,3.246-0.953,4.066-2.352c0.814,1.427,2.332,2.401,4.095,2.401
			c1.764,0,3.284-0.979,4.094-2.418c0.82,1.407,2.326,2.368,4.073,2.368c0.013,0,0.027-0.002,0.041-0.002
			c0.013,0,0.026,0.002,0.04,0.002c1.726,0,3.216-0.939,4.042-2.321c0.822,1.382,2.312,2.321,4.041,2.321
			c0.014,0,0.027-0.002,0.041-0.002c0.014,0,0.027,0.002,0.041,0.002c1.726,0,3.217-0.939,4.039-2.318
			c0.826,1.379,2.319,2.318,4.044,2.318c0.014,0,0.027-0.002,0.041-0.002s0.026,0.002,0.04,0.002c1.726,0,3.216-0.939,4.042-2.321
			c0.826,1.382,2.316,2.321,4.04,2.321c0.013,0,0.026-0.002,0.04-0.002c0.013,0,0.026,0.002,0.04,0.002
			c1.729,0,3.22-0.939,4.045-2.321c0.823,1.382,2.312,2.321,4.042,2.321c0.014,0,0.024-0.002,0.038-0.002
			c0.014,0,0.027,0.002,0.041,0.002c1.729,0,3.219-0.939,4.044-2.318c0.825,1.382,2.316,2.318,4.042,2.318
			c0.013,0,0.027-0.002,0.04-0.002s0.027,0.002,0.041,0.002c1.726,0,3.213-0.939,4.039-2.318c0.826,1.379,2.316,2.318,4.045,2.318
			c0.013,0,0.024-0.002,0.038-0.002c0.014,0,0.027,0.002,0.04,0.002c1.727,0,3.217-0.939,4.043-2.318
			c0.825,1.379,2.316,2.318,4.044,2.318c0.013,0,0.023-0.002,0.037-0.002c0.013,0,0.027,0.002,0.041,0.002
			c1.729,0,3.219-0.939,4.042-2.318c0.826,1.379,2.318,2.318,4.042,2.318c0.013,0,0.027-0.002,0.041-0.002
			c0.013,0,0.025,0.002,0.039,0.002c1.729,0,3.216-0.939,4.042-2.318c0.823,1.379,2.315,2.318,4.042,2.318
			c0.014,0,0.027-0.002,0.041-0.002s0.024,0.002,0.038,0.002c1.729,0,3.219-0.939,4.044-2.318c0.825,1.379,2.316,2.318,4.045,2.318
			c0.013,0,0.023-0.002,0.037-0.002c0.014,0,0.027,0.002,0.041,0.002c1.729,0,3.217-0.939,4.04-2.321
			c0.826,1.382,2.316,2.321,4.044,2.321c0.014,0,0.027-0.002,0.041-0.002c0.014,0,0.027,0.002,0.041,0.002
			c1.725,0,3.216-0.939,4.041-2.318c0.823,1.379,2.317,2.318,4.042,2.318c0.014,0,0.026-0.002,0.04-0.002
			c0.013,0,0.027,0.002,0.041,0.002c1.726,0,3.216-0.939,4.042-2.318c0.823,1.379,2.316,2.318,4.042,2.318
			c0.014,0,0.027-0.002,0.041-0.002s0.027,0.002,0.04,0.002c1.726,0,3.22-0.939,4.042-2.321c0.824,1.382,2.312,2.321,4.042,2.321
			c0.014,0,0.024-0.002,0.038-0.002c0.014,0,0.028,0.002,0.041,0.002c1.728,0,3.218-0.939,4.042-2.318
			c0.824,1.379,2.314,2.318,4.043,2.318c0.014,0,0.028-0.002,0.04-0.002c0.014,0,0.023,0.002,0.038,0.002
			c1.729,0,3.219-0.939,4.046-2.318c0.825,1.379,2.312,2.318,4.041,2.318c0.014,0,0.028-0.002,0.04-0.002
			c0.014,0,0.026,0.002,0.04,0.002c1.727,0,3.216-0.939,4.043-2.321c0.822,1.382,2.312,2.321,4.04,2.321
			c0.014,0,0.023-0.002,0.037-0.002c0.015,0,0.028,0.002,0.04,0.002c1.728,0,3.217-0.939,4.041-2.318
			c0.827,1.379,2.316,2.318,4.046,2.318c0.015,0,0.023-0.002,0.038-0.002c0.014,0,0.027,0.002,0.04,0.002
			c1.729,0,3.219-0.939,4.045-2.321c0.822,1.382,2.312,2.321,4.039,2.321c0.012,0,0.025-0.002,0.04-0.002
			c0.014,0,0.025,0.002,0.04,0.002c1.729,0,3.219-0.939,4.043-2.321c0.822,1.382,2.314,2.321,4.041,2.321
			c0.012,0,0.026-0.002,0.04-0.002c0.015,0,0.026,0.002,0.04,0.002c1.727,0,3.217-0.939,4.041-2.318
			c0.825,1.379,2.316,2.318,4.046,2.318c0.014,0,0.023-0.002,0.038-0.002c0.014,0,0.025,0.002,0.039,0.002
			c1.728,0,3.217-0.939,4.041-2.318c0.827,1.379,2.316,2.318,4.043,2.318c0.015,0,0.026-0.002,0.04-0.002
			c0.012,0,0.026,0.002,0.04,0.002c1.727,0,3.217-0.939,4.041-2.318c0.827,1.379,2.316,2.318,4.046,2.318
			c0.014,0,0.023-0.002,0.038-0.002c0.012,0,0.025,0.002,0.039,0.002c1.728,0,3.217-0.939,4.041-2.318
			c0.827,1.379,2.319,2.318,4.044,2.318c0.012,0,0.025-0.002,0.04-0.002c0.014,0,0.025,0.002,0.04,0.002
			c1.725,0,3.216-0.939,4.041-2.318c0.824,1.379,2.316,2.318,4.043,2.318c0.012,0,0.023-0.002,0.035-0.002
			c0.015,0,0.028,0.002,0.043,0.002c1.729,0,3.219-0.939,4.043-2.318c0.822,1.379,2.314,2.318,4.041,2.318
			c0.015,0,0.026-0.002,0.038-0.002c0.014,0,0.027,0.002,0.042,0.002c1.729,0,3.219-0.939,4.043-2.318
			c0.827,1.379,2.317,2.318,4.041,2.318c0.015,0,0.028-0.002,0.043-0.002c0.012,0,0.025,0.002,0.04,0.002
			c1.725,0,3.216-0.939,4.041-2.321c0.822,1.382,2.316,2.321,4.043,2.321c0.012,0,0.026-0.002,0.04-0.002
			c0.012,0,0.023,0.002,0.035,0.002c1.731,0,3.224-0.939,4.046-2.318c0.824,1.379,2.319,2.318,4.046,2.318
			c0.012,0,0.025-0.002,0.04-0.002c0.012,0,0.025,0.002,0.04,0.002c1.727,0,3.216-0.939,4.041-2.321
			c0.822,1.382,2.313,2.321,4.041,2.321c0.014,0,0.025-0.002,0.037-0.002c0.015,0,0.028,0.002,0.043,0.002
			c1.729,0,3.219-0.939,4.043-2.321c0.824,1.382,2.312,2.321,4.041,2.321c0.014,0,0.026-0.002,0.04-0.002
			c0.012,0,0.025,0.002,0.04,0.002c1.727,0,3.219-0.939,4.043-2.318c0.825,1.379,2.314,2.318,4.044,2.318
			c0.012,0,0.023-0.002,0.037-0.002c0.012,0,0.026,0.002,0.038,0.002c1.729,0,3.221-0.939,4.043-2.321
			c0.825,1.382,2.316,2.321,4.046,2.321c0.012,0,0.023-0.002,0.035-0.002c0.015,0,0.028,0.002,0.04,0.002
			c1.727,0,3.221-0.939,4.046-2.318c0.824,1.379,2.314,2.318,4.041,2.318c0.014,0,0.025-0.002,0.037-0.002
			c0.015,0,0.028,0.002,0.043,0.002c1.725,0,3.216-0.939,4.041-2.321c0.824,1.382,2.314,2.321,4.043,2.321
			c0.015,0,0.026-0.002,0.04-0.002c0.012,0,0.026,0.002,0.038,0.002c1.705,0,3.174-0.911,4.008-2.262
			c0.829,1.379,2.316,2.312,4.039,2.312c0.455,0,0.888-0.085,1.306-0.207c0.085-0.021,0.169-0.049,0.252-0.077
			c0.115-0.042,0.234-0.075,0.348-0.122c0.968-0.404,1.776-1.121,2.298-2.021c0.814,1.414,2.326,2.377,4.078,2.377
			c1.753,0,3.269-0.963,4.084-2.377c0.817,1.414,2.328,2.377,4.083,2.377c1.75,0,3.264-0.963,4.081-2.377
			c0.815,1.414,2.328,2.377,4.081,2.377c1.755,0,3.266-0.963,4.083-2.377c0.818,1.414,2.328,2.377,4.081,2.377
			s3.269-0.963,4.083-2.377c0.818,1.414,2.329,2.377,4.082,2.377c1.729,0,3.226-0.935,4.048-2.318
			c0.819,1.412,2.328,2.368,4.076,2.368c2.61,0,4.727-2.117,4.727-4.728c0-0.023-0.007-0.042-0.007-0.065
			c0-0.021,0.007-0.042,0.007-0.065c0-1.753-0.963-3.267-2.382-4.079c1.419-0.817,2.382-2.333,2.382-4.083
			c0-1.753-0.963-3.266-2.382-4.081c1.419-0.82,2.382-2.331,2.382-4.084c0-1.752-0.963-3.268-2.382-4.08
			c1.419-0.818,2.382-2.331,2.382-4.086c0-1.751-0.963-3.262-2.382-4.081c1.419-0.815,2.382-2.328,2.382-4.081
			s-0.963-3.266-2.382-4.081c1.419-0.815,2.382-2.331,2.382-4.083c0-1.753-0.963-3.264-2.382-4.081
			c1.419-0.82,2.382-2.331,2.382-4.084s-0.963-3.263-2.382-4.081c1.419-0.817,2.382-2.326,2.382-4.083
			c0-1.753-0.963-3.264-2.382-4.081c1.419-0.817,2.382-2.328,2.382-4.086c0-1.748-0.963-3.261-2.382-4.078
			c1.419-0.818,2.382-2.331,2.382-4.084c0-1.752-0.963-3.263-2.382-4.081c1.419-0.817,2.382-2.328,2.382-4.083
			c0-1.753-0.963-3.264-2.382-4.081c1.419-0.815,2.382-2.331,2.382-4.083c0-1.751-0.963-3.264-2.382-4.081
			c1.419-0.817,2.382-2.326,2.382-4.084c0-1.75-0.963-3.261-2.382-4.078c1.419-0.817,2.382-2.328,2.382-4.083
			c0-1.753-0.963-3.267-2.382-4.081c1.419-0.818,2.382-2.333,2.382-4.084c0-1.753-0.963-3.263-2.382-4.081
			c1.419-0.817,2.382-2.328,2.382-4.083c0-1.75-0.963-3.264-2.382-4.081c1.419-0.817,2.382-2.331,2.382-4.081
			c0-1.755-0.963-3.269-2.382-4.083c1.419-0.818,2.382-2.329,2.382-4.081c0-1.753-0.963-3.266-2.382-4.084
			c1.419-0.817,2.382-2.328,2.382-4.081c0-1.752-0.963-3.263-2.382-4.083c1.419-0.812,2.382-2.328,2.382-4.081
			s-0.963-3.268-2.382-4.083c1.419-0.813,2.382-2.328,2.382-4.084c0-1.748-0.963-3.263-2.382-4.078
			c1.419-0.82,2.382-2.331,2.382-4.083c0-1.753-0.963-3.267-2.382-4.081c1.419-0.82,2.382-2.331,2.382-4.084
			s-0.963-3.264-2.382-4.083c1.419-0.815,2.382-2.328,2.382-4.081s-0.963-3.266-2.382-4.081c1.419-0.815,2.382-2.328,2.382-4.083
			c0-1.753-0.963-3.267-2.382-4.079c1.419-0.817,2.382-2.333,2.382-4.086c0-1.75-0.963-3.261-2.38-4.078
			c1.417-0.818,2.38-2.333,2.38-4.084c0-1.755-0.963-3.266-2.382-4.085c1.419-0.813,2.382-2.329,2.382-4.081
			c0-1.753-0.963-3.264-2.382-4.079c1.419-0.817,2.382-2.328,2.382-4.081c0-1.755-0.963-3.268-2.382-4.083
			c1.419-0.817,2.382-2.331,2.382-4.081c0-1.755-0.963-3.266-2.382-4.083c1.419-0.815,2.382-2.329,2.382-4.084
			c0-1.753-0.963-3.263-2.382-4.082c1.419-0.817,2.382-2.328,2.382-4.085c0-1.75-0.963-3.263-2.38-4.081
			c1.417-0.815,2.38-2.326,2.38-4.079c0-1.755-0.963-3.268-2.382-4.081c1.419-0.817,2.382-2.333,2.382-4.083
			c0-1.757-0.963-3.266-2.382-4.083c1.419-0.818,2.382-2.326,2.382-4.083c0-1.753-0.963-3.264-2.382-4.081
			c1.419-0.817,2.382-2.331,2.382-4.083c0-1.752-0.963-3.263-2.382-4.081c1.419-0.817,2.382-2.328,2.382-4.085
			c0-1.75-0.963-3.261-2.382-4.079c1.419-0.818,2.382-2.33,2.382-4.082c0-1.754-0.963-3.265-2.382-4.083
			c1.419-0.814,2.382-2.328,2.382-4.082s-0.963-3.265-2.382-4.082c1.419-0.818,2.382-2.33,2.382-4.083
			c0-1.752-0.963-3.264-2.382-4.082c1.419-0.814,2.382-2.329,2.382-4.082s-0.963-3.264-2.382-4.08
			c1.419-0.817,2.382-2.332,2.382-4.084c0-1.753-0.963-3.265-2.382-4.08c1.419-0.818,2.382-2.332,2.382-4.085
			c0-1.75-0.963-3.264-2.382-4.082c1.419-0.814,2.382-2.329,2.382-4.08c0-1.753-0.963-3.268-2.382-4.084
			c1.419-0.815,2.382-2.33,2.382-4.079c0-1.753-0.963-3.268-2.382-4.085c1.419-0.814,2.382-2.327,2.382-4.08
			c0-1.752-0.963-3.264-2.382-4.082c1.419-0.818,2.382-2.33,2.382-4.083s-0.963-3.268-2.382-4.082
			c1.419-0.817,2.382-2.33,2.382-4.082c0-1.753-0.963-3.265-2.382-4.083c1.419-0.817,2.382-2.329,2.382-4.082
			s-0.963-3.265-2.382-4.082c1.419-0.818,2.382-2.33,2.382-4.082c0-1.753-0.963-3.265-2.382-4.083
			c1.419-0.817,2.382-2.329,2.382-4.082c0-1.753-0.963-3.264-2.382-4.082c1.419-0.818,2.382-2.33,2.382-4.083
			s-0.963-3.265-2.382-4.079c1.419-0.817,2.382-2.333,2.382-4.085c0-1.753-0.963-3.265-2.382-4.08
			c1.419-0.817,2.382-2.332,2.382-4.083c0-1.754-0.963-3.266-2.382-4.081c1.419-0.818,2.382-2.332,2.382-4.084
			c0-1.754-0.963-3.266-2.382-4.083c1.419-0.814,2.382-2.328,2.382-4.082c0-1.75-0.963-3.265-2.382-4.081
			c1.419-0.816,2.382-2.329,2.382-4.081c0-1.754-0.963-3.267-2.382-4.083c1.419-0.815,2.382-2.328,2.382-4.081
			c0-1.752-0.963-3.266-2.382-4.083c1.419-0.816,2.382-2.329,2.382-4.081c0-1.754-0.963-3.266-2.382-4.083
			c1.419-0.816,2.382-2.329,2.382-4.083c0-1.752-0.963-3.266-2.382-4.083c1.419-0.816,2.382-2.328,2.382-4.081
			c0-1.754-0.963-3.266-2.382-4.083c1.419-0.817,2.382-2.33,2.382-4.082c0-1.754-0.963-3.265-2.382-4.083
			c1.419-0.816,2.382-2.329,2.382-4.083c0-1.753-0.963-3.265-2.382-4.082c1.419-0.817,2.382-2.329,2.382-4.083
			c0-1.752-0.963-3.265-2.382-4.08c1.419-0.818,2.382-2.33,2.382-4.083c0-1.752-0.963-3.265-2.382-4.081
			c1.419-0.817,2.382-2.332,2.382-4.083c0-1.752-0.963-3.266-2.382-4.082c1.419-0.817,2.382-2.329,2.382-4.083
			c0-1.752-0.963-3.265-2.382-4.082c1.419-0.816,2.382-2.329,2.382-4.082c0-1.753-0.963-3.267-2.382-4.083
			c1.419-0.815,2.382-2.329,2.382-4.081s-0.963-3.266-2.382-4.083c1.419-0.815,2.382-2.328,2.382-4.08
			c0-1.753-0.963-3.265-2.382-4.083c1.419-0.816,2.382-2.329,2.382-4.082c0-1.753-0.963-3.266-2.382-4.084
			c1.419-0.815,2.382-2.328,2.382-4.08c0-1.753-0.963-3.266-2.382-4.083C412.605,19.265,413.568,17.754,413.568,16.001z"/>
	</defs>
	<use xlink:href="#SVGID_1_"  overflow="visible" fill="#EDEED9"/>
	<clipPath id="SVGID_2_">
		<use xlink:href="#SVGID_1_"  overflow="visible"/>
	</clipPath>
	<g opacity="0.17" clip-path="url(#SVGID_2_)">
		<path fill="#EDEED9" d="M-10.871,58.321c-30.301,0-58.078-15.256-74.297-40.809c-25.987-40.928-13.828-95.369,27.103-121.356
			c14.122-8.965,30.391-13.704,47.052-13.704c30.303,0,58.079,15.256,74.3,40.81c12.589,19.825,16.704,43.368,11.584,66.289
			c-5.119,22.921-18.858,42.478-38.688,55.064C22.062,53.581,5.79,58.321-10.871,58.321z"/>
		<polygon fill="#EDEED9" points="632.838,-481.142 671.595,-420.091 59.785,-68.578 54.413,-77.036 		"/>
		<polygon fill="#EDEED9" points="440.596,614.166 379.543,652.924 28.028,41.11 36.485,35.744 		"/>
		<polygon fill="#EDEED9" points="-654.718,421.923 -693.479,360.871 -81.665,9.352 -76.293,17.809 		"/>
		<polygon fill="#EDEED9" points="763.569,106.319 747.809,176.899 66.625,-7.161 68.809,-16.937 		"/>
		<polygon fill="#EDEED9" points="-146.872,744.891 -217.452,729.126 -33.394,47.948 -23.619,50.132 		"/>
		<polygon fill="#EDEED9" points="654.616,389.174 613.326,448.542 52.371,20.51 58.088,12.285 		"/>
		<polygon fill="#EDEED9" points="-429.723,635.94 -489.096,594.651 -61.064,33.693 -52.839,39.411 		"/>
		<polygon fill="#EDEED9" points="755.801,-204.105 768.592,-132.93 69.27,-38.94 67.504,-48.799 		"/>
		<polygon fill="#EDEED9" points="163.553,737.122 92.375,749.915 -1.615,50.59 8.245,48.822 		"/>
		<polygon fill="#EDEED9" points="556.14,515.138 503.701,564.935 40.92,32.282 48.187,25.385 		"/>
		<polygon fill="#EDEED9" points="-555.691,537.467 -605.486,485.028 -72.832,22.246 -65.937,29.51 		"/>
		<polygon fill="#EDEED9" points="775.246,-45.405 773.378,26.886 69.498,-22.52 69.758,-32.535 		"/>
		<polygon fill="#EDEED9" points="4.855,756.573 -67.442,754.698 -18.034,50.824 -8.022,51.083 		"/>
		<polygon fill="#EDEED9" points="722.813,253.132 693.736,319.351 60.838,7.378 64.869,-1.794 		"/>
		<polygon fill="#EDEED9" points="-293.69,704.14 -359.899,675.058 -47.932,42.163 -38.76,46.192 		"/>
		<polygon fill="#EDEED9" points="707.831,-348.52 734.095,-281.139 65.979,-54.213 62.338,-63.547 		"/>
		<polygon fill="#EDEED9" points="307.967,689.155 240.587,715.413 13.657,47.296 22.995,43.658 		"/>
	</g>
</g>
<g>
	<defs>
		<path id="SVGID_3_" d="M413.568,16.001c0-1.754-0.963-3.266-2.382-4.083c1.419-0.817,2.382-2.33,2.382-4.082
			c0-2.612-2.116-4.729-4.727-4.729c-1.729,0-3.224,0.936-4.051,2.32c-0.817-1.409-2.326-2.369-4.073-2.369
			c-1.751,0-3.264,0.965-4.082,2.381c-0.814-1.416-2.33-2.381-4.083-2.381c-1.75,0-3.263,0.965-4.081,2.381
			c-0.817-1.416-2.328-2.381-4.083-2.381c-1.753,0-3.266,0.965-4.081,2.383c-0.817-1.418-2.331-2.383-4.081-2.383
			c-1.755,0-3.264,0.965-4.083,2.381c-0.815-1.416-2.331-2.381-4.084-2.381c-1.752,0-3.264,0.965-4.078,2.381
			c-0.818-1.416-2.333-2.381-4.086-2.381c-0.67,0-1.304,0.143-1.877,0.397c-0.94,0.382-1.723,1.058-2.249,1.913
			c-0.829-1.376-2.313-2.31-4.038-2.31c-0.012,0-0.026,0.002-0.038,0.002c-0.014,0-0.025-0.002-0.04-0.002
			c-1.727,0-3.214,0.939-4.041,2.322c-0.827-1.383-2.318-2.322-4.041-2.322c-0.014,0-0.028,0.002-0.042,0.002
			c-0.012,0-0.026-0.002-0.04-0.002c-1.725,0-3.217,0.939-4.041,2.322c-0.825-1.383-2.319-2.322-4.041-2.322
			c-0.015,0-0.028,0.002-0.042,0.002c-0.012,0-0.026-0.002-0.038-0.002c-1.729,0-3.221,0.939-4.046,2.323
			c-0.822-1.383-2.314-2.323-4.043-2.323c-0.012,0-0.026,0.002-0.038,0.002c-0.014,0-0.025-0.002-0.037-0.002
			c-1.729,0-3.214,0.939-4.044,2.322c-0.824-1.383-2.316-2.322-4.043-2.322c-0.015,0-0.028,0.002-0.04,0.002
			c-0.014,0-0.026-0.002-0.04-0.002c-1.729,0-3.217,0.939-4.041,2.323c-0.822-1.384-2.314-2.323-4.043-2.323
			c-0.015,0-0.028,0.002-0.043,0.002c-0.012,0-0.023-0.002-0.037-0.002c-1.728,0-3.219,0.939-4.041,2.323
			c-0.822-1.384-2.314-2.323-4.039-2.323c-0.017,0-0.03,0.002-0.042,0.002c-0.015,0-0.028-0.002-0.04-0.002
			c-1.727,0-3.222,0.939-4.046,2.323c-0.822-1.384-2.314-2.323-4.046-2.323c-0.012,0-0.023,0.002-0.035,0.002
			c-0.014,0-0.028-0.002-0.04-0.002c-1.729,0-3.224,0.94-4.043,2.324c-0.825-1.384-2.316-2.324-4.041-2.324
			c-0.015,0-0.028,0.002-0.04,0.002c-0.015,0-0.028-0.002-0.043-0.002c-1.724,0-3.214,0.939-4.041,2.322
			c-0.824-1.383-2.313-2.322-4.043-2.322c-0.015,0-0.028,0.002-0.042,0.002c-0.012,0-0.023-0.002-0.038-0.002
			c-1.725,0-3.219,0.939-4.041,2.323c-0.824-1.384-2.314-2.323-4.043-2.323c-0.015,0-0.028,0.002-0.043,0.002
			c-0.012,0-0.023-0.002-0.035-0.002c-1.727,0-3.219,0.939-4.043,2.322c-0.825-1.383-2.316-2.322-4.041-2.322
			c-0.015,0-0.026,0.002-0.04,0.002c-0.015,0-0.028-0.002-0.04-0.002c-1.725,0-3.217,0.939-4.044,2.322
			c-0.824-1.383-2.313-2.322-4.041-2.322c-0.014,0-0.027,0.002-0.039,0.002s-0.024-0.002-0.038-0.002
			c-1.729,0-3.219,0.939-4.046,2.323c-0.824-1.384-2.312-2.323-4.041-2.323c-0.014,0-0.028,0.002-0.04,0.002
			c-0.014,0-0.025-0.002-0.04-0.002c-1.727,0-3.216,0.939-4.043,2.323c-0.824-1.384-2.312-2.323-4.041-2.323
			c-0.014,0-0.025,0.002-0.039,0.002c-0.015,0-0.024-0.002-0.038-0.002c-1.729,0-3.221,0.939-4.046,2.322
			c-0.824-1.383-2.312-2.322-4.041-2.322c-0.014,0-0.025,0.002-0.04,0.002c-0.014,0-0.028-0.002-0.04-0.002
			c-1.727,0-3.216,0.939-4.038,2.323c-0.827-1.384-2.317-2.323-4.046-2.323c-0.015,0-0.026,0.002-0.04,0.002
			c-0.015,0-0.028-0.002-0.04-0.002c-1.727,0-3.217,0.939-4.039,2.323c-0.826-1.384-2.316-2.323-4.043-2.323
			c-0.012,0-0.026,0.002-0.04,0.002s-0.025-0.002-0.04-0.002c-1.729,0-3.219,0.939-4.046,2.322
			c-0.824-1.383-2.313-2.322-4.041-2.322c-0.012,0-0.025,0.002-0.04,0.002c-0.014,0-0.023-0.002-0.037-0.002
			c-1.729,0-3.218,0.939-4.04,2.324c-0.827-1.385-2.317-2.324-4.043-2.324c-0.014,0-0.026,0.002-0.04,0.002
			c-0.012,0-0.026-0.002-0.04-0.002c-1.727,0-3.216,0.939-4.041,2.322c-0.827-1.383-2.316-2.322-4.041-2.322
			c-0.014,0-0.028,0.002-0.042,0.002c-0.012,0-0.026-0.002-0.04-0.002c-1.727,0-3.219,0.939-4.043,2.323
			c-0.825-1.384-2.314-2.323-4.042-2.323c-0.013,0-0.025,0.002-0.039,0.002c-0.013,0-0.026-0.002-0.04-0.002
			c-1.725,0-3.218,0.939-4.042,2.323c-0.822-1.383-2.316-2.323-4.042-2.323c-0.013,0-0.026,0.002-0.04,0.002
			s-0.027-0.002-0.041-0.002c-1.726,0-3.219,0.939-4.042,2.323c-0.823-1.384-2.313-2.323-4.042-2.323
			c-0.014,0-0.027,0.002-0.041,0.002c-0.014,0-0.023-0.002-0.037-0.002c-1.729,0-3.222,0.939-4.045,2.322
			c-0.825-1.383-2.316-2.322-4.041-2.322c-0.013,0-0.027,0.002-0.041,0.002c-0.013,0-0.027-0.002-0.041-0.002
			c-1.726,0-3.216,0.939-4.042,2.323c-0.826-1.383-2.313-2.323-4.042-2.323c-0.013,0-0.027,0.002-0.041,0.002
			c-0.013,0-0.023-0.002-0.037-0.002c-1.729,0-3.22,0.939-4.042,2.322c-0.825-1.383-2.318-2.322-4.044-2.322
			c-0.014,0-0.027,0.002-0.041,0.002s-0.024-0.002-0.038-0.002c-1.729,0-3.219,0.939-4.042,2.322
			c-0.826-1.383-2.316-2.322-4.042-2.322c-0.017,0-0.026,0.002-0.042,0.002c-0.014,0-0.027-0.002-0.041-0.002
			c-1.724,0-3.217,0.939-4.042,2.323c-0.823-1.384-2.313-2.323-4.042-2.323c-0.014,0-0.025,0.002-0.038,0.002
			c-0.014,0-0.027-0.002-0.04-0.002c-1.729,0-3.217,0.939-4.042,2.322c-0.826-1.383-2.318-2.322-4.045-2.322
			c-0.012,0-0.026,0.002-0.04,0.002c-0.013,0-0.024-0.002-0.038-0.002c-1.727,0-3.219,0.939-4.042,2.322
			c-0.828-1.383-2.316-2.322-4.042-2.322c-0.014,0-0.027,0.002-0.041,0.002s-0.027-0.002-0.04-0.002
			c-1.729,0-3.217,0.939-4.042,2.322c-0.825-1.383-2.315-2.322-4.042-2.322c-0.014,0-0.027,0.002-0.041,0.002
			s-0.026-0.002-0.04-0.002c-1.729,0-3.219,0.939-4.042,2.323c-0.825-1.384-2.316-2.323-4.045-2.323
			c-0.013,0-0.027,0.002-0.04,0.002c-0.014,0-0.024-0.002-0.038-0.002c-1.729,0-3.22,0.94-4.042,2.324
			c-0.825-1.384-2.315-2.324-4.042-2.324c-0.014,0-0.026,0.002-0.04,0.002s-0.025-0.002-0.038-0.002
			c-1.728,0-3.219,0.939-4.044,2.323c-0.823-1.384-2.316-2.323-4.042-2.323c-0.013,0-0.027,0.002-0.041,0.002
			c-0.013,0-0.027-0.002-0.041-0.002c-1.726,0-3.219,0.939-4.041,2.323c-0.826-1.384-2.316-2.323-4.042-2.323
			c-0.014,0-0.027,0.002-0.04,0.002c-0.014,0-0.027-0.002-0.041-0.002c-1.753,0-3.262,0.965-4.08,2.381
			c-0.82-1.416-2.329-2.381-4.082-2.381c-1.621,0-3.028,0.831-3.878,2.074c-0.032,0.046-0.064,0.094-0.093,0.142
			c-0.035,0.057-0.078,0.108-0.11,0.167c-0.818-1.417-2.329-2.382-4.082-2.382c-1.756,0-3.268,0.965-4.083,2.382
			c-0.817-1.417-2.329-2.382-4.085-2.382c-1.75,0-3.265,0.965-4.082,2.381c-0.816-1.416-2.327-2.381-4.081-2.381
			c-1.754,0-3.266,0.965-4.083,2.382c-0.814-1.417-2.329-2.382-4.08-2.382c-1.756,0-3.266,0.965-4.084,2.382
			c-0.817-1.417-2.329-2.382-4.082-2.382c-1.792,0-3.334,1.011-4.137,2.484c-0.81-1.445-2.338-2.435-4.11-2.435
			c-2.613,0-4.729,2.118-4.729,4.729c0,1.751,0.965,3.264,2.382,4.082c-1.417,0.816-2.382,2.329-2.382,4.083
			c0,1.753,0.965,3.264,2.382,4.082c-1.417,0.816-2.382,2.329-2.382,4.083c0,1.752,0.965,3.265,2.382,4.08
			c-1.417,0.818-2.382,2.331-2.382,4.084c0,1.753,0.965,3.265,2.382,4.082c-1.417,0.817-2.382,2.329-2.382,4.083
			c0,1.752,0.965,3.265,2.382,4.08c-1.417,0.818-2.382,2.332-2.382,4.083s0.965,3.266,2.382,4.081
			c-1.417,0.817-2.382,2.33-2.382,4.083c0,1.752,0.965,3.266,2.382,4.082c-1.417,0.816-2.382,2.329-2.382,4.082
			c0,1.753,0.965,3.266,2.382,4.083c-1.417,0.816-2.382,2.329-2.382,4.082c0,1.752,0.965,3.267,2.382,4.083
			c-1.417,0.815-2.382,2.329-2.382,4.081c0,1.753,0.965,3.266,2.382,4.083c-1.417,0.815-2.382,2.328-2.382,4.08
			c0,1.754,0.965,3.266,2.382,4.083c-1.417,0.816-2.382,2.328-2.382,4.082c0,1.754,0.965,3.266,2.382,4.083
			c-1.417,0.817-2.382,2.329-2.382,4.083c0,1.752,0.965,3.264,2.382,4.082c-1.417,0.817-2.382,2.328-2.382,4.083
			c0,1.753,0.965,3.264,2.382,4.081c-1.417,0.817-2.382,2.33-2.382,4.083c0,1.754,0.965,3.267,2.382,4.083
			c-1.417,0.816-2.382,2.328-2.382,4.083c0,1.752,0.965,3.264,2.382,4.081c-1.417,0.817-2.382,2.331-2.382,4.083
			c0,1.753,0.965,3.266,2.382,4.081c-1.417,0.816-2.382,2.329-2.382,4.083c0,1.752,0.965,3.265,2.382,4.081
			c-1.417,0.816-2.382,2.33-2.382,4.081c0,1.754,0.965,3.268,2.382,4.082c-1.417,0.818-2.382,2.33-2.382,4.083
			c0,1.752,0.965,3.266,2.382,4.084c-1.417,0.814-2.382,2.326-2.382,4.081c0,1.751,0.965,3.266,2.382,4.083
			c-1.417,0.815-2.382,2.327-2.382,4.08c0,1.752,0.965,3.268,2.382,4.085c-1.417,0.814-2.382,2.326-2.382,4.079
			s0.965,3.265,2.382,4.083c-1.417,0.817-2.382,2.329-2.382,4.082c0,1.753,0.965,3.265,2.382,4.082
			c-1.417,0.818-2.382,2.33-2.382,4.083c0,1.752,0.965,3.264,2.382,4.082c-1.417,0.817-2.382,2.328-2.382,4.082
			s0.965,3.265,2.382,4.082c-1.417,0.818-2.382,2.33-2.382,4.083c0,1.752,0.965,3.265,2.382,4.082
			c-1.417,0.814-2.382,2.329-2.382,4.082s0.965,3.265,2.382,4.083c-1.417,0.817-2.382,2.329-2.382,4.082
			c0,1.753,0.965,3.265,2.382,4.08c-1.417,0.818-2.382,2.332-2.382,4.085c0,1.75,0.965,3.264,2.382,4.079
			c-1.417,0.817-2.382,2.331-2.382,4.084c0,1.751,0.965,3.265,2.382,4.08c-1.417,0.818-2.382,2.332-2.382,4.082
			c0,1.753,0.965,3.267,2.382,4.085c-1.417,0.814-2.382,2.327-2.382,4.08c0,1.752,0.965,3.267,2.382,4.084
			c-1.417,0.815-2.382,2.327-2.382,4.08s0.965,3.268,2.382,4.082c-1.417,0.818-2.382,2.33-2.382,4.082
			c0,1.753,0.965,3.265,2.382,4.083c-1.417,0.817-2.382,2.329-2.382,4.082s0.965,3.268,2.382,4.082
			c-1.417,0.818-2.382,2.33-2.382,4.083c0,1.752,0.965,3.263,2.382,4.082c-1.417,0.817-2.382,2.328-2.382,4.079
			c0,1.757,0.965,3.268,2.382,4.085c-1.417,0.818-2.382,2.329-2.382,4.081c0,1.753,0.965,3.266,2.382,4.083
			c-1.417,0.817-2.382,2.328-2.382,4.081c0,1.757,0.965,3.266,2.382,4.083c-1.417,0.817-2.382,2.326-2.382,4.083
			c0,1.75,0.965,3.266,2.381,4.083c-1.417,0.813-2.381,2.326-2.381,4.081c0,1.753,0.965,3.263,2.381,4.079
			c-1.417,0.818-2.381,2.331-2.381,4.081c0,1.757,0.965,3.268,2.382,4.085c-1.417,0.819-2.382,2.329-2.382,4.082
			c0,1.755,0.965,3.269,2.382,4.084c-1.417,0.817-2.382,2.328-2.382,4.083c0,1.75,0.965,3.264,2.382,4.081
			c-1.417,0.815-2.382,2.328-2.382,4.083c0,1.753,0.965,3.264,2.382,4.081c-1.417,0.815-2.382,2.326-2.382,4.079
			c0,1.752,0.965,3.268,2.382,4.081c-1.417,0.819-2.382,2.33-2.382,4.085c0,1.751,0.965,3.266,2.381,4.084
			c-1.417,0.817-2.381,2.328-2.381,4.078c0,1.753,0.965,3.269,2.381,4.086c-1.417,0.812-2.381,2.326-2.381,4.079
			c0,1.755,0.965,3.268,2.382,4.083c-1.417,0.815-2.382,2.328-2.382,4.081s0.965,3.266,2.382,4.081
			c-1.417,0.819-2.382,2.33-2.382,4.083s0.965,3.264,2.382,4.084c-1.417,0.814-2.382,2.328-2.382,4.081
			c0,1.752,0.965,3.263,2.382,4.083c-1.417,0.815-2.382,2.33-2.382,4.078c0,1.756,0.965,3.271,2.382,4.084
			c-1.417,0.815-2.382,2.33-2.382,4.083s0.965,3.269,2.382,4.081c-1.417,0.82-2.382,2.331-2.382,4.083
			c0,1.753,0.965,3.264,2.382,4.081c-1.417,0.818-2.382,2.331-2.382,4.084c0,1.752,0.965,3.263,2.382,4.081
			c-1.417,0.814-2.382,2.328-2.382,4.083c0,1.75,0.965,3.264,2.382,4.081c-1.417,0.817-2.382,2.331-2.382,4.081
			c0,1.755,0.965,3.266,2.382,4.083c-1.417,0.818-2.382,2.328-2.382,4.081c0,1.751,0.965,3.266,2.382,4.084
			c-1.417,0.814-2.382,2.328-2.382,4.081c0,1.755,0.965,3.266,2.382,4.083c-1.417,0.817-2.382,2.328-2.382,4.078
			c0,1.758,0.965,3.267,2.382,4.084c-1.417,0.817-2.382,2.33-2.382,4.081c0,1.752,0.965,3.268,2.382,4.083
			c-1.417,0.817-2.382,2.328-2.382,4.081c0,1.755,0.965,3.266,2.381,4.083c-1.417,0.818-2.381,2.329-2.381,4.081
			c0,1.753,0.965,3.266,2.382,4.084c-1.417,0.817-2.382,2.33-2.382,4.078c0,1.758,0.965,3.269,2.382,4.086
			c-1.417,0.817-2.382,2.328-2.382,4.081c0,1.757,0.965,3.266,2.382,4.083c-1.417,0.818-2.382,2.328-2.382,4.081
			s0.965,3.264,2.382,4.084c-1.417,0.817-2.382,2.328-2.382,4.081c0,1.752,0.965,3.268,2.382,4.083
			c-1.417,0.815-2.382,2.328-2.382,4.081s0.965,3.266,2.382,4.081c-1.417,0.819-2.382,2.33-2.382,4.081
			c0,1.755,0.965,3.268,2.382,4.086c-1.417,0.812-2.382,2.328-2.382,4.08c0,1.753,0.965,3.264,2.381,4.084
			c-1.417,0.815-2.381,2.328-2.381,4.081c0,1.75,0.965,3.266,2.382,4.083c-1.417,0.812-2.382,2.326-2.382,4.079
			c0,0.023,0.006,0.044,0.006,0.065c0,0.023-0.006,0.042-0.006,0.065c0,2.61,2.116,4.728,4.729,4.728
			c1.792,0,3.335-1.011,4.136-2.483c0.811,1.447,2.337,2.434,4.111,2.434c1.753,0,3.265-0.963,4.081-2.377
			c0.818,1.414,2.33,2.377,4.083,2.377c1.753,0,3.266-0.963,4.082-2.377c0.816,1.414,2.329,2.377,4.083,2.377
			c1.751,0,3.264-0.963,4.081-2.377c0.817,1.414,2.331,2.377,4.082,2.377c1.753,0,3.268-0.963,4.082-2.377
			c0.818,1.414,2.33,2.377,4.083,2.377c1.743,0,3.246-0.953,4.066-2.352c0.814,1.427,2.332,2.401,4.095,2.401
			c1.764,0,3.284-0.979,4.094-2.418c0.82,1.407,2.326,2.368,4.073,2.368c0.013,0,0.027-0.002,0.041-0.002
			c0.013,0,0.026,0.002,0.04,0.002c1.726,0,3.216-0.939,4.042-2.321c0.822,1.382,2.312,2.321,4.041,2.321
			c0.014,0,0.027-0.002,0.041-0.002c0.014,0,0.027,0.002,0.041,0.002c1.726,0,3.217-0.939,4.039-2.318
			c0.826,1.379,2.319,2.318,4.044,2.318c0.014,0,0.027-0.002,0.041-0.002s0.026,0.002,0.04,0.002c1.726,0,3.216-0.939,4.042-2.321
			c0.826,1.382,2.316,2.321,4.04,2.321c0.013,0,0.026-0.002,0.04-0.002c0.013,0,0.026,0.002,0.04,0.002
			c1.729,0,3.22-0.939,4.045-2.321c0.823,1.382,2.312,2.321,4.042,2.321c0.014,0,0.024-0.002,0.038-0.002
			c0.014,0,0.027,0.002,0.041,0.002c1.729,0,3.219-0.939,4.044-2.318c0.825,1.382,2.316,2.318,4.042,2.318
			c0.013,0,0.027-0.002,0.04-0.002s0.027,0.002,0.041,0.002c1.726,0,3.213-0.939,4.039-2.318c0.826,1.379,2.316,2.318,4.045,2.318
			c0.013,0,0.024-0.002,0.038-0.002c0.014,0,0.027,0.002,0.04,0.002c1.727,0,3.217-0.939,4.043-2.318
			c0.825,1.379,2.316,2.318,4.044,2.318c0.013,0,0.023-0.002,0.037-0.002c0.013,0,0.027,0.002,0.041,0.002
			c1.729,0,3.219-0.939,4.042-2.318c0.826,1.379,2.318,2.318,4.042,2.318c0.013,0,0.027-0.002,0.041-0.002
			c0.013,0,0.025,0.002,0.039,0.002c1.729,0,3.216-0.939,4.042-2.318c0.823,1.379,2.315,2.318,4.042,2.318
			c0.014,0,0.027-0.002,0.041-0.002s0.024,0.002,0.038,0.002c1.729,0,3.219-0.939,4.044-2.318c0.825,1.379,2.316,2.318,4.045,2.318
			c0.013,0,0.023-0.002,0.037-0.002c0.014,0,0.027,0.002,0.041,0.002c1.729,0,3.217-0.939,4.04-2.321
			c0.826,1.382,2.316,2.321,4.044,2.321c0.014,0,0.027-0.002,0.041-0.002c0.014,0,0.027,0.002,0.041,0.002
			c1.725,0,3.216-0.939,4.041-2.318c0.823,1.379,2.317,2.318,4.042,2.318c0.014,0,0.026-0.002,0.04-0.002
			c0.013,0,0.027,0.002,0.041,0.002c1.726,0,3.216-0.939,4.042-2.318c0.823,1.379,2.316,2.318,4.042,2.318
			c0.014,0,0.027-0.002,0.041-0.002s0.027,0.002,0.04,0.002c1.726,0,3.22-0.939,4.042-2.321c0.824,1.382,2.312,2.321,4.042,2.321
			c0.014,0,0.024-0.002,0.038-0.002c0.014,0,0.028,0.002,0.041,0.002c1.728,0,3.218-0.939,4.042-2.318
			c0.824,1.379,2.314,2.318,4.043,2.318c0.014,0,0.028-0.002,0.04-0.002c0.014,0,0.023,0.002,0.038,0.002
			c1.729,0,3.219-0.939,4.046-2.318c0.825,1.379,2.312,2.318,4.041,2.318c0.014,0,0.028-0.002,0.04-0.002
			c0.014,0,0.026,0.002,0.04,0.002c1.727,0,3.216-0.939,4.043-2.321c0.822,1.382,2.312,2.321,4.04,2.321
			c0.014,0,0.023-0.002,0.037-0.002c0.015,0,0.028,0.002,0.04,0.002c1.728,0,3.217-0.939,4.041-2.318
			c0.827,1.379,2.316,2.318,4.046,2.318c0.015,0,0.023-0.002,0.038-0.002c0.014,0,0.027,0.002,0.04,0.002
			c1.729,0,3.219-0.939,4.045-2.321c0.822,1.382,2.312,2.321,4.039,2.321c0.012,0,0.025-0.002,0.04-0.002
			c0.014,0,0.025,0.002,0.04,0.002c1.729,0,3.219-0.939,4.043-2.321c0.822,1.382,2.314,2.321,4.041,2.321
			c0.012,0,0.026-0.002,0.04-0.002c0.015,0,0.026,0.002,0.04,0.002c1.727,0,3.217-0.939,4.041-2.318
			c0.825,1.379,2.316,2.318,4.046,2.318c0.014,0,0.023-0.002,0.038-0.002c0.014,0,0.025,0.002,0.039,0.002
			c1.728,0,3.217-0.939,4.041-2.318c0.827,1.379,2.316,2.318,4.043,2.318c0.015,0,0.026-0.002,0.04-0.002
			c0.012,0,0.026,0.002,0.04,0.002c1.727,0,3.217-0.939,4.041-2.318c0.827,1.379,2.316,2.318,4.046,2.318
			c0.014,0,0.023-0.002,0.038-0.002c0.012,0,0.025,0.002,0.039,0.002c1.728,0,3.217-0.939,4.041-2.318
			c0.827,1.379,2.319,2.318,4.044,2.318c0.012,0,0.025-0.002,0.04-0.002c0.014,0,0.025,0.002,0.04,0.002
			c1.725,0,3.216-0.939,4.041-2.318c0.824,1.379,2.316,2.318,4.043,2.318c0.012,0,0.023-0.002,0.035-0.002
			c0.015,0,0.028,0.002,0.043,0.002c1.729,0,3.219-0.939,4.043-2.318c0.822,1.379,2.314,2.318,4.041,2.318
			c0.015,0,0.026-0.002,0.038-0.002c0.014,0,0.027,0.002,0.042,0.002c1.729,0,3.219-0.939,4.043-2.318
			c0.827,1.379,2.317,2.318,4.041,2.318c0.015,0,0.028-0.002,0.043-0.002c0.012,0,0.025,0.002,0.04,0.002
			c1.725,0,3.216-0.939,4.041-2.321c0.822,1.382,2.316,2.321,4.043,2.321c0.012,0,0.026-0.002,0.04-0.002
			c0.012,0,0.023,0.002,0.035,0.002c1.731,0,3.224-0.939,4.046-2.318c0.824,1.379,2.319,2.318,4.046,2.318
			c0.012,0,0.025-0.002,0.04-0.002c0.012,0,0.025,0.002,0.04,0.002c1.727,0,3.216-0.939,4.041-2.321
			c0.822,1.382,2.313,2.321,4.041,2.321c0.014,0,0.025-0.002,0.037-0.002c0.015,0,0.028,0.002,0.043,0.002
			c1.729,0,3.219-0.939,4.043-2.321c0.824,1.382,2.312,2.321,4.041,2.321c0.014,0,0.026-0.002,0.04-0.002
			c0.012,0,0.025,0.002,0.04,0.002c1.727,0,3.219-0.939,4.043-2.318c0.825,1.379,2.314,2.318,4.044,2.318
			c0.012,0,0.023-0.002,0.037-0.002c0.012,0,0.026,0.002,0.038,0.002c1.729,0,3.221-0.939,4.043-2.321
			c0.825,1.382,2.316,2.321,4.046,2.321c0.012,0,0.023-0.002,0.035-0.002c0.015,0,0.028,0.002,0.04,0.002
			c1.727,0,3.221-0.939,4.046-2.318c0.824,1.379,2.314,2.318,4.041,2.318c0.014,0,0.025-0.002,0.037-0.002
			c0.015,0,0.028,0.002,0.043,0.002c1.725,0,3.216-0.939,4.041-2.321c0.824,1.382,2.314,2.321,4.043,2.321
			c0.015,0,0.026-0.002,0.04-0.002c0.012,0,0.026,0.002,0.038,0.002c1.705,0,3.174-0.911,4.008-2.262
			c0.829,1.379,2.316,2.312,4.039,2.312c0.455,0,0.888-0.085,1.306-0.207c0.085-0.021,0.169-0.049,0.252-0.077
			c0.115-0.042,0.234-0.075,0.348-0.122c0.968-0.404,1.776-1.121,2.298-2.021c0.814,1.414,2.326,2.377,4.078,2.377
			c1.753,0,3.269-0.963,4.084-2.377c0.817,1.414,2.328,2.377,4.083,2.377c1.75,0,3.264-0.963,4.081-2.377
			c0.815,1.414,2.328,2.377,4.081,2.377c1.755,0,3.266-0.963,4.083-2.377c0.818,1.414,2.328,2.377,4.081,2.377
			s3.269-0.963,4.083-2.377c0.818,1.414,2.329,2.377,4.082,2.377c1.729,0,3.226-0.935,4.048-2.318
			c0.819,1.412,2.328,2.368,4.076,2.368c2.61,0,4.727-2.117,4.727-4.728c0-0.023-0.007-0.042-0.007-0.065
			c0-0.021,0.007-0.042,0.007-0.065c0-1.753-0.963-3.267-2.382-4.079c1.419-0.817,2.382-2.333,2.382-4.083
			c0-1.753-0.963-3.266-2.382-4.081c1.419-0.82,2.382-2.331,2.382-4.084c0-1.752-0.963-3.268-2.382-4.08
			c1.419-0.818,2.382-2.331,2.382-4.086c0-1.751-0.963-3.262-2.382-4.081c1.419-0.815,2.382-2.328,2.382-4.081
			s-0.963-3.266-2.382-4.081c1.419-0.815,2.382-2.331,2.382-4.083c0-1.753-0.963-3.264-2.382-4.081
			c1.419-0.82,2.382-2.331,2.382-4.084s-0.963-3.263-2.382-4.081c1.419-0.817,2.382-2.326,2.382-4.083
			c0-1.753-0.963-3.264-2.382-4.081c1.419-0.817,2.382-2.328,2.382-4.086c0-1.748-0.963-3.261-2.382-4.078
			c1.419-0.818,2.382-2.331,2.382-4.084c0-1.752-0.963-3.263-2.382-4.081c1.419-0.817,2.382-2.328,2.382-4.083
			c0-1.753-0.963-3.264-2.382-4.081c1.419-0.815,2.382-2.331,2.382-4.083c0-1.751-0.963-3.264-2.382-4.081
			c1.419-0.817,2.382-2.326,2.382-4.084c0-1.75-0.963-3.261-2.382-4.078c1.419-0.817,2.382-2.328,2.382-4.083
			c0-1.753-0.963-3.267-2.382-4.081c1.419-0.818,2.382-2.333,2.382-4.084c0-1.753-0.963-3.263-2.382-4.081
			c1.419-0.817,2.382-2.328,2.382-4.083c0-1.75-0.963-3.264-2.382-4.081c1.419-0.817,2.382-2.331,2.382-4.081
			c0-1.755-0.963-3.269-2.382-4.083c1.419-0.818,2.382-2.329,2.382-4.081c0-1.753-0.963-3.266-2.382-4.084
			c1.419-0.817,2.382-2.328,2.382-4.081c0-1.752-0.963-3.263-2.382-4.083c1.419-0.812,2.382-2.328,2.382-4.081
			s-0.963-3.268-2.382-4.083c1.419-0.813,2.382-2.328,2.382-4.084c0-1.748-0.963-3.263-2.382-4.078
			c1.419-0.82,2.382-2.331,2.382-4.083c0-1.753-0.963-3.267-2.382-4.081c1.419-0.82,2.382-2.331,2.382-4.084
			s-0.963-3.264-2.382-4.083c1.419-0.815,2.382-2.328,2.382-4.081s-0.963-3.266-2.382-4.081c1.419-0.815,2.382-2.328,2.382-4.083
			c0-1.753-0.963-3.267-2.382-4.079c1.419-0.817,2.382-2.333,2.382-4.086c0-1.75-0.963-3.261-2.38-4.078
			c1.417-0.818,2.38-2.333,2.38-4.084c0-1.755-0.963-3.266-2.382-4.085c1.419-0.813,2.382-2.329,2.382-4.081
			c0-1.753-0.963-3.264-2.382-4.079c1.419-0.817,2.382-2.328,2.382-4.081c0-1.755-0.963-3.268-2.382-4.083
			c1.419-0.817,2.382-2.331,2.382-4.081c0-1.755-0.963-3.266-2.382-4.083c1.419-0.815,2.382-2.329,2.382-4.084
			c0-1.753-0.963-3.263-2.382-4.082c1.419-0.817,2.382-2.328,2.382-4.085c0-1.75-0.963-3.263-2.38-4.081
			c1.417-0.815,2.38-2.326,2.38-4.079c0-1.755-0.963-3.268-2.382-4.081c1.419-0.817,2.382-2.333,2.382-4.083
			c0-1.757-0.963-3.266-2.382-4.083c1.419-0.818,2.382-2.326,2.382-4.083c0-1.753-0.963-3.264-2.382-4.081
			c1.419-0.817,2.382-2.331,2.382-4.083c0-1.752-0.963-3.263-2.382-4.081c1.419-0.817,2.382-2.328,2.382-4.085
			c0-1.75-0.963-3.261-2.382-4.079c1.419-0.818,2.382-2.33,2.382-4.082c0-1.754-0.963-3.265-2.382-4.083
			c1.419-0.814,2.382-2.328,2.382-4.082s-0.963-3.265-2.382-4.082c1.419-0.818,2.382-2.33,2.382-4.083
			c0-1.752-0.963-3.264-2.382-4.082c1.419-0.814,2.382-2.329,2.382-4.082s-0.963-3.264-2.382-4.08
			c1.419-0.817,2.382-2.332,2.382-4.084c0-1.753-0.963-3.265-2.382-4.08c1.419-0.818,2.382-2.332,2.382-4.085
			c0-1.75-0.963-3.264-2.382-4.082c1.419-0.814,2.382-2.329,2.382-4.08c0-1.753-0.963-3.268-2.382-4.084
			c1.419-0.815,2.382-2.33,2.382-4.079c0-1.753-0.963-3.268-2.382-4.085c1.419-0.814,2.382-2.327,2.382-4.08
			c0-1.752-0.963-3.264-2.382-4.082c1.419-0.818,2.382-2.33,2.382-4.083s-0.963-3.268-2.382-4.082
			c1.419-0.817,2.382-2.33,2.382-4.082c0-1.753-0.963-3.265-2.382-4.083c1.419-0.817,2.382-2.329,2.382-4.082
			s-0.963-3.265-2.382-4.082c1.419-0.818,2.382-2.33,2.382-4.082c0-1.753-0.963-3.265-2.382-4.083
			c1.419-0.817,2.382-2.329,2.382-4.082c0-1.753-0.963-3.264-2.382-4.082c1.419-0.818,2.382-2.33,2.382-4.083
			s-0.963-3.265-2.382-4.079c1.419-0.817,2.382-2.333,2.382-4.085c0-1.753-0.963-3.265-2.382-4.08
			c1.419-0.817,2.382-2.332,2.382-4.083c0-1.754-0.963-3.266-2.382-4.081c1.419-0.818,2.382-2.332,2.382-4.084
			c0-1.754-0.963-3.266-2.382-4.083c1.419-0.814,2.382-2.328,2.382-4.082c0-1.75-0.963-3.265-2.382-4.081
			c1.419-0.816,2.382-2.329,2.382-4.081c0-1.754-0.963-3.267-2.382-4.083c1.419-0.815,2.382-2.328,2.382-4.081
			c0-1.752-0.963-3.266-2.382-4.083c1.419-0.816,2.382-2.329,2.382-4.081c0-1.754-0.963-3.266-2.382-4.083
			c1.419-0.816,2.382-2.329,2.382-4.083c0-1.752-0.963-3.266-2.382-4.083c1.419-0.816,2.382-2.328,2.382-4.081
			c0-1.754-0.963-3.266-2.382-4.083c1.419-0.817,2.382-2.33,2.382-4.082c0-1.754-0.963-3.265-2.382-4.083
			c1.419-0.816,2.382-2.329,2.382-4.083c0-1.753-0.963-3.265-2.382-4.082c1.419-0.817,2.382-2.329,2.382-4.083
			c0-1.752-0.963-3.265-2.382-4.08c1.419-0.818,2.382-2.33,2.382-4.083c0-1.752-0.963-3.265-2.382-4.081
			c1.419-0.817,2.382-2.332,2.382-4.083c0-1.752-0.963-3.266-2.382-4.082c1.419-0.817,2.382-2.329,2.382-4.083
			c0-1.752-0.963-3.265-2.382-4.082c1.419-0.816,2.382-2.329,2.382-4.082c0-1.753-0.963-3.267-2.382-4.083
			c1.419-0.815,2.382-2.329,2.382-4.081s-0.963-3.266-2.382-4.083c1.419-0.815,2.382-2.328,2.382-4.08
			c0-1.753-0.963-3.265-2.382-4.083c1.419-0.816,2.382-2.329,2.382-4.082c0-1.753-0.963-3.266-2.382-4.084
			c1.419-0.815,2.382-2.328,2.382-4.08c0-1.753-0.963-3.266-2.382-4.083C412.605,19.265,413.568,17.754,413.568,16.001z"/>
	</defs>
	<clipPath id="SVGID_4_">
		<use xlink:href="#SVGID_3_"  overflow="visible"/>
	</clipPath>
	<g opacity="0.23" clip-path="url(#SVGID_4_)">
		<path fill="#FFFFFF" d="M-17.028,63.925c-30.301,0-58.077-15.256-74.297-40.808c-25.987-40.928-13.828-95.369,27.104-121.356
			c14.121-8.965,30.391-13.704,47.052-13.704c30.303,0,58.079,15.256,74.3,40.81c12.59,19.825,16.704,43.367,11.584,66.29
			C63.596,18.077,49.856,37.633,30.026,50.22C15.905,59.186-0.367,63.925-17.028,63.925z"/>
		<polygon fill="#FFFFFF" points="626.683,-475.538 665.439,-414.487 53.627,-62.974 48.256,-71.432 		"/>
		<polygon fill="#FFFFFF" points="434.438,619.769 373.385,658.53 21.872,46.714 30.329,41.348 		"/>
		<polygon fill="#FFFFFF" points="-660.875,427.529 -699.636,366.476 -87.822,14.956 -82.451,23.414 		"/>
		<polygon fill="#FFFFFF" points="757.414,111.923 741.651,182.504 60.468,-1.556 62.653,-11.333 		"/>
		<polygon fill="#FFFFFF" points="-153.028,750.498 -223.608,734.732 -39.55,53.553 -29.775,55.736 		"/>
		<polygon fill="#FFFFFF" points="648.459,394.778 607.168,454.146 46.214,26.115 51.931,17.89 		"/>
		<polygon fill="#FFFFFF" points="-435.879,641.543 -495.252,600.254 -67.221,39.298 -58.996,45.016 		"/>
		<polygon fill="#FFFFFF" points="749.644,-198.5 762.437,-127.325 63.114,-33.335 61.347,-43.194 		"/>
		<polygon fill="#FFFFFF" points="157.396,742.727 86.217,755.52 -7.772,56.195 2.088,54.426 		"/>
		<polygon fill="#FFFFFF" points="549.985,520.742 497.542,570.539 34.763,37.886 42.03,30.99 		"/>
		<polygon fill="#FFFFFF" points="-561.848,543.073 -611.643,490.631 -78.988,27.851 -72.094,35.114 		"/>
		<polygon fill="#FFFFFF" points="769.09,-39.801 767.222,32.49 63.341,-16.915 63.601,-26.931 		"/>
		<polygon fill="#FFFFFF" points="-1.302,762.176 -73.598,760.301 -24.191,56.429 -14.179,56.687 		"/>
		<polygon fill="#FFFFFF" points="716.655,258.737 687.579,324.954 54.681,12.982 58.712,3.811 		"/>
		<polygon fill="#FFFFFF" points="-299.847,709.744 -366.056,680.662 -54.089,47.768 -44.916,51.796 		"/>
		<polygon fill="#FFFFFF" points="701.675,-342.915 727.94,-275.535 59.822,-48.609 56.183,-57.943 		"/>
		<polygon fill="#FFFFFF" points="301.809,694.761 234.43,721.018 7.5,52.901 16.838,49.263 		"/>
	</g>
</g>
<g>
	<defs>
		<path id="SVGID_5_" d="M413.568,16.001c0-1.754-0.963-3.266-2.382-4.083c1.419-0.817,2.382-2.33,2.382-4.082
			c0-2.612-2.116-4.729-4.727-4.729c-1.729,0-3.224,0.936-4.051,2.32c-0.817-1.409-2.326-2.369-4.073-2.369
			c-1.751,0-3.264,0.965-4.082,2.381c-0.814-1.416-2.33-2.381-4.083-2.381c-1.75,0-3.263,0.965-4.081,2.381
			c-0.817-1.416-2.328-2.381-4.083-2.381c-1.753,0-3.266,0.965-4.081,2.383c-0.817-1.418-2.331-2.383-4.081-2.383
			c-1.755,0-3.264,0.965-4.083,2.381c-0.815-1.416-2.331-2.381-4.084-2.381c-1.752,0-3.264,0.965-4.078,2.381
			c-0.818-1.416-2.333-2.381-4.086-2.381c-0.67,0-1.304,0.143-1.877,0.397c-0.94,0.382-1.723,1.058-2.249,1.913
			c-0.829-1.376-2.313-2.31-4.038-2.31c-0.012,0-0.026,0.002-0.038,0.002c-0.014,0-0.025-0.002-0.04-0.002
			c-1.727,0-3.214,0.939-4.041,2.322c-0.827-1.383-2.318-2.322-4.041-2.322c-0.014,0-0.028,0.002-0.042,0.002
			c-0.012,0-0.026-0.002-0.04-0.002c-1.725,0-3.217,0.939-4.041,2.322c-0.825-1.383-2.319-2.322-4.041-2.322
			c-0.015,0-0.028,0.002-0.042,0.002c-0.012,0-0.026-0.002-0.038-0.002c-1.729,0-3.221,0.939-4.046,2.323
			c-0.822-1.383-2.314-2.323-4.043-2.323c-0.012,0-0.026,0.002-0.038,0.002c-0.014,0-0.025-0.002-0.037-0.002
			c-1.729,0-3.214,0.939-4.044,2.322c-0.824-1.383-2.316-2.322-4.043-2.322c-0.015,0-0.028,0.002-0.04,0.002
			c-0.014,0-0.026-0.002-0.04-0.002c-1.729,0-3.217,0.939-4.041,2.323c-0.822-1.384-2.314-2.323-4.043-2.323
			c-0.015,0-0.028,0.002-0.043,0.002c-0.012,0-0.023-0.002-0.037-0.002c-1.728,0-3.219,0.939-4.041,2.323
			c-0.822-1.384-2.314-2.323-4.039-2.323c-0.017,0-0.03,0.002-0.042,0.002c-0.015,0-0.028-0.002-0.04-0.002
			c-1.727,0-3.222,0.939-4.046,2.323c-0.822-1.384-2.314-2.323-4.046-2.323c-0.012,0-0.023,0.002-0.035,0.002
			c-0.014,0-0.028-0.002-0.04-0.002c-1.729,0-3.224,0.94-4.043,2.324c-0.825-1.384-2.316-2.324-4.041-2.324
			c-0.015,0-0.028,0.002-0.04,0.002c-0.015,0-0.028-0.002-0.043-0.002c-1.724,0-3.214,0.939-4.041,2.322
			c-0.824-1.383-2.313-2.322-4.043-2.322c-0.015,0-0.028,0.002-0.042,0.002c-0.012,0-0.023-0.002-0.038-0.002
			c-1.725,0-3.219,0.939-4.041,2.323c-0.824-1.384-2.314-2.323-4.043-2.323c-0.015,0-0.028,0.002-0.043,0.002
			c-0.012,0-0.023-0.002-0.035-0.002c-1.727,0-3.219,0.939-4.043,2.322c-0.825-1.383-2.316-2.322-4.041-2.322
			c-0.015,0-0.026,0.002-0.04,0.002c-0.015,0-0.028-0.002-0.04-0.002c-1.725,0-3.217,0.939-4.044,2.322
			c-0.824-1.383-2.313-2.322-4.041-2.322c-0.014,0-0.027,0.002-0.039,0.002s-0.024-0.002-0.038-0.002
			c-1.729,0-3.219,0.939-4.046,2.323c-0.824-1.384-2.312-2.323-4.041-2.323c-0.014,0-0.028,0.002-0.04,0.002
			c-0.014,0-0.025-0.002-0.04-0.002c-1.727,0-3.216,0.939-4.043,2.323c-0.824-1.384-2.312-2.323-4.041-2.323
			c-0.014,0-0.025,0.002-0.039,0.002c-0.015,0-0.024-0.002-0.038-0.002c-1.729,0-3.221,0.939-4.046,2.322
			c-0.824-1.383-2.312-2.322-4.041-2.322c-0.014,0-0.025,0.002-0.04,0.002c-0.014,0-0.028-0.002-0.04-0.002
			c-1.727,0-3.216,0.939-4.038,2.323c-0.827-1.384-2.317-2.323-4.046-2.323c-0.015,0-0.026,0.002-0.04,0.002
			c-0.015,0-0.028-0.002-0.04-0.002c-1.727,0-3.217,0.939-4.039,2.323c-0.826-1.384-2.316-2.323-4.043-2.323
			c-0.012,0-0.026,0.002-0.04,0.002s-0.025-0.002-0.04-0.002c-1.729,0-3.219,0.939-4.046,2.322
			c-0.824-1.383-2.313-2.322-4.041-2.322c-0.012,0-0.025,0.002-0.04,0.002c-0.014,0-0.023-0.002-0.037-0.002
			c-1.729,0-3.218,0.939-4.04,2.324c-0.827-1.385-2.317-2.324-4.043-2.324c-0.014,0-0.026,0.002-0.04,0.002
			c-0.012,0-0.026-0.002-0.04-0.002c-1.727,0-3.216,0.939-4.041,2.322c-0.827-1.383-2.316-2.322-4.041-2.322
			c-0.014,0-0.028,0.002-0.042,0.002c-0.012,0-0.026-0.002-0.04-0.002c-1.727,0-3.219,0.939-4.043,2.323
			c-0.825-1.384-2.314-2.323-4.042-2.323c-0.013,0-0.025,0.002-0.039,0.002c-0.013,0-0.026-0.002-0.04-0.002
			c-1.725,0-3.218,0.939-4.042,2.323c-0.822-1.383-2.316-2.323-4.042-2.323c-0.013,0-0.026,0.002-0.04,0.002
			s-0.027-0.002-0.041-0.002c-1.726,0-3.219,0.939-4.042,2.323c-0.823-1.384-2.313-2.323-4.042-2.323
			c-0.014,0-0.027,0.002-0.041,0.002c-0.014,0-0.023-0.002-0.037-0.002c-1.729,0-3.222,0.939-4.045,2.322
			c-0.825-1.383-2.316-2.322-4.041-2.322c-0.013,0-0.027,0.002-0.041,0.002c-0.013,0-0.027-0.002-0.041-0.002
			c-1.726,0-3.216,0.939-4.042,2.323c-0.826-1.383-2.313-2.323-4.042-2.323c-0.013,0-0.027,0.002-0.041,0.002
			c-0.013,0-0.023-0.002-0.037-0.002c-1.729,0-3.22,0.939-4.042,2.322c-0.825-1.383-2.318-2.322-4.044-2.322
			c-0.014,0-0.027,0.002-0.041,0.002s-0.024-0.002-0.038-0.002c-1.729,0-3.219,0.939-4.042,2.322
			c-0.826-1.383-2.316-2.322-4.042-2.322c-0.017,0-0.026,0.002-0.042,0.002c-0.014,0-0.027-0.002-0.041-0.002
			c-1.724,0-3.217,0.939-4.042,2.323c-0.823-1.384-2.313-2.323-4.042-2.323c-0.014,0-0.025,0.002-0.038,0.002
			c-0.014,0-0.027-0.002-0.04-0.002c-1.729,0-3.217,0.939-4.042,2.322c-0.826-1.383-2.318-2.322-4.045-2.322
			c-0.012,0-0.026,0.002-0.04,0.002c-0.013,0-0.024-0.002-0.038-0.002c-1.727,0-3.219,0.939-4.042,2.322
			c-0.828-1.383-2.316-2.322-4.042-2.322c-0.014,0-0.027,0.002-0.041,0.002s-0.027-0.002-0.04-0.002
			c-1.729,0-3.217,0.939-4.042,2.322c-0.825-1.383-2.315-2.322-4.042-2.322c-0.014,0-0.027,0.002-0.041,0.002
			s-0.026-0.002-0.04-0.002c-1.729,0-3.219,0.939-4.042,2.323c-0.825-1.384-2.316-2.323-4.045-2.323
			c-0.013,0-0.027,0.002-0.04,0.002c-0.014,0-0.024-0.002-0.038-0.002c-1.729,0-3.22,0.94-4.042,2.324
			c-0.825-1.384-2.315-2.324-4.042-2.324c-0.014,0-0.026,0.002-0.04,0.002s-0.025-0.002-0.038-0.002
			c-1.728,0-3.219,0.939-4.044,2.323c-0.823-1.384-2.316-2.323-4.042-2.323c-0.013,0-0.027,0.002-0.041,0.002
			c-0.013,0-0.027-0.002-0.041-0.002c-1.726,0-3.219,0.939-4.041,2.323c-0.826-1.384-2.316-2.323-4.042-2.323
			c-0.014,0-0.027,0.002-0.04,0.002c-0.014,0-0.027-0.002-0.041-0.002c-1.753,0-3.262,0.965-4.08,2.381
			c-0.82-1.416-2.329-2.381-4.082-2.381c-1.621,0-3.028,0.831-3.878,2.074c-0.032,0.046-0.064,0.094-0.093,0.142
			c-0.035,0.057-0.078,0.108-0.11,0.167c-0.818-1.417-2.329-2.382-4.082-2.382c-1.756,0-3.268,0.965-4.083,2.382
			c-0.817-1.417-2.329-2.382-4.085-2.382c-1.75,0-3.265,0.965-4.082,2.381c-0.816-1.416-2.327-2.381-4.081-2.381
			c-1.754,0-3.266,0.965-4.083,2.382c-0.814-1.417-2.329-2.382-4.08-2.382c-1.756,0-3.266,0.965-4.084,2.382
			c-0.817-1.417-2.329-2.382-4.082-2.382c-1.792,0-3.334,1.011-4.137,2.484c-0.81-1.445-2.338-2.435-4.11-2.435
			c-2.613,0-4.729,2.118-4.729,4.729c0,1.751,0.965,3.264,2.382,4.082c-1.417,0.816-2.382,2.329-2.382,4.083
			c0,1.753,0.965,3.264,2.382,4.082c-1.417,0.816-2.382,2.329-2.382,4.083c0,1.752,0.965,3.265,2.382,4.08
			c-1.417,0.818-2.382,2.331-2.382,4.084c0,1.753,0.965,3.265,2.382,4.082c-1.417,0.817-2.382,2.329-2.382,4.083
			c0,1.752,0.965,3.265,2.382,4.08c-1.417,0.818-2.382,2.332-2.382,4.083s0.965,3.266,2.382,4.081
			c-1.417,0.817-2.382,2.33-2.382,4.083c0,1.752,0.965,3.266,2.382,4.082c-1.417,0.816-2.382,2.329-2.382,4.082
			c0,1.753,0.965,3.266,2.382,4.083c-1.417,0.816-2.382,2.329-2.382,4.082c0,1.752,0.965,3.267,2.382,4.083
			c-1.417,0.815-2.382,2.329-2.382,4.081c0,1.753,0.965,3.266,2.382,4.083c-1.417,0.815-2.382,2.328-2.382,4.08
			c0,1.754,0.965,3.266,2.382,4.083c-1.417,0.816-2.382,2.328-2.382,4.082c0,1.754,0.965,3.266,2.382,4.083
			c-1.417,0.817-2.382,2.329-2.382,4.083c0,1.752,0.965,3.264,2.382,4.082c-1.417,0.817-2.382,2.328-2.382,4.083
			c0,1.753,0.965,3.264,2.382,4.081c-1.417,0.817-2.382,2.33-2.382,4.083c0,1.754,0.965,3.267,2.382,4.083
			c-1.417,0.816-2.382,2.328-2.382,4.083c0,1.752,0.965,3.264,2.382,4.081c-1.417,0.817-2.382,2.331-2.382,4.083
			c0,1.753,0.965,3.266,2.382,4.081c-1.417,0.816-2.382,2.329-2.382,4.083c0,1.752,0.965,3.265,2.382,4.081
			c-1.417,0.816-2.382,2.33-2.382,4.081c0,1.754,0.965,3.268,2.382,4.082c-1.417,0.818-2.382,2.33-2.382,4.083
			c0,1.752,0.965,3.266,2.382,4.084c-1.417,0.814-2.382,2.326-2.382,4.081c0,1.751,0.965,3.266,2.382,4.083
			c-1.417,0.815-2.382,2.327-2.382,4.08c0,1.752,0.965,3.268,2.382,4.085c-1.417,0.814-2.382,2.326-2.382,4.079
			s0.965,3.265,2.382,4.083c-1.417,0.817-2.382,2.329-2.382,4.082c0,1.753,0.965,3.265,2.382,4.082
			c-1.417,0.818-2.382,2.33-2.382,4.083c0,1.752,0.965,3.264,2.382,4.082c-1.417,0.817-2.382,2.328-2.382,4.082
			s0.965,3.265,2.382,4.082c-1.417,0.818-2.382,2.33-2.382,4.083c0,1.752,0.965,3.265,2.382,4.082
			c-1.417,0.814-2.382,2.329-2.382,4.082s0.965,3.265,2.382,4.083c-1.417,0.817-2.382,2.329-2.382,4.082
			c0,1.753,0.965,3.265,2.382,4.08c-1.417,0.818-2.382,2.332-2.382,4.085c0,1.75,0.965,3.264,2.382,4.079
			c-1.417,0.817-2.382,2.331-2.382,4.084c0,1.751,0.965,3.265,2.382,4.08c-1.417,0.818-2.382,2.332-2.382,4.082
			c0,1.753,0.965,3.267,2.382,4.085c-1.417,0.814-2.382,2.327-2.382,4.08c0,1.752,0.965,3.267,2.382,4.084
			c-1.417,0.815-2.382,2.327-2.382,4.08s0.965,3.268,2.382,4.082c-1.417,0.818-2.382,2.33-2.382,4.082
			c0,1.753,0.965,3.265,2.382,4.083c-1.417,0.817-2.382,2.329-2.382,4.082s0.965,3.268,2.382,4.082
			c-1.417,0.818-2.382,2.33-2.382,4.083c0,1.752,0.965,3.263,2.382,4.082c-1.417,0.817-2.382,2.328-2.382,4.079
			c0,1.757,0.965,3.268,2.382,4.085c-1.417,0.818-2.382,2.329-2.382,4.081c0,1.753,0.965,3.266,2.382,4.083
			c-1.417,0.817-2.382,2.328-2.382,4.081c0,1.757,0.965,3.266,2.382,4.083c-1.417,0.817-2.382,2.326-2.382,4.083
			c0,1.75,0.965,3.266,2.381,4.083c-1.417,0.813-2.381,2.326-2.381,4.081c0,1.753,0.965,3.263,2.381,4.079
			c-1.417,0.818-2.381,2.331-2.381,4.081c0,1.757,0.965,3.268,2.382,4.085c-1.417,0.819-2.382,2.329-2.382,4.082
			c0,1.755,0.965,3.269,2.382,4.084c-1.417,0.817-2.382,2.328-2.382,4.083c0,1.75,0.965,3.264,2.382,4.081
			c-1.417,0.815-2.382,2.328-2.382,4.083c0,1.753,0.965,3.264,2.382,4.081c-1.417,0.815-2.382,2.326-2.382,4.079
			c0,1.752,0.965,3.268,2.382,4.081c-1.417,0.819-2.382,2.33-2.382,4.085c0,1.751,0.965,3.266,2.381,4.084
			c-1.417,0.817-2.381,2.328-2.381,4.078c0,1.753,0.965,3.269,2.381,4.086c-1.417,0.812-2.381,2.326-2.381,4.079
			c0,1.755,0.965,3.268,2.382,4.083c-1.417,0.815-2.382,2.328-2.382,4.081s0.965,3.266,2.382,4.081
			c-1.417,0.819-2.382,2.33-2.382,4.083s0.965,3.264,2.382,4.084c-1.417,0.814-2.382,2.328-2.382,4.081
			c0,1.752,0.965,3.263,2.382,4.083c-1.417,0.815-2.382,2.33-2.382,4.078c0,1.756,0.965,3.271,2.382,4.084
			c-1.417,0.815-2.382,2.33-2.382,4.083s0.965,3.269,2.382,4.081c-1.417,0.82-2.382,2.331-2.382,4.083
			c0,1.753,0.965,3.264,2.382,4.081c-1.417,0.818-2.382,2.331-2.382,4.084c0,1.752,0.965,3.263,2.382,4.081
			c-1.417,0.814-2.382,2.328-2.382,4.083c0,1.75,0.965,3.264,2.382,4.081c-1.417,0.817-2.382,2.331-2.382,4.081
			c0,1.755,0.965,3.266,2.382,4.083c-1.417,0.818-2.382,2.328-2.382,4.081c0,1.751,0.965,3.266,2.382,4.084
			c-1.417,0.814-2.382,2.328-2.382,4.081c0,1.755,0.965,3.266,2.382,4.083c-1.417,0.817-2.382,2.328-2.382,4.078
			c0,1.758,0.965,3.267,2.382,4.084c-1.417,0.817-2.382,2.33-2.382,4.081c0,1.752,0.965,3.268,2.382,4.083
			c-1.417,0.817-2.382,2.328-2.382,4.081c0,1.755,0.965,3.266,2.381,4.083c-1.417,0.818-2.381,2.329-2.381,4.081
			c0,1.753,0.965,3.266,2.382,4.084c-1.417,0.817-2.382,2.33-2.382,4.078c0,1.758,0.965,3.269,2.382,4.086
			c-1.417,0.817-2.382,2.328-2.382,4.081c0,1.757,0.965,3.266,2.382,4.083c-1.417,0.818-2.382,2.328-2.382,4.081
			s0.965,3.264,2.382,4.084c-1.417,0.817-2.382,2.328-2.382,4.081c0,1.752,0.965,3.268,2.382,4.083
			c-1.417,0.815-2.382,2.328-2.382,4.081s0.965,3.266,2.382,4.081c-1.417,0.819-2.382,2.33-2.382,4.081
			c0,1.755,0.965,3.268,2.382,4.086c-1.417,0.812-2.382,2.328-2.382,4.08c0,1.753,0.965,3.264,2.381,4.084
			c-1.417,0.815-2.381,2.328-2.381,4.081c0,1.75,0.965,3.266,2.382,4.083c-1.417,0.812-2.382,2.326-2.382,4.079
			c0,0.023,0.006,0.044,0.006,0.065c0,0.023-0.006,0.042-0.006,0.065c0,2.61,2.116,4.728,4.729,4.728
			c1.792,0,3.335-1.011,4.136-2.483c0.811,1.447,2.337,2.434,4.111,2.434c1.753,0,3.265-0.963,4.081-2.377
			c0.818,1.414,2.33,2.377,4.083,2.377c1.753,0,3.266-0.963,4.082-2.377c0.816,1.414,2.329,2.377,4.083,2.377
			c1.751,0,3.264-0.963,4.081-2.377c0.817,1.414,2.331,2.377,4.082,2.377c1.753,0,3.268-0.963,4.082-2.377
			c0.818,1.414,2.33,2.377,4.083,2.377c1.743,0,3.246-0.953,4.066-2.352c0.814,1.427,2.332,2.401,4.095,2.401
			c1.764,0,3.284-0.979,4.094-2.418c0.82,1.407,2.326,2.368,4.073,2.368c0.013,0,0.027-0.002,0.041-0.002
			c0.013,0,0.026,0.002,0.04,0.002c1.726,0,3.216-0.939,4.042-2.321c0.822,1.382,2.312,2.321,4.041,2.321
			c0.014,0,0.027-0.002,0.041-0.002c0.014,0,0.027,0.002,0.041,0.002c1.726,0,3.217-0.939,4.039-2.318
			c0.826,1.379,2.319,2.318,4.044,2.318c0.014,0,0.027-0.002,0.041-0.002s0.026,0.002,0.04,0.002c1.726,0,3.216-0.939,4.042-2.321
			c0.826,1.382,2.316,2.321,4.04,2.321c0.013,0,0.026-0.002,0.04-0.002c0.013,0,0.026,0.002,0.04,0.002
			c1.729,0,3.22-0.939,4.045-2.321c0.823,1.382,2.312,2.321,4.042,2.321c0.014,0,0.024-0.002,0.038-0.002
			c0.014,0,0.027,0.002,0.041,0.002c1.729,0,3.219-0.939,4.044-2.318c0.825,1.382,2.316,2.318,4.042,2.318
			c0.013,0,0.027-0.002,0.04-0.002s0.027,0.002,0.041,0.002c1.726,0,3.213-0.939,4.039-2.318c0.826,1.379,2.316,2.318,4.045,2.318
			c0.013,0,0.024-0.002,0.038-0.002c0.014,0,0.027,0.002,0.04,0.002c1.727,0,3.217-0.939,4.043-2.318
			c0.825,1.379,2.316,2.318,4.044,2.318c0.013,0,0.023-0.002,0.037-0.002c0.013,0,0.027,0.002,0.041,0.002
			c1.729,0,3.219-0.939,4.042-2.318c0.826,1.379,2.318,2.318,4.042,2.318c0.013,0,0.027-0.002,0.041-0.002
			c0.013,0,0.025,0.002,0.039,0.002c1.729,0,3.216-0.939,4.042-2.318c0.823,1.379,2.315,2.318,4.042,2.318
			c0.014,0,0.027-0.002,0.041-0.002s0.024,0.002,0.038,0.002c1.729,0,3.219-0.939,4.044-2.318c0.825,1.379,2.316,2.318,4.045,2.318
			c0.013,0,0.023-0.002,0.037-0.002c0.014,0,0.027,0.002,0.041,0.002c1.729,0,3.217-0.939,4.04-2.321
			c0.826,1.382,2.316,2.321,4.044,2.321c0.014,0,0.027-0.002,0.041-0.002c0.014,0,0.027,0.002,0.041,0.002
			c1.725,0,3.216-0.939,4.041-2.318c0.823,1.379,2.317,2.318,4.042,2.318c0.014,0,0.026-0.002,0.04-0.002
			c0.013,0,0.027,0.002,0.041,0.002c1.726,0,3.216-0.939,4.042-2.318c0.823,1.379,2.316,2.318,4.042,2.318
			c0.014,0,0.027-0.002,0.041-0.002s0.027,0.002,0.04,0.002c1.726,0,3.22-0.939,4.042-2.321c0.824,1.382,2.312,2.321,4.042,2.321
			c0.014,0,0.024-0.002,0.038-0.002c0.014,0,0.028,0.002,0.041,0.002c1.728,0,3.218-0.939,4.042-2.318
			c0.824,1.379,2.314,2.318,4.043,2.318c0.014,0,0.028-0.002,0.04-0.002c0.014,0,0.023,0.002,0.038,0.002
			c1.729,0,3.219-0.939,4.046-2.318c0.825,1.379,2.312,2.318,4.041,2.318c0.014,0,0.028-0.002,0.04-0.002
			c0.014,0,0.026,0.002,0.04,0.002c1.727,0,3.216-0.939,4.043-2.321c0.822,1.382,2.312,2.321,4.04,2.321
			c0.014,0,0.023-0.002,0.037-0.002c0.015,0,0.028,0.002,0.04,0.002c1.728,0,3.217-0.939,4.041-2.318
			c0.827,1.379,2.316,2.318,4.046,2.318c0.015,0,0.023-0.002,0.038-0.002c0.014,0,0.027,0.002,0.04,0.002
			c1.729,0,3.219-0.939,4.045-2.321c0.822,1.382,2.312,2.321,4.039,2.321c0.012,0,0.025-0.002,0.04-0.002
			c0.014,0,0.025,0.002,0.04,0.002c1.729,0,3.219-0.939,4.043-2.321c0.822,1.382,2.314,2.321,4.041,2.321
			c0.012,0,0.026-0.002,0.04-0.002c0.015,0,0.026,0.002,0.04,0.002c1.727,0,3.217-0.939,4.041-2.318
			c0.825,1.379,2.316,2.318,4.046,2.318c0.014,0,0.023-0.002,0.038-0.002c0.014,0,0.025,0.002,0.039,0.002
			c1.728,0,3.217-0.939,4.041-2.318c0.827,1.379,2.316,2.318,4.043,2.318c0.015,0,0.026-0.002,0.04-0.002
			c0.012,0,0.026,0.002,0.04,0.002c1.727,0,3.217-0.939,4.041-2.318c0.827,1.379,2.316,2.318,4.046,2.318
			c0.014,0,0.023-0.002,0.038-0.002c0.012,0,0.025,0.002,0.039,0.002c1.728,0,3.217-0.939,4.041-2.318
			c0.827,1.379,2.319,2.318,4.044,2.318c0.012,0,0.025-0.002,0.04-0.002c0.014,0,0.025,0.002,0.04,0.002
			c1.725,0,3.216-0.939,4.041-2.318c0.824,1.379,2.316,2.318,4.043,2.318c0.012,0,0.023-0.002,0.035-0.002
			c0.015,0,0.028,0.002,0.043,0.002c1.729,0,3.219-0.939,4.043-2.318c0.822,1.379,2.314,2.318,4.041,2.318
			c0.015,0,0.026-0.002,0.038-0.002c0.014,0,0.027,0.002,0.042,0.002c1.729,0,3.219-0.939,4.043-2.318
			c0.827,1.379,2.317,2.318,4.041,2.318c0.015,0,0.028-0.002,0.043-0.002c0.012,0,0.025,0.002,0.04,0.002
			c1.725,0,3.216-0.939,4.041-2.321c0.822,1.382,2.316,2.321,4.043,2.321c0.012,0,0.026-0.002,0.04-0.002
			c0.012,0,0.023,0.002,0.035,0.002c1.731,0,3.224-0.939,4.046-2.318c0.824,1.379,2.319,2.318,4.046,2.318
			c0.012,0,0.025-0.002,0.04-0.002c0.012,0,0.025,0.002,0.04,0.002c1.727,0,3.216-0.939,4.041-2.321
			c0.822,1.382,2.313,2.321,4.041,2.321c0.014,0,0.025-0.002,0.037-0.002c0.015,0,0.028,0.002,0.043,0.002
			c1.729,0,3.219-0.939,4.043-2.321c0.824,1.382,2.312,2.321,4.041,2.321c0.014,0,0.026-0.002,0.04-0.002
			c0.012,0,0.025,0.002,0.04,0.002c1.727,0,3.219-0.939,4.043-2.318c0.825,1.379,2.314,2.318,4.044,2.318
			c0.012,0,0.023-0.002,0.037-0.002c0.012,0,0.026,0.002,0.038,0.002c1.729,0,3.221-0.939,4.043-2.321
			c0.825,1.382,2.316,2.321,4.046,2.321c0.012,0,0.023-0.002,0.035-0.002c0.015,0,0.028,0.002,0.04,0.002
			c1.727,0,3.221-0.939,4.046-2.318c0.824,1.379,2.314,2.318,4.041,2.318c0.014,0,0.025-0.002,0.037-0.002
			c0.015,0,0.028,0.002,0.043,0.002c1.725,0,3.216-0.939,4.041-2.321c0.824,1.382,2.314,2.321,4.043,2.321
			c0.015,0,0.026-0.002,0.04-0.002c0.012,0,0.026,0.002,0.038,0.002c1.705,0,3.174-0.911,4.008-2.262
			c0.829,1.379,2.316,2.312,4.039,2.312c0.455,0,0.888-0.085,1.306-0.207c0.085-0.021,0.169-0.049,0.252-0.077
			c0.115-0.042,0.234-0.075,0.348-0.122c0.968-0.404,1.776-1.121,2.298-2.021c0.814,1.414,2.326,2.377,4.078,2.377
			c1.753,0,3.269-0.963,4.084-2.377c0.817,1.414,2.328,2.377,4.083,2.377c1.75,0,3.264-0.963,4.081-2.377
			c0.815,1.414,2.328,2.377,4.081,2.377c1.755,0,3.266-0.963,4.083-2.377c0.818,1.414,2.328,2.377,4.081,2.377
			s3.269-0.963,4.083-2.377c0.818,1.414,2.329,2.377,4.082,2.377c1.729,0,3.226-0.935,4.048-2.318
			c0.819,1.412,2.328,2.368,4.076,2.368c2.61,0,4.727-2.117,4.727-4.728c0-0.023-0.007-0.042-0.007-0.065
			c0-0.021,0.007-0.042,0.007-0.065c0-1.753-0.963-3.267-2.382-4.079c1.419-0.817,2.382-2.333,2.382-4.083
			c0-1.753-0.963-3.266-2.382-4.081c1.419-0.82,2.382-2.331,2.382-4.084c0-1.752-0.963-3.268-2.382-4.08
			c1.419-0.818,2.382-2.331,2.382-4.086c0-1.751-0.963-3.262-2.382-4.081c1.419-0.815,2.382-2.328,2.382-4.081
			s-0.963-3.266-2.382-4.081c1.419-0.815,2.382-2.331,2.382-4.083c0-1.753-0.963-3.264-2.382-4.081
			c1.419-0.82,2.382-2.331,2.382-4.084s-0.963-3.263-2.382-4.081c1.419-0.817,2.382-2.326,2.382-4.083
			c0-1.753-0.963-3.264-2.382-4.081c1.419-0.817,2.382-2.328,2.382-4.086c0-1.748-0.963-3.261-2.382-4.078
			c1.419-0.818,2.382-2.331,2.382-4.084c0-1.752-0.963-3.263-2.382-4.081c1.419-0.817,2.382-2.328,2.382-4.083
			c0-1.753-0.963-3.264-2.382-4.081c1.419-0.815,2.382-2.331,2.382-4.083c0-1.751-0.963-3.264-2.382-4.081
			c1.419-0.817,2.382-2.326,2.382-4.084c0-1.75-0.963-3.261-2.382-4.078c1.419-0.817,2.382-2.328,2.382-4.083
			c0-1.753-0.963-3.267-2.382-4.081c1.419-0.818,2.382-2.333,2.382-4.084c0-1.753-0.963-3.263-2.382-4.081
			c1.419-0.817,2.382-2.328,2.382-4.083c0-1.75-0.963-3.264-2.382-4.081c1.419-0.817,2.382-2.331,2.382-4.081
			c0-1.755-0.963-3.269-2.382-4.083c1.419-0.818,2.382-2.329,2.382-4.081c0-1.753-0.963-3.266-2.382-4.084
			c1.419-0.817,2.382-2.328,2.382-4.081c0-1.752-0.963-3.263-2.382-4.083c1.419-0.812,2.382-2.328,2.382-4.081
			s-0.963-3.268-2.382-4.083c1.419-0.813,2.382-2.328,2.382-4.084c0-1.748-0.963-3.263-2.382-4.078
			c1.419-0.82,2.382-2.331,2.382-4.083c0-1.753-0.963-3.267-2.382-4.081c1.419-0.82,2.382-2.331,2.382-4.084
			s-0.963-3.264-2.382-4.083c1.419-0.815,2.382-2.328,2.382-4.081s-0.963-3.266-2.382-4.081c1.419-0.815,2.382-2.328,2.382-4.083
			c0-1.753-0.963-3.267-2.382-4.079c1.419-0.817,2.382-2.333,2.382-4.086c0-1.75-0.963-3.261-2.38-4.078
			c1.417-0.818,2.38-2.333,2.38-4.084c0-1.755-0.963-3.266-2.382-4.085c1.419-0.813,2.382-2.329,2.382-4.081
			c0-1.753-0.963-3.264-2.382-4.079c1.419-0.817,2.382-2.328,2.382-4.081c0-1.755-0.963-3.268-2.382-4.083
			c1.419-0.817,2.382-2.331,2.382-4.081c0-1.755-0.963-3.266-2.382-4.083c1.419-0.815,2.382-2.329,2.382-4.084
			c0-1.753-0.963-3.263-2.382-4.082c1.419-0.817,2.382-2.328,2.382-4.085c0-1.75-0.963-3.263-2.38-4.081
			c1.417-0.815,2.38-2.326,2.38-4.079c0-1.755-0.963-3.268-2.382-4.081c1.419-0.817,2.382-2.333,2.382-4.083
			c0-1.757-0.963-3.266-2.382-4.083c1.419-0.818,2.382-2.326,2.382-4.083c0-1.753-0.963-3.264-2.382-4.081
			c1.419-0.817,2.382-2.331,2.382-4.083c0-1.752-0.963-3.263-2.382-4.081c1.419-0.817,2.382-2.328,2.382-4.085
			c0-1.75-0.963-3.261-2.382-4.079c1.419-0.818,2.382-2.33,2.382-4.082c0-1.754-0.963-3.265-2.382-4.083
			c1.419-0.814,2.382-2.328,2.382-4.082s-0.963-3.265-2.382-4.082c1.419-0.818,2.382-2.33,2.382-4.083
			c0-1.752-0.963-3.264-2.382-4.082c1.419-0.814,2.382-2.329,2.382-4.082s-0.963-3.264-2.382-4.08
			c1.419-0.817,2.382-2.332,2.382-4.084c0-1.753-0.963-3.265-2.382-4.08c1.419-0.818,2.382-2.332,2.382-4.085
			c0-1.75-0.963-3.264-2.382-4.082c1.419-0.814,2.382-2.329,2.382-4.08c0-1.753-0.963-3.268-2.382-4.084
			c1.419-0.815,2.382-2.33,2.382-4.079c0-1.753-0.963-3.268-2.382-4.085c1.419-0.814,2.382-2.327,2.382-4.08
			c0-1.752-0.963-3.264-2.382-4.082c1.419-0.818,2.382-2.33,2.382-4.083s-0.963-3.268-2.382-4.082
			c1.419-0.817,2.382-2.33,2.382-4.082c0-1.753-0.963-3.265-2.382-4.083c1.419-0.817,2.382-2.329,2.382-4.082
			s-0.963-3.265-2.382-4.082c1.419-0.818,2.382-2.33,2.382-4.082c0-1.753-0.963-3.265-2.382-4.083
			c1.419-0.817,2.382-2.329,2.382-4.082c0-1.753-0.963-3.264-2.382-4.082c1.419-0.818,2.382-2.33,2.382-4.083
			s-0.963-3.265-2.382-4.079c1.419-0.817,2.382-2.333,2.382-4.085c0-1.753-0.963-3.265-2.382-4.08
			c1.419-0.817,2.382-2.332,2.382-4.083c0-1.754-0.963-3.266-2.382-4.081c1.419-0.818,2.382-2.332,2.382-4.084
			c0-1.754-0.963-3.266-2.382-4.083c1.419-0.814,2.382-2.328,2.382-4.082c0-1.75-0.963-3.265-2.382-4.081
			c1.419-0.816,2.382-2.329,2.382-4.081c0-1.754-0.963-3.267-2.382-4.083c1.419-0.815,2.382-2.328,2.382-4.081
			c0-1.752-0.963-3.266-2.382-4.083c1.419-0.816,2.382-2.329,2.382-4.081c0-1.754-0.963-3.266-2.382-4.083
			c1.419-0.816,2.382-2.329,2.382-4.083c0-1.752-0.963-3.266-2.382-4.083c1.419-0.816,2.382-2.328,2.382-4.081
			c0-1.754-0.963-3.266-2.382-4.083c1.419-0.817,2.382-2.33,2.382-4.082c0-1.754-0.963-3.265-2.382-4.083
			c1.419-0.816,2.382-2.329,2.382-4.083c0-1.753-0.963-3.265-2.382-4.082c1.419-0.817,2.382-2.329,2.382-4.083
			c0-1.752-0.963-3.265-2.382-4.08c1.419-0.818,2.382-2.33,2.382-4.083c0-1.752-0.963-3.265-2.382-4.081
			c1.419-0.817,2.382-2.332,2.382-4.083c0-1.752-0.963-3.266-2.382-4.082c1.419-0.817,2.382-2.329,2.382-4.083
			c0-1.752-0.963-3.265-2.382-4.082c1.419-0.816,2.382-2.329,2.382-4.082c0-1.753-0.963-3.267-2.382-4.083
			c1.419-0.815,2.382-2.329,2.382-4.081s-0.963-3.266-2.382-4.083c1.419-0.815,2.382-2.328,2.382-4.08
			c0-1.753-0.963-3.265-2.382-4.083c1.419-0.816,2.382-2.329,2.382-4.082c0-1.753-0.963-3.266-2.382-4.084
			c1.419-0.815,2.382-2.328,2.382-4.08c0-1.753-0.963-3.266-2.382-4.083C412.605,19.265,413.568,17.754,413.568,16.001z"/>
	</defs>
	<clipPath id="SVGID_6_">
		<use xlink:href="#SVGID_5_"  overflow="visible"/>
	</clipPath>
</g>
</svg>
