<?xml version="1.0" encoding="UTF-8" standalone="no"?>
<!-- Generator: Adobe Illustrator 15.0.2, SVG Export Plug-In . SVG Version: 6.00 Build 0)  -->

<svg
   xmlns:dc="http://purl.org/dc/elements/1.1/"
   xmlns:cc="http://creativecommons.org/ns#"
   xmlns:rdf="http://www.w3.org/1999/02/22-rdf-syntax-ns#"
   xmlns:svg="http://www.w3.org/2000/svg"
   xmlns="http://www.w3.org/2000/svg"
   xmlns:sodipodi="http://sodipodi.sourceforge.net/DTD/sodipodi-0.dtd"
   xmlns:inkscape="http://www.inkscape.org/namespaces/inkscape"
   version="1.0"
   id="Layer_1"
   x="0px"
   y="0px"
   width="301.87"
   height="301.87"
   viewBox="0 0 0 301.86999"
   enable-background="new 0 0 291 304.5"
   xml:space="preserve"
   inkscape:version="0.48.2 r9819"
   sodipodi:docname="fugl_blar.svg"><metadata
   id="metadata367"><rdf:RDF><cc:Work
       rdf:about=""><dc:format>image/svg+xml</dc:format><dc:type
         rdf:resource="http://purl.org/dc/dcmitype/StillImage" /></cc:Work></rdf:RDF></metadata><defs
   id="defs365" /><sodipodi:namedview
   pagecolor="#ffffff"
   bordercolor="#666666"
   borderopacity="1"
   objecttolerance="10"
   gridtolerance="10"
   guidetolerance="10"
   inkscape:pageopacity="0"
   inkscape:pageshadow="2"
   inkscape:window-width="685"
   inkscape:window-height="548"
   id="namedview363"
   showgrid="false"
   inkscape:zoom="0.54803678"
   inkscape:cx="-99.698662"
   inkscape:cy="119.14641"
   inkscape:window-x="458"
   inkscape:window-y="1774"
   inkscape:window-maximized="0"
   inkscape:current-layer="Layer_1"
   fit-margin-top="0"
   fit-margin-left="0"
   fit-margin-right="0"
   fit-margin-bottom="0" />












<g
   id="g273"
   transform="matrix(4.2488087,0,0,4.2488087,-321.37426,-919.66249)">
	<path
   d="m 131.923,250.129 c 0,-10.241 -7.391,-18.74 -17.127,-20.498 0.526,-2.885 1.45,-8.491 1.035,-10.221 -0.397,-1.65 -1.208,-3.076 -2.732,-2.709 -1.6,0.385 -1.747,1.392 -1.747,1.392 0,0 -0.516,-2.146 -3.069,-1.531 -2.553,0.615 -3.802,3.887 -2.723,8.38 0.392,1.626 1.021,3.271 1.663,4.71 -9.669,1.81 -16.992,10.282 -16.992,20.476 0,7.26 3.714,13.645 9.34,17.378 -0.53,1.375 -0.832,2.863 -0.832,4.425 0,6.198 4.577,11.312 10.532,12.185 v 3.384 h 1.054 v -3.275 c 0.247,0.015 0.493,0.037 0.745,0.037 0.252,0 0.498,-0.022 0.745,-0.037 v 3.275 h 1.051 v -3.384 c 5.956,-0.872 10.532,-5.986 10.532,-12.185 0,-1.559 -0.301,-3.045 -0.83,-4.417 5.636,-3.732 9.355,-10.121 9.355,-17.385 z"
   id="path275"
   inkscape:connector-curvature="0"
   style="fill:#6f88ad" />
	<polygon
   points="111.077,250.594 118.271,257.787 111.077,267.884 103.884,257.787 "
   id="polygon277"
   style="fill:#f7941e" />
	<g
   id="g279">
		<g
   id="g281">
			<ellipse
   cx="122.483"
   cy="247.90199"
   rx="6.9879999"
   ry="9.3730001"
   id="ellipse283"
   d="m 129.471,247.90199 c 0,5.17657 -3.12863,9.373 -6.988,9.373 -3.85936,0 -6.988,-4.19643 -6.988,-9.373 0,-5.17656 3.12864,-9.373 6.988,-9.373 3.85937,0 6.988,4.19644 6.988,9.373 z"
   sodipodi:cx="122.483"
   sodipodi:cy="247.90199"
   sodipodi:rx="6.9879999"
   sodipodi:ry="9.3730001"
   style="fill:#ffffff" />
			<path
   d="m 125.311,247.902 c 0,2.096 -1.265,3.793 -2.827,3.793 -1.562,0 -2.827,-1.697 -2.827,-3.793 0,-2.092 1.265,-3.791 2.827,-3.791 1.562,0 2.827,1.7 2.827,3.791 z"
   id="path285"
   inkscape:connector-curvature="0" />
			<circle
   cx="122.483"
   cy="245.539"
   r="0.78899997"
   id="circle287"
   d="m 123.272,245.539 c 0,0.43575 -0.35325,0.789 -0.789,0.789 -0.43575,0 -0.789,-0.35325 -0.789,-0.789 0,-0.43575 0.35325,-0.789 0.789,-0.789 0.43575,0 0.789,0.35325 0.789,0.789 z"
   sodipodi:cx="122.483"
   sodipodi:cy="245.539"
   sodipodi:rx="0.78899997"
   sodipodi:ry="0.78899997"
   style="fill:#ffffff" />
		</g>
		<g
   id="g289">
			<ellipse
   cx="99.669998"
   cy="247.90199"
   rx="6.9879999"
   ry="9.3730001"
   id="ellipse291"
   d="m 106.658,247.90199 c 0,5.17657 -3.12864,9.373 -6.988002,9.373 -3.859366,0 -6.988,-4.19643 -6.988,-9.373 0,-5.17656 3.128634,-9.373 6.988,-9.373 3.859362,0 6.988002,4.19644 6.988002,9.373 z"
   sodipodi:cx="99.669998"
   sodipodi:cy="247.90199"
   sodipodi:rx="6.9879999"
   sodipodi:ry="9.3730001"
   style="fill:#ffffff" />
			<path
   d="m 102.497,247.902 c 0,2.096 -1.265,3.793 -2.827,3.793 -1.562,0 -2.827,-1.697 -2.827,-3.793 0,-2.092 1.265,-3.791 2.827,-3.791 1.562,0 2.827,1.7 2.827,3.791 z"
   id="path293"
   inkscape:connector-curvature="0" />
			<circle
   cx="99.669998"
   cy="245.539"
   r="0.78899997"
   id="circle295"
   d="m 100.459,245.539 c 0,0.43575 -0.35325,0.789 -0.789002,0.789 -0.435752,0 -0.789,-0.35325 -0.789,-0.789 0,-0.43575 0.353248,-0.789 0.789,-0.789 0.435752,0 0.789002,0.35325 0.789002,0.789 z"
   sodipodi:cx="99.669998"
   sodipodi:cy="245.539"
   sodipodi:rx="0.78899997"
   sodipodi:ry="0.78899997"
   style="fill:#ffffff" />
		</g>
	</g>
</g>



</svg>