<?xml version="1.0" encoding="UTF-8" standalone="no"?>
<!-- Generator: Adobe Illustrator 15.0.2, SVG Export Plug-In . SVG Version: 6.00 Build 0)  -->

<svg
   xmlns:dc="http://purl.org/dc/elements/1.1/"
   xmlns:cc="http://creativecommons.org/ns#"
   xmlns:rdf="http://www.w3.org/1999/02/22-rdf-syntax-ns#"
   xmlns:svg="http://www.w3.org/2000/svg"
   xmlns="http://www.w3.org/2000/svg"
   xmlns:sodipodi="http://sodipodi.sourceforge.net/DTD/sodipodi-0.dtd"
   xmlns:inkscape="http://www.inkscape.org/namespaces/inkscape"
   version="1.0"
   id="Layer_1"
   x="0px"
   y="0px"
   width="301.57001"
   height="301.57001"
   viewBox="0 0 301.57001 301.57"
   enable-background="new 0 0 291 304.5"
   xml:space="preserve"
   inkscape:version="0.48.2 r9819"
   sodipodi:docname="fugl_grar.svg"><metadata
   id="metadata367"><rdf:RDF><cc:Work
       rdf:about=""><dc:format>image/svg+xml</dc:format><dc:type
         rdf:resource="http://purl.org/dc/dcmitype/StillImage" /><dc:title /></cc:Work></rdf:RDF></metadata><defs
   id="defs365" /><sodipodi:namedview
   pagecolor="#ffffff"
   bordercolor="#666666"
   borderopacity="1"
   objecttolerance="10"
   gridtolerance="10"
   guidetolerance="10"
   inkscape:pageopacity="0"
   inkscape:pageshadow="2"
   inkscape:window-width="1368"
   inkscape:window-height="1159"
   id="namedview363"
   showgrid="false"
   fit-margin-top="0"
   fit-margin-left="0"
   fit-margin-right="0"
   fit-margin-bottom="0"
   inkscape:zoom="2.8284271"
   inkscape:cx="181.32523"
   inkscape:cy="140.96023"
   inkscape:window-x="0"
   inkscape:window-y="0"
   inkscape:window-maximized="0"
   inkscape:current-layer="Layer_1" />














<g
   id="g321"
   transform="matrix(4.2444862,0,0,4.2444862,-616.57365,-918.7198)">
	<path
   d="m 202.035,250.129 c 0,-10.241 -7.391,-18.74 -17.127,-20.498 0.526,-2.885 1.45,-8.491 1.035,-10.221 -0.397,-1.65 -1.208,-3.076 -2.732,-2.709 -1.6,0.385 -1.747,1.392 -1.747,1.392 0,0 -0.516,-2.146 -3.069,-1.531 -2.553,0.615 -3.802,3.887 -2.723,8.38 0.392,1.626 1.021,3.271 1.663,4.71 -9.669,1.81 -16.992,10.282 -16.992,20.476 0,7.26 3.714,13.645 9.34,17.378 -0.53,1.375 -0.832,2.863 -0.832,4.425 0,6.198 4.577,11.312 10.532,12.185 v 3.384 h 1.054 v -3.275 c 0.247,0.015 0.493,0.037 0.745,0.037 0.252,0 0.498,-0.022 0.745,-0.037 v 3.275 h 1.051 v -3.384 c 5.956,-0.872 10.532,-5.986 10.532,-12.185 0,-1.559 -0.301,-3.045 -0.829,-4.417 5.634,-3.732 9.354,-10.121 9.354,-17.385 z"
   id="path323"
   inkscape:connector-curvature="0"
   style="fill:#c7c8ca" />
	<polygon
   points="181.188,250.594 188.382,257.787 181.188,267.884 173.996,257.787 "
   id="polygon325"
   style="fill:#f7941e" />
	<g
   id="g327">
		<g
   id="g329">
			<ellipse
   cx="192.595"
   cy="247.90199"
   rx="6.9879999"
   ry="9.3730001"
   id="ellipse331"
   d="m 199.583,247.90199 c 0,5.17657 -3.12863,9.373 -6.988,9.373 -3.85936,0 -6.988,-4.19643 -6.988,-9.373 0,-5.17656 3.12864,-9.373 6.988,-9.373 3.85937,0 6.988,4.19644 6.988,9.373 z"
   sodipodi:cx="192.595"
   sodipodi:cy="247.90199"
   sodipodi:rx="6.9879999"
   sodipodi:ry="9.3730001"
   style="fill:#ffffff" />
			<path
   d="m 195.422,247.902 c 0,2.096 -1.265,3.793 -2.827,3.793 -1.562,0 -2.827,-1.697 -2.827,-3.793 0,-2.092 1.265,-3.791 2.827,-3.791 1.562,0 2.827,1.7 2.827,3.791 z"
   id="path333"
   inkscape:connector-curvature="0" />
			<circle
   cx="192.595"
   cy="245.539"
   r="0.78899997"
   id="circle335"
   d="m 193.384,245.539 c 0,0.43575 -0.35325,0.789 -0.789,0.789 -0.43575,0 -0.789,-0.35325 -0.789,-0.789 0,-0.43575 0.35325,-0.789 0.789,-0.789 0.43575,0 0.789,0.35325 0.789,0.789 z"
   sodipodi:cx="192.595"
   sodipodi:cy="245.539"
   sodipodi:rx="0.78899997"
   sodipodi:ry="0.78899997"
   style="fill:#ffffff" />
		</g>
		<g
   id="g337">
			<ellipse
   cx="169.78101"
   cy="247.90199"
   rx="6.9879999"
   ry="9.3730001"
   id="ellipse339"
   d="m 176.76901,247.90199 c 0,5.17657 -3.12864,9.373 -6.988,9.373 -3.85937,0 -6.988,-4.19643 -6.988,-9.373 0,-5.17656 3.12863,-9.373 6.988,-9.373 3.85936,0 6.988,4.19644 6.988,9.373 z"
   sodipodi:cx="169.78101"
   sodipodi:cy="247.90199"
   sodipodi:rx="6.9879999"
   sodipodi:ry="9.3730001"
   style="fill:#ffffff" />
			<path
   d="m 172.609,247.902 c 0,2.096 -1.265,3.793 -2.827,3.793 -1.562,0 -2.827,-1.697 -2.827,-3.793 0,-2.092 1.265,-3.791 2.827,-3.791 1.562,0 2.827,1.7 2.827,3.791 z"
   id="path341"
   inkscape:connector-curvature="0" />
			<circle
   cx="169.782"
   cy="245.539"
   r="0.78899997"
   id="circle343"
   d="m 170.571,245.539 c 0,0.43575 -0.35325,0.789 -0.789,0.789 -0.43575,0 -0.789,-0.35325 -0.789,-0.789 0,-0.43575 0.35325,-0.789 0.789,-0.789 0.43575,0 0.789,0.35325 0.789,0.789 z"
   sodipodi:cx="169.782"
   sodipodi:cy="245.539"
   sodipodi:rx="0.78899997"
   sodipodi:ry="0.78899997"
   style="fill:#ffffff" />
		</g>
	</g>
</g>

</svg>