<?xml version="1.0" encoding="UTF-8" standalone="no"?>
<!-- Generator: Adobe Illustrator 15.0.2, SVG Export Plug-In . SVG Version: 6.00 Build 0)  -->

<svg
   xmlns:dc="http://purl.org/dc/elements/1.1/"
   xmlns:cc="http://creativecommons.org/ns#"
   xmlns:rdf="http://www.w3.org/1999/02/22-rdf-syntax-ns#"
   xmlns:svg="http://www.w3.org/2000/svg"
   xmlns="http://www.w3.org/2000/svg"
   xmlns:sodipodi="http://sodipodi.sourceforge.net/DTD/sodipodi-0.dtd"
   xmlns:inkscape="http://www.inkscape.org/namespaces/inkscape"
   version="1.0"
   id="Layer_1"
   x="0px"
   y="0px"
   width="42.478001"
   height="33.145988"
   viewBox="0 0 42.478001 33.145988"
   enable-background="new 0 0 1028 855"
   xml:space="preserve"
   inkscape:version="0.48.2 r9819"
   sodipodi:docname="fugl_grar_profil.svg"><metadata
   id="metadata523"><rdf:RDF><cc:Work
       rdf:about=""><dc:format>image/svg+xml</dc:format><dc:type
         rdf:resource="http://purl.org/dc/dcmitype/StillImage" /><dc:title></dc:title></cc:Work></rdf:RDF></metadata><defs
   id="defs521" /><sodipodi:namedview
   pagecolor="#ffffff"
   bordercolor="#666666"
   borderopacity="1"
   objecttolerance="10"
   gridtolerance="10"
   guidetolerance="10"
   inkscape:pageopacity="0"
   inkscape:pageshadow="2"
   inkscape:window-width="1228"
   inkscape:window-height="1137"
   id="namedview519"
   showgrid="false"
   inkscape:zoom="0.39035602"
   inkscape:cx="209.44496"
   inkscape:cy="-458.66568"
   inkscape:window-x="690"
   inkscape:window-y="0"
   inkscape:window-maximized="0"
   inkscape:current-layer="Layer_1"
   fit-margin-top="0"
   fit-margin-left="0"
   fit-margin-right="0"
   fit-margin-bottom="0" />


<path
   d="m 236.667,312.65299 c 0,6.262 -5.076,11.338 -11.34,11.338 h -408.669 c -6.262,0 -11.34,-5.076 -11.34,-11.338 v -30.996 c 0,-6.262 5.078,-11.338 11.34,-11.338 h 408.669 c 6.264,0 11.34,5.076 11.34,11.338 v 30.996 z"
   id="path101"
   inkscape:connector-curvature="0"
   style="fill:#ffffff" />
<path
   d="m 229.696,27.479993 c 0,6.262 -5.076,11.338 -11.34,11.338 h -396.664 c -6.262,0 -11.338,-5.076 -11.338,-11.338 V 4.4859928 c 0,-6.262 5.076,-11.338 11.338,-11.338 h 396.664 c 6.264,0 11.34,5.076 11.34,11.338 V 27.479993 z"
   id="path103"
   inkscape:connector-curvature="0"
   style="fill:#ffffff" />

<text
   font-size="25.0514"
   id="text113"
   style="font-size:25.05139923px;fill:#ffffff;font-family:MyriadPro-Bold"
   x="-34.6082"
   y="-76.860107">Ættliður 1</text>





<path
   d="m 236.667,425.98699 c 0,6.262 -5.076,11.338 -11.34,11.338 h -408.669 c -6.262,0 -11.34,-5.076 -11.34,-11.338 v -30.996 c 0,-6.262 5.078,-11.338 11.34,-11.338 h 408.669 c 6.264,0 11.34,5.076 11.34,11.338 v 30.996 z"
   id="path129"
   inkscape:connector-curvature="0"
   style="fill:#ffffff" />

<path
   d="m 236.667,538.65299 c 0,6.262 -5.076,11.338 -11.34,11.338 h -408.669 c -6.262,0 -11.34,-5.076 -11.34,-11.338 v -30.996 c 0,-6.262 5.078,-11.338 11.34,-11.338 h 408.669 c 6.264,0 11.34,5.076 11.34,11.338 v 30.996 z"
   id="path133"
   inkscape:connector-curvature="0"
   style="fill:#ffffff" />







<g
   id="g197"
   transform="translate(-239.573,-195.03201)">
	<polygon
   points="282.051,206.954 276.067,211.217 271.803,206.954 276.067,202.689 "
   id="polygon199"
   style="fill:#f7941e" />
	<g
   id="g201">
		<circle
   cx="264.866"
   cy="207.38901"
   r="12.357"
   id="circle203"
   sodipodi:cx="264.866"
   sodipodi:cy="207.38901"
   sodipodi:rx="12.357"
   sodipodi:ry="12.357"
   style="fill:#eb5f73"
   d="m 277.223,207.38901 c 0,6.82458 -5.53242,12.357 -12.357,12.357 -6.82459,0 -12.357,-5.53242 -12.357,-12.357 0,-6.82459 5.53241,-12.357 12.357,-12.357 6.82458,0 12.357,5.53241 12.357,12.357 z" />
		<circle
   cx="257.112"
   cy="218.95"
   r="7.3080001"
   id="circle205"
   sodipodi:cx="257.112"
   sodipodi:cy="218.95"
   sodipodi:rx="7.3080001"
   sodipodi:ry="7.3080001"
   style="fill:#eb5f73"
   d="m 264.42,218.95 c 0,4.03609 -3.2719,7.308 -7.308,7.308 -4.0361,0 -7.308,-3.27191 -7.308,-7.308 0,-4.0361 3.2719,-7.308 7.308,-7.308 4.0361,0 7.308,3.2719 7.308,7.308 z" />
		<path
   d="m 252.438,222.395 c 0,0 -3.859,1.561 -7.291,1.561 -3.432,0 -5.574,-1.795 -5.574,-4.172 0,-2.379 1.637,-2.379 1.637,-2.379 0,0 -0.701,-0.342 -0.701,-1.832 0,-1.421 1.17,-1.832 2.43,-1.832 1.802,0 8.406,3.742 8.406,3.742 l 1.093,4.912 z"
   id="path207"
   inkscape:connector-curvature="0"
   style="fill:#eb5f73" />
		<g
   id="g209">
			<rect
   x="255.737"
   y="225.786"
   width="0.625"
   height="2.392"
   id="rect211"
   style="fill:#eb5f73" />
			<rect
   x="257.245"
   y="225.786"
   width="0.62300003"
   height="2.392"
   id="rect213"
   style="fill:#eb5f73" />
		</g>
	</g>
	<g
   id="g215">
		<path
   d="m 274.676,206.411 c 0.01,-0.053 0.02,-0.106 0.027,-0.16 0.018,-0.123 0.029,-0.247 0.039,-0.373 0.006,-0.067 0.01,-0.136 0.014,-0.205 0.002,-0.03 0.004,-0.059 0.006,-0.09 l -0.006,-0.004 c 0.002,-0.143 0.004,-0.285 -0.006,-0.432 -0.186,-2.858 -2.654,-5.021 -5.512,-4.835 -2.336,0.153 -4.201,1.831 -4.704,3.999 -0.005,0.016 -0.007,0.033 -0.011,0.05 -0.035,0.159 -0.064,0.321 -0.084,0.485 -0.006,0.047 -0.01,0.093 -0.014,0.141 -0.014,0.134 -0.021,0.269 -0.023,0.406 0,0.035 -0.006,0.068 -0.006,0.103 0,0.038 0.004,0.075 0.006,0.112 0,0.043 -0.003,0.086 0,0.129 l 0.007,0.002 c 0.128,2.75 2.391,4.941 5.171,4.941 2.367,0 4.355,-1.588 4.977,-3.754 0.008,-0.031 0.018,-0.062 0.025,-0.095 0.038,-0.137 0.069,-0.278 0.094,-0.42 z"
   id="path217"
   inkscape:connector-curvature="0"
   style="fill:#ffffff" />
		<ellipse
   cx="269.57901"
   cy="205.491"
   rx="1.7970001"
   ry="1.914"
   id="ellipse219"
   sodipodi:cx="269.57901"
   sodipodi:cy="205.491"
   sodipodi:rx="1.7970001"
   sodipodi:ry="1.914"
   d="m 271.37601,205.491 c 0,1.05707 -0.80454,1.914 -1.797,1.914 -0.99246,0 -1.797,-0.85693 -1.797,-1.914 0,-1.05708 0.80454,-1.914 1.797,-1.914 0.99246,0 1.797,0.85692 1.797,1.914 z" />
		<circle
   cx="269.57999"
   cy="204.37199"
   r="0.46799999"
   id="circle221"
   sodipodi:cx="269.57999"
   sodipodi:cy="204.37199"
   sodipodi:rx="0.46799999"
   sodipodi:ry="0.46799999"
   style="fill:#ffffff"
   d="m 270.04799,204.37199 c 0,0.25847 -0.20953,0.468 -0.468,0.468 -0.25847,0 -0.468,-0.20953 -0.468,-0.468 0,-0.25847 0.20953,-0.468 0.468,-0.468 0.25847,0 0.468,0.20953 0.468,0.468 z" />
	</g>
</g>









































</svg>