<?xml version="1.0" encoding="UTF-8" standalone="no"?>
<!-- Generator: Adobe Illustrator 15.0.2, SVG Export Plug-In . SVG Version: 6.00 Build 0)  -->

<svg
   xmlns:dc="http://purl.org/dc/elements/1.1/"
   xmlns:cc="http://creativecommons.org/ns#"
   xmlns:rdf="http://www.w3.org/1999/02/22-rdf-syntax-ns#"
   xmlns:svg="http://www.w3.org/2000/svg"
   xmlns="http://www.w3.org/2000/svg"
   xmlns:sodipodi="http://sodipodi.sourceforge.net/DTD/sodipodi-0.dtd"
   xmlns:inkscape="http://www.inkscape.org/namespaces/inkscape"
   version="1.0"
   id="Layer_1"
   x="0px"
   y="0px"
   width="42.478001"
   height="33.108002"
   viewBox="0 0 42.478001 33.108002"
   enable-background="new 0 0 1028 855"
   xml:space="preserve"
   inkscape:version="0.48.2 r9819"
   sodipodi:docname="fugl_bleikur_profil.svg"><metadata
   id="metadata523"><rdf:RDF><cc:Work
       rdf:about=""><dc:format>image/svg+xml</dc:format><dc:type
         rdf:resource="http://purl.org/dc/dcmitype/StillImage" /><dc:title></dc:title></cc:Work></rdf:RDF></metadata><defs
   id="defs521" /><sodipodi:namedview
   pagecolor="#ffffff"
   bordercolor="#666666"
   borderopacity="1"
   objecttolerance="10"
   gridtolerance="10"
   guidetolerance="10"
   inkscape:pageopacity="0"
   inkscape:pageshadow="2"
   inkscape:window-width="1228"
   inkscape:window-height="1137"
   id="namedview519"
   showgrid="false"
   inkscape:zoom="0.55204678"
   inkscape:cx="354.97531"
   inkscape:cy="-358.57044"
   inkscape:window-x="690"
   inkscape:window-y="0"
   inkscape:window-maximized="0"
   inkscape:current-layer="Layer_1"
   fit-margin-top="0"
   fit-margin-left="0"
   fit-margin-right="0"
   fit-margin-bottom="0" />


<path
   d="m 405.222,312.661 c 0,6.262 -5.076,11.338 -11.34,11.338 H -14.787 c -6.262,0 -11.34,-5.076 -11.34,-11.338 v -30.996 c 0,-6.262 5.078,-11.338 11.34,-11.338 h 408.669 c 6.264,0 11.34,5.076 11.34,11.338 v 30.996 z"
   id="path101"
   inkscape:connector-curvature="0"
   style="fill:#ffffff" />
<path
   d="m 398.251,27.488004 c 0,6.262 -5.076,11.338 -11.34,11.338 H -9.753 c -6.262,0 -11.338,-5.076 -11.338,-11.338 V 4.4940036 c 0,-6.262 5.076,-11.338 11.338,-11.338 h 396.664 c 6.264,0 11.34,5.076 11.34,11.338 V 27.488004 z"
   id="path103"
   inkscape:connector-curvature="0"
   style="fill:#ffffff" />

<text
   font-size="25.0514"
   id="text113"
   style="font-size:25.05139923px;fill:#ffffff;font-family:MyriadPro-Bold"
   x="133.94679"
   y="-76.852097">Ættliður 1</text>





<path
   d="m 405.222,425.995 c 0,6.262 -5.076,11.338 -11.34,11.338 H -14.787 c -6.262,0 -11.34,-5.076 -11.34,-11.338 v -30.996 c 0,-6.262 5.078,-11.338 11.34,-11.338 h 408.669 c 6.264,0 11.34,5.076 11.34,11.338 v 30.996 z"
   id="path129"
   inkscape:connector-curvature="0"
   style="fill:#ffffff" />

<path
   d="m 405.222,538.661 c 0,6.262 -5.076,11.338 -11.34,11.338 H -14.787 c -6.262,0 -11.34,-5.076 -11.34,-11.338 v -30.996 c 0,-6.262 5.078,-11.338 11.34,-11.338 h 408.669 c 6.264,0 11.34,5.076 11.34,11.338 v 30.996 z"
   id="path133"
   inkscape:connector-curvature="0"
   style="fill:#ffffff" />

























<g
   id="g4509"
   transform="translate(-71.018,-195.024)"><polygon
     id="polygon241"
     points="113.496,206.945 107.51,211.208 103.247,206.945 107.51,202.681 "
     style="fill:#f7941e" /><circle
     id="circle243"
     r="12.357"
     cy="207.381"
     cx="96.238998"
     sodipodi:cx="96.238998"
     sodipodi:cy="207.381"
     sodipodi:rx="12.357"
     sodipodi:ry="12.357"
     d="m 108.596,207.381 c 0,6.82458 -5.53242,12.357 -12.357002,12.357 -6.824582,0 -12.357,-5.53242 -12.357,-12.357 0,-6.82459 5.532418,-12.357 12.357,-12.357 6.824582,0 12.357002,5.53241 12.357002,12.357 z" /><path
     id="path245"
     d="m 96.937,201.133 c -1.156,0.951 -1.894,2.391 -1.894,4.004 0,2.865 2.321,5.185 5.185,5.185 2.835,0 5.134,-2.275 5.18,-5.099 l -8.471,-4.09 z"
     stroke-miterlimit="10"
     inkscape:connector-curvature="0"
     style="fill:#ffffff;stroke:#000000;stroke-width:0.1355;stroke-miterlimit:10" /><path
     id="path247"
     d="m 99.084,204.134 c -0.399,0.33 -0.655,0.829 -0.655,1.389 0,0.993 0.805,1.797 1.797,1.797 0.982,0 1.781,-0.789 1.797,-1.768 l -2.939,-1.418 z"
     inkscape:connector-curvature="0" /><circle
     id="circle249"
     r="0.46799999"
     cy="204.71899"
     cx="99.758003"
     sodipodi:cx="99.758003"
     sodipodi:cy="204.71899"
     sodipodi:rx="0.46799999"
     sodipodi:ry="0.46799999"
     style="fill:#ffffff"
     d="m 100.226,204.71899 c 0,0.25847 -0.20953,0.468 -0.467997,0.468 -0.258469,0 -0.468,-0.20953 -0.468,-0.468 0,-0.25847 0.209531,-0.468 0.468,-0.468 0.258467,0 0.467997,0.20953 0.467997,0.468 z" /><circle
     id="circle251"
     r="7.309"
     cy="218.905"
     cx="88.557999"
     sodipodi:cx="88.557999"
     sodipodi:cy="218.905"
     sodipodi:rx="7.309"
     sodipodi:ry="7.309"
     d="m 95.866999,218.905 c 0,4.03665 -3.272351,7.309 -7.309,7.309 -4.03665,0 -7.309,-3.27235 -7.309,-7.309 0,-4.03665 3.27235,-7.309 7.309,-7.309 4.036649,0 7.309,3.27235 7.309,7.309 z" /><path
     id="path253"
     d="m 83.882,222.35 c 0,0 -3.858,1.56 -7.289,1.56 -3.432,0 -5.575,-1.794 -5.575,-4.171 0,-2.378 1.638,-2.378 1.638,-2.378 0,0 -0.702,-0.342 -0.702,-1.832 0,-1.421 1.171,-1.832 2.431,-1.832 1.801,0 8.406,3.742 8.406,3.742 l 1.091,4.911 z"
     inkscape:connector-curvature="0" /><rect
     id="rect255"
     height="2.391"
     width="0.625"
     y="225.741"
     x="87.181999" /><rect
     id="rect257"
     height="2.391"
     width="0.62300003"
     y="225.741"
     x="88.690002" /></g>























</svg>