<?xml version="1.0" encoding="UTF-8" standalone="no"?>
<!-- Generator: Adobe Illustrator 15.0.2, SVG Export Plug-In . SVG Version: 6.00 Build 0)  -->

<svg
   xmlns:dc="http://purl.org/dc/elements/1.1/"
   xmlns:cc="http://creativecommons.org/ns#"
   xmlns:rdf="http://www.w3.org/1999/02/22-rdf-syntax-ns#"
   xmlns:svg="http://www.w3.org/2000/svg"
   xmlns="http://www.w3.org/2000/svg"
   xmlns:sodipodi="http://sodipodi.sourceforge.net/DTD/sodipodi-0.dtd"
   xmlns:inkscape="http://www.inkscape.org/namespaces/inkscape"
   version="1.0"
   id="Layer_1"
   x="0px"
   y="0px"
   width="42.485001"
   height="33.147995"
   viewBox="0 0 42.485001 33.147995"
   enable-background="new 0 0 1028 855"
   xml:space="preserve"
   inkscape:version="0.48.2 r9819"
   sodipodi:docname="iphone_spurningar.svg"><metadata
   id="metadata523"><rdf:RDF><cc:Work
       rdf:about=""><dc:format>image/svg+xml</dc:format><dc:type
         rdf:resource="http://purl.org/dc/dcmitype/StillImage" /><dc:title></dc:title></cc:Work></rdf:RDF></metadata><defs
   id="defs521" /><sodipodi:namedview
   pagecolor="#ffffff"
   bordercolor="#666666"
   borderopacity="1"
   objecttolerance="10"
   gridtolerance="10"
   guidetolerance="10"
   inkscape:pageopacity="0"
   inkscape:pageshadow="2"
   inkscape:window-width="1228"
   inkscape:window-height="1137"
   id="namedview519"
   showgrid="false"
   fit-margin-top="0"
   fit-margin-left="0"
   fit-margin-right="0"
   fit-margin-bottom="0"
   inkscape:zoom="3.1228482"
   inkscape:cx="7.1229672"
   inkscape:cy="60.500342"
   inkscape:window-x="690"
   inkscape:window-y="0"
   inkscape:window-maximized="0"
   inkscape:current-layer="Layer_1" />


<path
   d="m 70.39,312.692 c 0,6.262 -5.076,11.338 -11.34,11.338 h -408.669 c -6.262,0 -11.34,-5.076 -11.34,-11.338 v -30.996 c 0,-6.262 5.078,-11.338 11.34,-11.338 H 59.05 c 6.264,0 11.34,5.076 11.34,11.338 v 30.996 z"
   id="path101"
   inkscape:connector-curvature="0"
   style="fill:#ffffff" />
<path
   d="m 63.419,27.518992 c 0,6.262 -5.076,11.338 -11.34,11.338 h -396.664 c -6.262,0 -11.338,-5.076 -11.338,-11.338 V 4.5249922 c 0,-6.262 5.076,-11.338 11.338,-11.338 H 52.079 c 6.264,0 11.34,5.076 11.34,11.338 V 27.518992 z"
   id="path103"
   inkscape:connector-curvature="0"
   style="fill:#ffffff" />






<path
   d="m 70.39,426.026 c 0,6.262 -5.076,11.338 -11.34,11.338 h -408.669 c -6.262,0 -11.34,-5.076 -11.34,-11.338 V 395.03 c 0,-6.262 5.078,-11.338 11.34,-11.338 H 59.05 c 6.264,0 11.34,5.076 11.34,11.338 v 30.996 z"
   id="path129"
   inkscape:connector-curvature="0"
   style="fill:#ffffff" />

<path
   d="m 70.39,538.692 c 0,6.262 -5.076,11.338 -11.34,11.338 h -408.669 c -6.262,0 -11.34,-5.076 -11.34,-11.338 v -30.996 c 0,-6.262 5.078,-11.338 11.34,-11.338 H 59.05 c 6.264,0 11.34,5.076 11.34,11.338 v 30.996 z"
   id="path133"
   inkscape:connector-curvature="0"
   style="fill:#ffffff" />






<g
   id="g171"
   transform="translate(-405.85,-194.993)">
	<g
   id="g173">
		<polygon
   points="442.351,202.653 448.335,206.918 442.351,211.181 438.087,206.918 "
   id="polygon175"
   style="fill:#e6e7e8" />
		<g
   id="g177">
			<circle
   cx="431.146"
   cy="207.354"
   r="12.361"
   id="circle179"
   d="m 443.507,207.354 c 0,6.8268 -5.53421,12.361 -12.361,12.361 -6.8268,0 -12.361,-5.5342 -12.361,-12.361 0,-6.82679 5.5342,-12.361 12.361,-12.361 6.82679,0 12.361,5.53421 12.361,12.361 z"
   sodipodi:cx="431.146"
   sodipodi:cy="207.354"
   sodipodi:rx="12.361"
   sodipodi:ry="12.361"
   style="fill:#e6e7e8" />
			<circle
   cx="423.39301"
   cy="218.914"
   r="7.3109999"
   id="circle181"
   d="m 430.70401,218.914 c 0,4.03776 -3.27325,7.311 -7.311,7.311 -4.03776,0 -7.311,-3.27324 -7.311,-7.311 0,-4.03775 3.27324,-7.311 7.311,-7.311 4.03775,0 7.311,3.27325 7.311,7.311 z"
   sodipodi:cx="423.39301"
   sodipodi:cy="218.914"
   sodipodi:rx="7.3109999"
   sodipodi:ry="7.3109999"
   style="fill:#e6e7e8" />
			<path
   d="m 418.715,222.359 c 0,0 -3.859,1.56 -7.291,1.56 -3.43,0 -5.574,-1.794 -5.574,-4.171 0,-2.378 1.639,-2.378 1.639,-2.378 0,0 -0.703,-0.342 -0.703,-1.832 0,-1.421 1.17,-1.832 2.432,-1.832 1.801,0 8.406,3.742 8.406,3.742 l 1.091,4.911 z"
   id="path183"
   inkscape:connector-curvature="0"
   style="fill:#e6e7e8" />
			<g
   id="g185">
				<rect
   x="422.01401"
   y="225.75"
   width="0.625"
   height="2.391"
   id="rect187"
   style="fill:#e6e7e8" />
				<rect
   x="423.522"
   y="225.75"
   width="0.62300003"
   height="2.391"
   id="rect189"
   style="fill:#e6e7e8" />
			</g>
		</g>
		<path
   d="m 440.96,206.375 c 0.01,-0.053 0.02,-0.106 0.027,-0.16 0.018,-0.123 0.029,-0.247 0.039,-0.373 0.006,-0.068 0.01,-0.136 0.014,-0.206 0.002,-0.03 0.004,-0.059 0.006,-0.09 l -0.006,-0.003 c 0.002,-0.144 0.004,-0.286 -0.006,-0.432 -0.186,-2.858 -2.654,-5.022 -5.512,-4.835 -2.336,0.153 -4.201,1.832 -4.705,3.999 -0.004,0.017 -0.006,0.033 -0.01,0.05 -0.035,0.159 -0.064,0.321 -0.084,0.485 -0.006,0.047 -0.01,0.093 -0.014,0.141 -0.014,0.134 -0.021,0.269 -0.023,0.406 0,0.035 -0.006,0.068 -0.006,0.103 0,0.038 0.004,0.075 0.006,0.113 0,0.043 -0.004,0.085 0,0.128 l 0.006,0.002 c 0.129,2.75 2.393,4.941 5.172,4.941 2.367,0 4.355,-1.588 4.977,-3.754 0.008,-0.031 0.018,-0.062 0.025,-0.094 0.037,-0.138 0.069,-0.278 0.094,-0.421 z"
   id="path191"
   inkscape:connector-curvature="0"
   style="fill:#ffffff" />
		<ellipse
   cx="435.862"
   cy="205.455"
   rx="1.7970001"
   ry="1.914"
   id="ellipse193"
   d="m 437.659,205.455 c 0,1.05707 -0.80454,1.914 -1.797,1.914 -0.99246,0 -1.797,-0.85693 -1.797,-1.914 0,-1.05707 0.80454,-1.914 1.797,-1.914 0.99246,0 1.797,0.85693 1.797,1.914 z"
   sodipodi:cx="435.862"
   sodipodi:cy="205.455"
   sodipodi:rx="1.7970001"
   sodipodi:ry="1.914"
   style="fill:#e6e7e8" />
		<circle
   cx="435.86301"
   cy="204.336"
   r="0.46799999"
   id="circle195"
   d="m 436.33101,204.336 c 0,0.25847 -0.20953,0.468 -0.468,0.468 -0.25847,0 -0.468,-0.20953 -0.468,-0.468 0,-0.25847 0.20953,-0.468 0.468,-0.468 0.25847,0 0.468,0.20953 0.468,0.468 z"
   sodipodi:cx="435.86301"
   sodipodi:cy="204.336"
   sodipodi:rx="0.46799999"
   sodipodi:ry="0.46799999"
   style="fill:#ffffff" />
	</g>
</g>










































</svg>