<?xml version="1.0" encoding="UTF-8" standalone="no"?>
<!-- Generator: Adobe Illustrator 15.0.2, SVG Export Plug-In . SVG Version: 6.00 Build 0)  -->

<svg
   xmlns:dc="http://purl.org/dc/elements/1.1/"
   xmlns:cc="http://creativecommons.org/ns#"
   xmlns:rdf="http://www.w3.org/1999/02/22-rdf-syntax-ns#"
   xmlns:svg="http://www.w3.org/2000/svg"
   xmlns="http://www.w3.org/2000/svg"
   xmlns:sodipodi="http://sodipodi.sourceforge.net/DTD/sodipodi-0.dtd"
   xmlns:inkscape="http://www.inkscape.org/namespaces/inkscape"
   version="1.0"
   id="Layer_1"
   x="0px"
   y="0px"
   width="71.050003"
   height="71.050003"
   viewBox="0 0 0 71.050003"
   enable-background="new 0 0 291 304.5"
   xml:space="preserve"
   inkscape:version="0.48.2 r9819"
   sodipodi:docname="fuglar_grair.svg"><metadata
   id="metadata367"><rdf:RDF><cc:Work
       rdf:about=""><dc:format>image/svg+xml</dc:format><dc:type
         rdf:resource="http://purl.org/dc/dcmitype/StillImage" /><dc:title></dc:title></cc:Work></rdf:RDF></metadata><defs
   id="defs365" /><sodipodi:namedview
   pagecolor="#ffffff"
   bordercolor="#666666"
   borderopacity="1"
   objecttolerance="10"
   gridtolerance="10"
   guidetolerance="10"
   inkscape:pageopacity="0"
   inkscape:pageshadow="2"
   inkscape:window-width="1005"
   inkscape:window-height="814"
   id="namedview363"
   showgrid="false"
   fit-margin-top="0"
   fit-margin-left="0"
   fit-margin-right="0"
   fit-margin-bottom="0"
   inkscape:zoom="6.2003284"
   inkscape:cx="35.981626"
   inkscape:cy="40.488451"
   inkscape:window-x="565"
   inkscape:window-y="249"
   inkscape:window-maximized="0"
   inkscape:current-layer="Layer_1" />













<g
   id="g297"
   transform="translate(-4.117,-216.45001)">
	<path
   d="m 61.809,250.129 c 0,-10.241 -7.391,-18.74 -17.127,-20.496 0.525,-2.886 1.45,-8.493 1.035,-10.221 -0.397,-1.653 -1.208,-3.076 -2.732,-2.711 -1.6,0.387 -1.747,1.392 -1.747,1.392 0,0 -0.516,-2.145 -3.069,-1.53 -2.553,0.612 -3.802,3.887 -2.723,8.38 0.392,1.626 1.021,3.269 1.663,4.709 -9.669,1.81 -16.992,10.282 -16.992,20.476 0,7.26 3.714,13.645 9.34,17.378 -0.53,1.375 -0.832,2.863 -0.832,4.425 0,6.198 4.577,11.312 10.532,12.185 v 3.384 h 1.054 v -3.275 c 0.248,0.015 0.494,0.037 0.745,0.037 0.251,0 0.498,-0.022 0.745,-0.037 v 3.275 h 1.051 v -3.384 c 5.955,-0.872 10.532,-5.986 10.532,-12.185 0,-1.559 -0.301,-3.045 -0.829,-4.417 5.635,-3.732 9.354,-10.121 9.354,-17.385 z"
   id="path299"
   inkscape:connector-curvature="0"
   style="fill:#eb5f73" />
	<polygon
   points="48.157,257.787 40.963,267.884 33.77,257.787 40.963,250.594 "
   id="polygon301"
   style="fill:#f7941e" />
	<g
   id="g303">
		<g
   id="g305">
			<ellipse
   cx="52.369999"
   cy="247.90199"
   rx="6.9879999"
   ry="9.3730001"
   id="ellipse307"
   sodipodi:cx="52.369999"
   sodipodi:cy="247.90199"
   sodipodi:rx="6.9879999"
   sodipodi:ry="9.3730001"
   style="fill:#ffffff"
   d="m 59.357999,247.90199 c 0,5.17657 -3.128634,9.373 -6.988,9.373 -3.859366,0 -6.988,-4.19643 -6.988,-9.373 0,-5.17656 3.128634,-9.373 6.988,-9.373 3.859366,0 6.988,4.19644 6.988,9.373 z" />
			<path
   d="m 55.197,247.902 c 0,2.096 -1.265,3.793 -2.827,3.793 -1.562,0 -2.827,-1.697 -2.827,-3.793 0,-2.092 1.265,-3.791 2.827,-3.791 1.562,0 2.827,1.7 2.827,3.791 z"
   id="path309"
   inkscape:connector-curvature="0" />
			<circle
   cx="52.369999"
   cy="245.539"
   r="0.78899997"
   id="circle311"
   sodipodi:cx="52.369999"
   sodipodi:cy="245.539"
   sodipodi:rx="0.78899997"
   sodipodi:ry="0.78899997"
   style="fill:#ffffff"
   d="m 53.158999,245.539 c 0,0.43575 -0.353247,0.789 -0.789,0.789 -0.435753,0 -0.789,-0.35325 -0.789,-0.789 0,-0.43575 0.353247,-0.789 0.789,-0.789 0.435753,0 0.789,0.35325 0.789,0.789 z" />
		</g>
		<g
   id="g313">
			<ellipse
   cx="29.556"
   cy="247.90199"
   rx="6.9879999"
   ry="9.3730001"
   id="ellipse315"
   sodipodi:cx="29.556"
   sodipodi:cy="247.90199"
   sodipodi:rx="6.9879999"
   sodipodi:ry="9.3730001"
   style="fill:#ffffff"
   d="m 36.544,247.90199 c 0,5.17657 -3.128634,9.373 -6.988,9.373 -3.859366,0 -6.988,-4.19643 -6.988,-9.373 0,-5.17656 3.128634,-9.373 6.988,-9.373 3.859366,0 6.988,4.19644 6.988,9.373 z" />
			<path
   d="m 32.383,247.902 c 0,2.096 -1.265,3.793 -2.827,3.793 -1.562,0 -2.828,-1.697 -2.828,-3.793 0,-2.092 1.266,-3.791 2.828,-3.791 1.562,0 2.827,1.7 2.827,3.791 z"
   id="path317"
   inkscape:connector-curvature="0" />
			<circle
   cx="29.556"
   cy="245.539"
   r="0.78899997"
   id="circle319"
   sodipodi:cx="29.556"
   sodipodi:cy="245.539"
   sodipodi:rx="0.78899997"
   sodipodi:ry="0.78899997"
   style="fill:#ffffff"
   d="m 30.345,245.539 c 0,0.43575 -0.353248,0.789 -0.789,0.789 -0.435753,0 -0.789,-0.35325 -0.789,-0.789 0,-0.43575 0.353247,-0.789 0.789,-0.789 0.435752,0 0.789,0.35325 0.789,0.789 z" />
		</g>
	</g>
</g>


</svg>